<svg width="49" height="49" viewBox="0 0 49 49" fill="none" xmlns="http://www.w3.org/2000/svg">
<path d="M25.2903 6.32259C26.162 6.32259 26.871 7.03151 26.871 7.90323H28.4516C28.4516 6.15978 27.0338 4.74194 25.2903 4.74194C23.5469 4.74194 22.129 6.15978 22.129 7.90323V9.48388C22.129 11.2273 23.5469 12.6452 25.2903 12.6452C27.0338 12.6452 28.4516 11.2273 28.4516 9.48388H26.871C26.871 10.3556 26.162 11.0645 25.2903 11.0645C24.4186 11.0645 23.7097 10.3556 23.7097 9.48388V7.90323C23.7097 7.03151 24.4186 6.32259 25.2903 6.32259Z" fill="white"/>
<path d="M33.9839 4.74194H30.0323V12.6452H31.6129V9.48388H33.9839C34.4194 9.48388 34.7742 9.83873 34.7742 10.2742V12.6452H36.3549V10.2742C36.3549 9.66486 36.117 9.11401 35.7384 8.69356C36.1178 8.2731 36.3549 7.72225 36.3549 7.11291C36.3549 5.80572 35.2911 4.74194 33.9839 4.74194ZM31.6129 7.90323V6.32259H33.9839C34.4194 6.32259 34.7742 6.67744 34.7742 7.11291C34.7742 7.54838 34.4194 7.90323 33.9839 7.90323H31.6129Z" fill="white"/>
<path d="M42.1076 9.48388H41.6666L40.086 4.74194H37.9355V12.6452H39.5161V8.03127L40.527 11.0645H43.2472L44.2581 8.03127V12.6452H45.8387V4.74194H43.6882L42.1076 9.48388Z" fill="white"/>
<path d="M3.16132 15.8064H4.74196V17.387H3.16132V15.8064Z" fill="white"/>
<path d="M6.32257 15.8064H7.90322V17.387H6.32257V15.8064Z" fill="white"/>
<path d="M9.48389 15.8064H11.0645V17.387H9.48389V15.8064Z" fill="white"/>
<path d="M40.3065 23.7097H27.6613C26.3541 23.7097 25.2903 24.7735 25.2903 26.0807V27.6613C25.2903 28.9685 26.3541 30.0323 27.6613 30.0323V31.6129C26.3541 31.6129 25.2903 32.6767 25.2903 33.9839V35.5646C25.2903 36.8717 26.3541 37.9355 27.6613 37.9355V39.5162C26.3541 39.5162 25.2903 40.5799 25.2903 41.8871V43.4678C25.2903 44.775 26.3541 45.8387 27.6613 45.8387H40.3065C41.6137 45.8387 42.6774 44.775 42.6774 43.4678V41.8871C42.6774 40.5799 41.6137 39.5162 40.3065 39.5162V37.9355C41.6137 37.9355 42.6774 36.8717 42.6774 35.5646V33.9839C42.6774 32.6767 41.6137 31.6129 40.3065 31.6129V30.0323C41.6137 30.0323 42.6774 28.9685 42.6774 27.6613V26.0807C42.6774 24.7735 41.6137 23.7097 40.3065 23.7097ZM41.0968 41.8871V43.4678C41.0968 43.904 40.7419 44.2581 40.3065 44.2581H27.6613C27.2258 44.2581 26.871 43.904 26.871 43.4678V41.8871C26.871 41.4509 27.2258 41.0968 27.6613 41.0968H40.3065C40.7419 41.0968 41.0968 41.4509 41.0968 41.8871ZM38.7258 39.5162H29.242V37.9355H38.7258V39.5162ZM41.0968 33.9839V35.5646C41.0968 36.0008 40.7419 36.3549 40.3065 36.3549H27.6613C27.2258 36.3549 26.871 36.0008 26.871 35.5646V33.9839C26.871 33.5477 27.2258 33.1936 27.6613 33.1936H40.3065C40.7419 33.1936 41.0968 33.5477 41.0968 33.9839ZM38.7258 31.6129H29.242V30.0323H38.7258V31.6129ZM41.0968 27.6613C41.0968 28.0976 40.7419 28.4517 40.3065 28.4517H27.6613C27.2258 28.4517 26.871 28.0976 26.871 27.6613V26.0807C26.871 25.6444 27.2258 25.2904 27.6613 25.2904H40.3065C40.7419 25.2904 41.0968 25.6444 41.0968 26.0807V27.6613Z" fill="white"/>
<path d="M45.0484 0H22.9194C20.7404 0 18.9677 1.77269 18.9677 3.95161V12.6452H2.37097C1.06377 12.6452 0 13.7089 0 15.0161V46.629C0 47.9362 1.06377 49 2.37097 49H43.4677C44.7749 49 45.8387 47.9362 45.8387 46.629V17.3073C47.6399 16.9398 49 15.3441 49 13.4355V3.95161C49 1.77269 47.2273 0 45.0484 0ZM2.37097 14.2258H19.0476C19.4151 16.027 21.0107 17.3871 22.9194 17.3871H25.7108L27.0282 18.9677H1.58065V15.0161C1.58065 14.5807 1.9355 14.2258 2.37097 14.2258ZM43.4677 47.4194H2.37097C1.9355 47.4194 1.58065 47.0653 1.58065 46.629V20.5484H28.3449L28.9408 21.2636C29.3992 21.8137 30.0726 22.129 30.7886 22.129C31.8239 22.129 32.7004 21.4675 33.0386 20.5484H44.2581V46.629C44.2581 47.0653 43.9032 47.4194 43.4677 47.4194ZM33.1936 18.9677V17.3871H44.2581V18.9677H33.1936ZM47.4194 13.4355C47.4194 14.7427 46.3556 15.8065 45.0484 15.8065H31.6129V19.7241C31.6129 20.1785 31.243 20.5484 30.7886 20.5484C30.5428 20.5484 30.312 20.4401 30.1548 20.252L26.4505 15.8065H22.9194C21.6122 15.8065 20.5484 14.7427 20.5484 13.4355V3.95161C20.5484 2.64442 21.6122 1.58065 22.9194 1.58065H45.0484C46.3556 1.58065 47.4194 2.64442 47.4194 3.95161V13.4355Z" fill="white"/>
<path d="M13.4355 39.5162C18.2288 39.5162 22.129 35.616 22.129 30.8227C22.129 26.0294 18.2288 22.1292 13.4355 22.1292C8.64218 22.1292 4.74194 26.0294 4.74194 30.8227C4.74194 35.616 8.64218 39.5162 13.4355 39.5162ZM13.4355 37.9356C11.7584 37.9356 10.2181 37.3492 9.00099 36.3747L13.7627 31.613H20.5018C20.1074 35.1639 17.0899 37.9356 13.4355 37.9356ZM18.9875 26.3882C19.8063 27.4117 20.3492 28.6627 20.5018 30.0324H15.3433L18.9875 26.3882ZM17.87 25.2707L13.4355 29.7052L9.00099 25.2707C10.2181 24.2962 11.7584 23.7098 13.4355 23.7098C15.1126 23.7098 16.6529 24.2962 17.87 25.2707ZM7.88348 26.3882L12.318 30.8227L7.88348 35.2572C6.90901 34.0401 6.32259 32.4998 6.32259 30.8227C6.32259 29.1456 6.90901 27.6053 7.88348 26.3882Z" fill="white"/>
<path d="M3.16132 41.0967H4.74196V42.6773H3.16132V41.0967Z" fill="white"/>
<path d="M6.32257 41.0967H23.7097V42.6773H6.32257V41.0967Z" fill="white"/>
<path d="M3.16132 44.2581H7.90325V45.8387H3.16132V44.2581Z" fill="white"/>
<path d="M9.48389 44.2581H23.7097V45.8387H9.48389V44.2581Z" fill="white"/>
</svg>
