<svg width="49" height="49" viewBox="0 0 49 49" fill="none" xmlns="http://www.w3.org/2000/svg">
<path d="M32.2583 28.7887L25.1459 18.5153C25.0732 18.4101 24.976 18.3241 24.8627 18.2647C24.7494 18.2054 24.6234 18.1743 24.4955 18.1743C24.3676 18.1743 24.2416 18.2054 24.1284 18.2647C24.0151 18.3241 23.9179 18.4101 23.8452 18.5153L16.7328 28.7887C16.6617 28.8902 16.6156 29.007 16.5982 29.1296C16.5807 29.2523 16.5923 29.3773 16.6322 29.4946L18.6565 35.5658H18.1729C17.9632 35.5658 17.7621 35.649 17.6138 35.7973C17.4655 35.9456 17.3822 36.1467 17.3822 36.3564V38.7266C17.3822 38.9363 17.4655 39.1374 17.6138 39.2857C17.7621 39.434 17.9632 39.5173 18.1729 39.5173H18.9636V48.2093C18.9636 48.3131 18.984 48.4159 19.0238 48.5118C19.0635 48.6078 19.1217 48.6949 19.1951 48.7683C19.2686 48.8418 19.3557 48.9 19.4516 48.9398C19.5476 48.9795 19.6504 48.9999 19.7542 48.9999H29.2369C29.4466 48.9999 29.6477 48.9166 29.796 48.7683C29.9442 48.6201 30.0275 48.419 30.0275 48.2093V39.5173H30.8182C31.0279 39.5173 31.229 39.434 31.3773 39.2857C31.5256 39.1374 31.6088 38.9363 31.6088 38.7266V36.3529C31.6088 36.2491 31.5884 36.1462 31.5487 36.0503C31.5089 35.9544 31.4507 35.8672 31.3773 35.7938C31.3039 35.7204 31.2167 35.6621 31.1208 35.6224C31.0248 35.5827 30.922 35.5622 30.8182 35.5622H30.3346L32.3589 29.4911C32.3982 29.3743 32.4095 29.2499 32.392 29.1279C32.3746 29.0059 32.3288 28.8898 32.2583 28.7887ZM24.4929 27.6574C24.6493 27.6574 24.8021 27.7037 24.9322 27.7906C25.0622 27.8775 25.1635 28.001 25.2234 28.1454C25.2832 28.2899 25.2989 28.4489 25.2684 28.6023C25.2379 28.7557 25.1626 28.8965 25.052 29.0071C24.9414 29.1177 24.8005 29.193 24.6471 29.2235C24.4938 29.254 24.3348 29.2383 24.1903 29.1785C24.0458 29.1187 23.9224 29.0173 23.8355 28.8873C23.7486 28.7573 23.7022 28.6044 23.7022 28.448C23.7022 28.3439 23.7228 28.2408 23.7627 28.1446C23.8027 28.0485 23.8613 27.9612 23.9351 27.8877C24.0089 27.8142 24.0964 27.7561 24.1928 27.7165C24.2891 27.677 24.3923 27.6569 24.4964 27.6574H24.4929ZM28.4444 47.4115H20.5431V39.5102H28.4444V47.4115ZM30.0328 37.9289H18.9706V37.1382H30.0328V37.9289ZM28.6721 35.5587H20.3296L18.2629 29.3622L23.7111 21.4944V26.0831C23.7117 26.1275 23.7158 26.1717 23.7234 26.2155C23.1943 26.3994 22.7474 26.7648 22.462 27.2469C22.1767 27.729 22.0713 28.2966 22.1646 28.8489C22.2579 29.4013 22.5438 29.9028 22.9716 30.2644C23.3994 30.6261 23.9415 30.8245 24.5017 30.8245C25.0619 30.8245 25.604 30.6261 26.0318 30.2644C26.4597 29.9028 26.7456 29.4013 26.8389 28.8489C26.9321 28.2966 26.8267 27.729 26.5414 27.2469C26.256 26.7648 25.8092 26.3994 25.28 26.2155C25.2877 26.1717 25.2918 26.1275 25.2924 26.0831V21.4944L30.7406 29.3622L28.6721 35.5587Z" fill="white"/>
<path d="M48.2021 8.69199H45.0412C44.8316 8.69199 44.6304 8.77529 44.4822 8.92356C44.3339 9.07184 44.2506 9.27295 44.2506 9.48265V10.2804C44.2177 10.2784 44.1847 10.2784 44.1517 10.2804H26.8666V9.48971C26.8666 9.38587 26.8462 9.28306 26.8064 9.18713C26.7667 9.09121 26.7085 9.00404 26.635 8.93062C26.5616 8.8572 26.4745 8.79897 26.3785 8.75923C26.2826 8.7195 26.1798 8.69904 26.076 8.69904H25.2853V4.74044H26.076C26.2856 4.74044 26.4868 4.65714 26.635 4.50886C26.7833 4.36058 26.8666 4.15948 26.8666 3.94978V0.790662C26.8666 0.580965 26.7833 0.379857 26.635 0.231579C26.4868 0.0833014 26.2856 0 26.076 0H22.9151C22.7054 0 22.5043 0.0833014 22.356 0.231579C22.2077 0.379857 22.1244 0.580965 22.1244 0.790662V3.95154C22.1244 4.16124 22.2077 4.36235 22.356 4.51063C22.5043 4.65891 22.7054 4.74221 22.9151 4.74221H23.7057V8.69375H22.9151C22.7054 8.69375 22.5043 8.77705 22.356 8.92533C22.2077 9.07361 22.1244 9.27471 22.1244 9.48441V10.2751H4.74044V9.48441C4.74044 9.27471 4.65714 9.07361 4.50886 8.92533C4.36058 8.77705 4.15948 8.69375 3.94978 8.69375H0.790662C0.581271 8.69375 0.380429 8.77681 0.232202 8.92471C0.0839748 9.0726 0.000467391 9.27326 0 9.48265V12.6435C0 12.8532 0.0833014 13.0543 0.231579 13.2026C0.379857 13.3509 0.580965 13.4342 0.790662 13.4342H3.95154C4.16124 13.4342 4.36235 13.3509 4.51063 13.2026C4.6589 13.0543 4.74221 12.8532 4.74221 12.6435V11.8529H17.8022C16.7589 12.5428 15.8264 13.3872 15.0367 14.3572C13.0292 16.7635 11.9046 19.7836 11.8493 22.9168H11.0587C10.849 22.9168 10.6479 23.0001 10.4996 23.1484C10.3513 23.2967 10.268 23.4978 10.268 23.7075V26.8684C10.268 27.0781 10.3513 27.2792 10.4996 27.4275C10.6479 27.5757 10.849 27.659 11.0587 27.659H14.2196C14.4293 27.659 14.6304 27.5757 14.7786 27.4275C14.9269 27.2792 15.0102 27.0781 15.0102 26.8684V23.7057C15.0102 23.6019 14.9898 23.4991 14.95 23.4032C14.9103 23.3072 14.8521 23.2201 14.7786 23.1467C14.7052 23.0732 14.6181 23.015 14.5221 22.9753C14.4262 22.9355 14.3234 22.9151 14.2196 22.9151H13.4289C13.4289 17.0557 17.9364 12.4335 22.1209 11.904V12.6435C22.1209 12.8532 22.2042 13.0543 22.3525 13.2026C22.5007 13.3509 22.7018 13.4342 22.9115 13.4342H26.0724C26.2821 13.4342 26.4832 13.3509 26.6315 13.2026C26.7798 13.0543 26.8631 12.8532 26.8631 12.6435V11.9023C28.0339 12.0941 29.1546 12.5179 30.1593 13.1489C31.164 13.7799 32.0324 14.6054 32.7136 15.5767C34.3396 17.701 35.3165 20.25 35.5268 22.9168H34.7679C34.6641 22.9168 34.5613 22.9373 34.4654 22.977C34.3694 23.0168 34.2823 23.075 34.2089 23.1484C34.1354 23.2218 34.0772 23.309 34.0375 23.4049C33.9977 23.5009 33.9773 23.6037 33.9773 23.7075V26.8684C33.9773 26.9722 33.9977 27.075 34.0375 27.171C34.0772 27.2669 34.1354 27.354 34.2089 27.4275C34.2823 27.5009 34.3694 27.5591 34.4654 27.5989C34.5613 27.6386 34.6641 27.659 34.7679 27.659H37.9288C38.1385 27.659 38.3396 27.5757 38.4879 27.4275C38.6362 27.2792 38.7195 27.0781 38.7195 26.8684V23.7057C38.7195 23.6019 38.699 23.4991 38.6593 23.4032C38.6196 23.3072 38.5613 23.2201 38.4879 23.1467C38.4145 23.0732 38.3273 23.015 38.2314 22.9753C38.1355 22.9355 38.0326 22.9151 37.9288 22.9151H37.1152C36.9133 19.8944 35.8173 17.002 33.9667 14.6061C33.1533 13.5382 32.1729 12.6086 31.0635 11.8529H44.1535C44.1864 11.8549 44.2194 11.8549 44.2523 11.8529V12.6506C44.2523 12.8603 44.3356 13.0614 44.4839 13.2097C44.6322 13.3579 44.8333 13.4413 45.043 13.4413H48.2039C48.4136 13.4413 48.6147 13.3579 48.763 13.2097C48.9113 13.0614 48.9946 12.8603 48.9946 12.6506V9.48265C48.9946 9.37867 48.974 9.27571 48.9342 9.17967C48.8944 9.08362 48.836 8.99638 48.7623 8.92294C48.6887 8.8495 48.6014 8.79129 48.5052 8.75166C48.4091 8.71203 48.3061 8.69175 48.2021 8.69199ZM3.16088 11.8529H1.58838V10.2645H3.17677L3.16088 11.8529ZM13.4342 26.076H11.8458V24.4876H13.4342V26.076ZM23.7057 1.58838H25.2941V3.17677H23.7057V1.58838ZM25.2941 11.8617H23.7057V10.2733H25.2941V11.8617ZM35.5674 24.5052H37.1558V26.0936H35.5674V24.5052ZM47.4203 11.8617H45.8319V10.2733H47.4203V11.8617Z" fill="white"/>
</svg>
