<svg width="908" height="162" viewBox="0 0 908 162" fill="none" xmlns="http://www.w3.org/2000/svg">
<path d="M24.1765 150.242L23.638 151.085L23.6465 151.09L24.1765 150.242ZM1.72246 122.338L1.22093 121.473L0.487138 121.898L0.787073 122.692L1.72246 122.338ZM31.8065 104.898L32.7241 104.501L32.2775 103.469L31.3049 104.033L31.8065 104.898ZM77.8045 103.154L77.2939 104.014L77.3194 104.029L77.3458 104.043L77.8045 103.154ZM52.9525 94.216L52.6884 95.1805L52.6933 95.1818L52.9525 94.216ZM21.9965 79.828L21.3659 80.6041L21.3831 80.6181L21.4009 80.6313L21.9965 79.828ZM23.0865 13.992L22.4484 13.222L22.443 13.2265L23.0865 13.992ZM92.4105 10.286L91.8828 11.1355L91.8922 11.1412L92.4105 10.286ZM115.082 35.792L115.588 36.6551L116.391 36.1847L115.979 35.3494L115.082 35.792ZM85.6525 53.014L84.7471 53.4387L85.2123 54.4302L86.1575 53.8771L85.6525 53.014ZM47.2845 38.626L46.6845 37.826V37.826L47.2845 38.626ZM48.1565 56.72L47.5163 57.4882L47.5313 57.5007L47.5468 57.5126L48.1565 56.72ZM70.3925 65.876L70.6999 64.9244L70.6853 64.9197L70.6705 64.9154L70.3925 65.876ZM84.5625 70.454L84.255 71.4056L84.2577 71.4064L84.5625 70.454ZM97.2065 76.34L96.7075 77.2066L96.733 77.2213L96.7593 77.2344L97.2065 76.34ZM108.978 84.842L108.219 85.4928L108.231 85.5068L108.244 85.5203L108.978 84.842ZM103.746 147.626L104.367 148.41L104.374 148.405L104.38 148.399L103.746 147.626ZM62.7625 159.052C47.6456 159.052 34.9777 155.814 24.7065 149.394L23.6465 151.09C34.3032 157.75 47.3593 161.052 62.7625 161.052V159.052ZM24.7149 149.399C14.4374 142.833 7.08912 133.706 2.65785 121.984L0.787073 122.692C5.36646 134.805 12.9875 144.28 23.6381 151.085L24.7149 149.399ZM2.22399 123.203L32.308 105.763L31.3049 104.033L1.22093 121.473L2.22399 123.203ZM30.8888 105.295C34.0023 112.486 38.312 117.941 43.8452 121.592C49.3789 125.244 56.0649 127.044 63.8525 127.044V125.044C56.38 125.044 50.095 123.32 44.9467 119.923C39.798 116.525 35.7146 111.407 32.7241 104.501L30.8888 105.295ZM63.8525 127.044C70.8232 127.044 76.2174 126.004 79.8995 123.795C83.6629 121.537 85.5625 118.099 85.5625 113.618H83.5625C83.5625 117.421 82.0104 120.196 78.8705 122.08C75.6492 124.013 70.6884 125.044 63.8525 125.044V127.044ZM85.5625 113.618C85.5625 111.124 84.956 108.896 83.713 106.971C82.4731 105.052 80.6368 103.491 78.2631 102.265L77.3458 104.043C79.4774 105.143 81.0202 106.488 82.0329 108.057C83.0426 109.62 83.5625 111.461 83.5625 113.618H85.5625ZM78.315 102.294C73.5358 99.4565 65.1338 96.4488 53.2116 93.2502L52.6933 95.1818C64.6058 98.3779 72.7718 101.329 77.2939 104.014L78.315 102.294ZM53.2166 93.2515C41.1041 89.935 30.9036 85.1867 22.592 79.0247L21.4009 80.6313C29.948 86.9679 40.3849 91.8117 52.6884 95.1805L53.2166 93.2515ZM22.6271 79.0519C13.5966 71.7146 9.04446 61.3389 9.04446 47.782H7.04446C7.04446 61.8384 11.7937 72.8267 21.3659 80.6041L22.6271 79.0519ZM9.04446 47.782C9.04446 33.9544 13.9468 22.9809 23.7299 14.7575L22.443 13.2265C12.1701 21.8617 7.04446 33.4149 7.04446 47.782H9.04446ZM23.7245 14.762C33.7078 6.49008 45.5413 2.34799 59.2745 2.34799V0.347988C45.1036 0.347988 32.8117 4.63524 22.4484 13.222L23.7245 14.762ZM59.2745 2.34799C71.6072 2.34799 82.4658 5.28549 91.8828 11.1354L92.9381 9.43655C83.1711 3.36916 71.9391 0.347988 59.2745 0.347988V2.34799ZM91.8922 11.1412C101.303 16.8449 108.738 25.1948 114.186 36.2345L115.979 35.3494C110.382 24.0079 102.702 15.3537 92.9288 9.43079L91.8922 11.1412ZM114.577 34.9289L85.1474 52.1509L86.1575 53.8771L115.588 36.6551L114.577 34.9289ZM86.5578 52.5893C83.7368 46.5762 80.0508 42.0045 75.4722 38.9395C70.8891 35.8714 65.4753 34.356 59.2745 34.356V36.356C65.1363 36.356 70.1502 37.7836 74.3597 40.6015C78.5738 43.4225 82.0454 47.6798 84.7471 53.4387L86.5578 52.5893ZM59.2745 34.356C54.0559 34.356 49.8214 35.4733 46.6845 37.826L47.8845 39.426C50.5609 37.4187 54.3197 36.356 59.2745 36.356V34.356ZM46.6845 37.826C43.5513 40.1758 41.9245 43.2222 41.9245 46.91H43.9245C43.9245 43.9125 45.2042 41.4362 47.8845 39.426L46.6845 37.826ZM41.9245 46.91C41.9245 50.9123 43.8623 54.4432 47.5163 57.4882L48.7966 55.9518C45.4747 53.1835 43.9245 50.1744 43.9245 46.91H41.9245ZM47.5468 57.5126C51.4911 60.5467 59.0717 63.64 70.1144 66.8366L70.6705 64.9154C59.6225 61.7173 52.3792 58.7066 48.7662 55.9274L47.5468 57.5126ZM70.085 66.8276L84.255 71.4056L84.8699 69.5024L70.6999 64.9244L70.085 66.8276ZM84.2577 71.4064C87.8007 72.5402 91.9481 74.4664 96.7075 77.2066L97.7054 75.4734C92.8728 72.691 88.5909 70.6932 84.8672 69.5016L84.2577 71.4064ZM96.7593 77.2344C101.922 79.8157 105.72 82.577 108.219 85.4928L109.738 84.1912C107.005 81.0029 102.955 78.0963 97.6537 75.4456L96.7593 77.2344ZM108.244 85.5203C115.031 92.8734 118.442 102.07 118.442 113.182H120.442C120.442 101.622 116.878 91.9253 109.713 84.1637L108.244 85.5203ZM118.442 113.182C118.442 127.292 113.328 138.481 103.113 146.853L104.38 148.399C115.092 139.621 120.442 127.848 120.442 113.182H118.442ZM103.126 146.842C92.8806 154.953 79.4562 159.052 62.7625 159.052V161.052C79.7861 161.052 93.6844 156.867 104.367 148.41L103.126 146.842ZM232.281 143.484L232.988 144.191L232.281 143.484ZM150.313 143.484L149.606 144.191L150.313 143.484ZM232.281 61.734L231.574 62.4411L232.281 61.734ZM173.421 121.03L174.128 120.323L173.421 121.03ZM209.173 121.03L208.466 120.323L209.173 121.03ZM209.173 83.97L208.466 84.6771L209.173 83.97ZM173.421 83.97L174.128 84.6771L173.421 83.97ZM231.574 142.777C220.725 153.626 207.322 159.052 191.297 159.052V161.052C207.827 161.052 221.747 155.433 232.988 144.191L231.574 142.777ZM191.297 159.052C175.273 159.052 161.87 153.626 151.02 142.777L149.606 144.191C160.848 155.433 174.767 161.052 191.297 161.052V159.052ZM151.02 142.777C140.021 131.778 134.527 118.373 134.527 102.5H132.527C132.527 118.891 138.224 132.809 149.606 144.191L151.02 142.777ZM134.527 102.5C134.527 86.7755 140.019 73.4421 151.02 62.4411L149.606 61.0269C138.226 72.4072 132.527 86.2511 132.527 102.5H134.527ZM151.02 62.4411C162.02 51.442 175.425 45.948 191.297 45.948V43.948C174.906 43.948 160.988 49.6447 149.606 61.0269L151.02 62.4411ZM191.297 45.948C207.17 45.948 220.575 51.442 231.574 62.4411L232.988 61.0269C221.606 49.6447 207.689 43.948 191.297 43.948V45.948ZM231.574 62.4411C242.575 73.4421 248.067 86.7755 248.067 102.5H250.067C250.067 86.2511 244.369 72.4072 232.988 61.0269L231.574 62.4411ZM248.067 102.5C248.067 118.373 242.573 131.778 231.574 142.777L232.988 144.191C244.371 132.809 250.067 118.891 250.067 102.5H248.067ZM165.227 102.5C165.227 110.289 167.708 116.731 172.714 121.737L174.128 120.323C169.542 115.737 167.227 109.825 167.227 102.5H165.227ZM172.714 121.737C177.708 126.731 183.925 129.224 191.297 129.224V127.224C184.426 127.224 178.727 124.921 174.128 120.323L172.714 121.737ZM191.297 129.224C198.669 129.224 204.887 126.731 209.88 121.737L208.466 120.323C203.868 124.921 198.168 127.224 191.297 127.224V129.224ZM209.88 121.737C214.886 116.731 217.367 110.289 217.367 102.5H215.367C215.367 109.825 213.052 115.737 208.466 120.323L209.88 121.737ZM217.367 102.5C217.367 94.7106 214.886 88.2686 209.88 83.2629L208.466 84.6771C213.052 89.2634 215.367 95.1747 215.367 102.5H217.367ZM209.88 83.2629C204.887 78.2692 198.669 75.776 191.297 75.776V77.776C198.168 77.776 203.868 80.0788 208.466 84.6771L209.88 83.2629ZM191.297 75.776C183.925 75.776 177.708 78.2692 172.714 83.2629L174.128 84.6771C178.727 80.0788 184.426 77.776 191.297 77.776V75.776ZM172.714 83.2629C167.708 88.2686 165.227 94.7106 165.227 102.5H167.227C167.227 95.1747 169.542 89.2634 174.128 84.6771L172.714 83.2629ZM324.32 1.34799H325.32V0.405083L324.379 0.349716L324.32 1.34799ZM324.32 32.74L324.234 33.7363L325.32 33.8297V32.74H324.32ZM304.046 48H303.046V49H304.046V48ZM324.32 48H325.32V47H324.32V48ZM324.32 79.392V80.392H325.32V79.392H324.32ZM304.046 79.392V78.392H303.046V79.392H304.046ZM304.046 157V158H305.046V157H304.046ZM271.346 157H270.346V158H271.346V157ZM271.346 79.392H272.346V78.392H271.346V79.392ZM256.74 79.392H255.74V80.392H256.74V79.392ZM256.74 48V47H255.74V48H256.74ZM271.346 48V49H272.346V48H271.346ZM284.862 12.03L284.192 11.2879L284.862 12.03ZM323.32 1.34799V32.74H325.32V1.34799H323.32ZM324.406 31.7437C317.542 31.1533 312.178 32.1254 308.513 34.884C304.803 37.6764 303.046 42.1335 303.046 48H305.046C305.046 42.5305 306.668 38.7763 309.716 36.482C312.809 34.1539 317.581 33.164 324.234 33.7363L324.406 31.7437ZM304.046 49H324.32V47H304.046V49ZM323.32 48V79.392H325.32V48H323.32ZM324.32 78.392H304.046V80.392H324.32V78.392ZM303.046 79.392V157H305.046V79.392H303.046ZM304.046 156H271.346V158H304.046V156ZM272.346 157V79.392H270.346V157H272.346ZM271.346 78.392H256.74V80.392H271.346V78.392ZM257.74 79.392V48H255.74V79.392H257.74ZM256.74 49H271.346V47H256.74V49ZM272.346 48C272.346 32.3503 276.791 20.6676 285.532 12.7721L284.192 11.2879C274.912 19.6697 270.346 31.967 270.346 48H272.346ZM285.532 12.7721C294.272 4.87799 307.119 1.33789 324.261 2.34626L324.379 0.349716C306.932 -0.676563 293.473 2.90467 284.192 11.2879L285.532 12.7721ZM403.394 48H404.394V47H403.394V48ZM403.394 79.392V80.392H404.394V79.392H403.394ZM380.94 79.392V78.392H379.94V79.392H380.94ZM385.954 126.262L385.59 127.193L385.608 127.2L385.626 127.206L385.954 126.262ZM403.394 127.352H404.394V126.298L403.342 126.353L403.394 127.352ZM403.394 157L403.499 157.994L404.394 157.9V157H403.394ZM360.23 151.114L359.614 151.902L359.622 151.908L359.63 151.914L360.23 151.114ZM348.24 79.392H349.24V78.392H348.24V79.392ZM330.8 79.392H329.8V80.392H330.8V79.392ZM330.8 48V47H329.8V48H330.8ZM348.24 48V49H349.24V48H348.24ZM348.24 27.29L347.953 26.3322L347.24 26.546V27.29H348.24ZM380.94 17.48H381.94V16.136L380.653 16.5222L380.94 17.48ZM380.94 48H379.94V49H380.94V48ZM402.394 48V79.392H404.394V48H402.394ZM403.394 78.392H380.94V80.392H403.394V78.392ZM379.94 79.392V117.978H381.94V79.392H379.94ZM379.94 117.978C379.94 120.213 380.383 122.15 381.338 123.728C382.301 125.318 383.738 126.469 385.59 127.193L386.319 125.331C384.828 124.747 383.758 123.864 383.049 122.692C382.333 121.509 381.94 119.957 381.94 117.978H379.94ZM385.626 127.206C389.171 128.44 395.161 128.787 403.447 128.351L403.342 126.353C395.059 126.789 389.423 126.41 386.283 125.318L385.626 127.206ZM402.394 127.352V157H404.394V127.352H402.394ZM403.289 156.006C382.681 158.182 368.64 156.171 360.83 150.314L359.63 151.914C368.098 158.265 382.833 160.178 403.499 157.994L403.289 156.006ZM360.846 150.326C353.206 144.353 349.24 133.686 349.24 117.978H347.24C347.24 133.952 351.268 145.376 359.614 151.902L360.846 150.326ZM349.24 117.978V79.392H347.24V117.978H349.24ZM348.24 78.392H330.8V80.392H348.24V78.392ZM331.8 79.392V48H329.8V79.392H331.8ZM330.8 49H348.24V47H330.8V49ZM349.24 48V27.29H347.24V48H349.24ZM348.528 28.2478L381.228 18.4378L380.653 16.5222L347.953 26.3322L348.528 28.2478ZM379.94 17.48V48H381.94V17.48H379.94ZM380.94 49H403.394V47H380.94V49ZM425.128 4.39999V3.39999H424.128V4.39999H425.128ZM538.924 26.418L538.206 27.1144L538.924 26.418ZM538.924 135.2L538.206 134.504L538.206 134.504L538.924 135.2ZM425.128 157H424.128V158H425.128V157ZM460.008 123.428H459.008V124.428H460.008V123.428ZM515.38 111.874L514.666 111.174L514.659 111.181L515.38 111.874ZM515.38 49.744L514.653 50.4306L514.663 50.441L514.673 50.4511L515.38 49.744ZM460.008 37.972V36.972H459.008V37.972H460.008ZM425.128 5.39999H486.168V3.39999H425.128V5.39999ZM486.168 5.39999C506.832 5.39999 524.157 12.6348 538.206 27.1144L539.642 25.7216C525.206 10.8438 507.359 3.39999 486.168 3.39999V5.39999ZM538.206 27.1144C552.258 41.596 559.288 59.4358 559.288 80.7H561.288C561.288 58.9455 554.075 40.5973 539.642 25.7216L538.206 27.1144ZM559.288 80.7C559.288 102.112 552.256 120.023 538.206 134.504L539.642 135.896C554.077 121.019 561.288 102.598 561.288 80.7H559.288ZM538.206 134.504C524.305 148.834 506.983 156 486.168 156V158C507.499 158 525.348 150.632 539.642 135.896L538.206 134.504ZM486.168 156H425.128V158H486.168V156ZM426.128 157V4.39999H424.128V157H426.128ZM460.008 124.428H486.168V122.428H460.008V124.428ZM486.168 124.428C498.464 124.428 508.475 120.492 516.1 112.567L514.659 111.181C507.461 118.661 497.997 122.428 486.168 122.428V124.428ZM516.094 112.574C523.872 104.646 527.716 93.9828 527.716 80.7H525.716C525.716 93.5772 522.002 103.696 514.666 111.174L516.094 112.574ZM527.716 80.7C527.716 67.4179 523.872 56.8221 516.087 49.0369L514.673 50.4511C522.002 57.7805 525.716 67.8221 525.716 80.7H527.716ZM516.107 49.0574C508.483 40.9848 498.47 36.972 486.168 36.972V38.972C497.991 38.972 507.453 42.8072 514.653 50.4306L516.107 49.0574ZM486.168 36.972H460.008V38.972H486.168V36.972ZM459.008 37.972V123.428H461.008V37.972H459.008ZM657.943 58.246L657.182 58.8947L658.943 60.9605V58.246H657.943ZM657.943 48V47H656.943V48H657.943ZM690.643 48H691.643V47H690.643V48ZM690.643 157V158H691.643V157H690.643ZM657.943 157H656.943V158H657.943V157ZM657.943 146.754H658.943V144.039L657.182 146.105L657.943 146.754ZM588.619 143.484L587.884 144.161L588.619 143.484ZM588.619 61.734L587.884 61.0561L587.884 61.0565L588.619 61.734ZM613.253 121.902L613.96 121.195L613.253 121.902ZM650.749 121.902L650.042 121.195L650.749 121.902ZM613.253 83.098L613.96 83.8051L613.253 83.098ZM658.943 58.246V48H656.943V58.246H658.943ZM657.943 49H690.643V47H657.943V49ZM689.643 48V157H691.643V48H689.643ZM690.643 156H657.943V158H690.643V156ZM658.943 157V146.754H656.943V157H658.943ZM657.182 146.105C649.855 154.701 639.333 159.052 625.461 159.052V161.052C639.784 161.052 650.917 156.538 658.704 147.403L657.182 146.105ZM625.461 159.052C611.366 159.052 599.348 153.656 589.355 142.807L587.884 144.161C598.237 155.402 610.78 161.052 625.461 161.052V159.052ZM589.355 142.807C579.367 131.962 574.359 118.549 574.359 102.5H572.359C572.359 119.005 577.525 132.915 587.884 144.161L589.355 142.807ZM574.359 102.5C574.359 86.5986 579.365 73.2577 589.355 62.4115L587.884 61.0565C577.527 72.3009 572.359 86.1373 572.359 102.5H574.359ZM589.354 62.4119C599.498 51.4107 611.519 45.948 625.461 45.948V43.948C610.919 43.948 598.378 49.676 587.884 61.0561L589.354 62.4119ZM625.461 45.948C639.333 45.948 649.855 50.2989 657.182 58.8947L658.704 57.5973C650.917 48.4624 639.784 43.948 625.461 43.948V45.948ZM605.059 102.5C605.059 110.847 607.526 117.589 612.546 122.609L613.96 121.195C609.389 116.623 607.059 110.43 607.059 102.5H605.059ZM612.546 122.609C617.556 127.619 624.073 130.096 632.001 130.096V128.096C624.525 128.096 618.543 125.777 613.96 121.195L612.546 122.609ZM632.001 130.096C639.93 130.096 646.447 127.619 651.456 122.609L650.042 121.195C645.46 125.777 639.478 128.096 632.001 128.096V130.096ZM651.456 122.609C656.477 117.589 658.943 110.847 658.943 102.5H656.943C656.943 110.43 654.614 116.623 650.042 121.195L651.456 122.609ZM658.943 102.5C658.943 94.1529 656.477 87.4111 651.456 82.3909L650.042 83.8051C654.614 88.3769 656.943 94.5698 656.943 102.5H658.943ZM651.456 82.3909C646.447 77.3814 639.93 74.904 632.001 74.904V76.904C639.478 76.904 645.46 79.2226 650.042 83.8051L651.456 82.3909ZM632.001 74.904C624.073 74.904 617.556 77.3814 612.546 82.3909L613.96 83.8051C618.543 79.2226 624.525 76.904 632.001 76.904V74.904ZM612.546 82.3909C607.526 87.4111 605.059 94.1529 605.059 102.5H607.059C607.059 94.5698 609.389 88.3769 613.96 83.8051L612.546 82.3909ZM778.508 48H779.508V47H778.508V48ZM778.508 79.392V80.392H779.508V79.392H778.508ZM756.054 79.392V78.392H755.054V79.392H756.054ZM761.068 126.262L760.703 127.193L760.721 127.2L760.739 127.206L761.068 126.262ZM778.508 127.352H779.508V126.298L778.455 126.353L778.508 127.352ZM778.508 157L778.613 157.994L779.508 157.9V157H778.508ZM735.344 151.114L734.728 151.902L734.736 151.908L734.744 151.914L735.344 151.114ZM723.354 79.392H724.354V78.392H723.354V79.392ZM705.914 79.392H704.914V80.392H705.914V79.392ZM705.914 48V47H704.914V48H705.914ZM723.354 48V49H724.354V48H723.354ZM723.354 27.29L723.066 26.3322L722.354 26.546V27.29H723.354ZM756.054 17.48H757.054V16.136L755.766 16.5222L756.054 17.48ZM756.054 48H755.054V49H756.054V48ZM777.508 48V79.392H779.508V48H777.508ZM778.508 78.392H756.054V80.392H778.508V78.392ZM755.054 79.392V117.978H757.054V79.392H755.054ZM755.054 117.978C755.054 120.213 755.497 122.15 756.452 123.728C757.414 125.318 758.851 126.469 760.703 127.193L761.432 125.331C759.941 124.747 758.872 123.864 758.163 122.692C757.446 121.509 757.054 119.957 757.054 117.978H755.054ZM760.739 127.206C764.285 128.44 770.275 128.787 778.56 128.351L778.455 126.353C770.172 126.789 764.536 126.41 761.396 125.318L760.739 127.206ZM777.508 127.352V157H779.508V127.352H777.508ZM778.403 156.006C757.794 158.182 743.754 156.171 735.944 150.314L734.744 151.914C743.211 158.265 757.946 160.178 778.613 157.994L778.403 156.006ZM735.959 150.326C728.319 144.353 724.354 133.686 724.354 117.978H722.354C722.354 133.952 726.381 145.376 734.728 151.902L735.959 150.326ZM724.354 117.978V79.392H722.354V117.978H724.354ZM723.354 78.392H705.914V80.392H723.354V78.392ZM706.914 79.392V48H704.914V79.392H706.914ZM705.914 49H723.354V47H705.914V49ZM724.354 48V27.29H722.354V48H724.354ZM723.641 28.2478L756.341 18.4378L755.766 16.5222L723.066 26.3322L723.641 28.2478ZM755.054 17.48V48H757.054V17.48H755.054ZM756.054 49H778.508V47H756.054V49ZM874.027 58.246L873.266 58.8947L875.027 60.9605V58.246H874.027ZM874.027 48V47H873.027V48H874.027ZM906.727 48H907.727V47H906.727V48ZM906.727 157V158H907.727V157H906.727ZM874.027 157H873.027V158H874.027V157ZM874.027 146.754H875.027V144.039L873.266 146.105L874.027 146.754ZM804.703 143.484L803.968 144.161L804.703 143.484ZM804.703 61.734L803.968 61.0561L803.968 61.0565L804.703 61.734ZM829.337 121.902L830.044 121.195L829.337 121.902ZM866.833 121.902L866.126 121.195L866.833 121.902ZM829.337 83.098L830.044 83.8051L829.337 83.098ZM875.027 58.246V48H873.027V58.246H875.027ZM874.027 49H906.727V47H874.027V49ZM905.727 48V157H907.727V48H905.727ZM906.727 156H874.027V158H906.727V156ZM875.027 157V146.754H873.027V157H875.027ZM873.266 146.105C865.939 154.701 855.417 159.052 841.545 159.052V161.052C855.868 161.052 867.001 156.538 874.788 147.403L873.266 146.105ZM841.545 159.052C827.45 159.052 815.432 153.656 805.439 142.807L803.968 144.161C814.321 155.402 826.864 161.052 841.545 161.052V159.052ZM805.439 142.807C795.451 131.962 790.443 118.549 790.443 102.5H788.443C788.443 119.005 793.609 132.915 803.968 144.161L805.439 142.807ZM790.443 102.5C790.443 86.5986 795.449 73.2577 805.439 62.4115L803.968 61.0565C793.611 72.3009 788.443 86.1373 788.443 102.5H790.443ZM805.438 62.4119C815.582 51.4107 827.603 45.948 841.545 45.948V43.948C827.003 43.948 814.462 49.676 803.968 61.0561L805.438 62.4119ZM841.545 45.948C855.417 45.948 865.939 50.2989 873.266 58.8947L874.788 57.5973C867.001 48.4624 855.868 43.948 841.545 43.948V45.948ZM821.143 102.5C821.143 110.847 823.61 117.589 828.63 122.609L830.044 121.195C825.473 116.623 823.143 110.43 823.143 102.5H821.143ZM828.63 122.609C833.64 127.619 840.157 130.096 848.085 130.096V128.096C840.609 128.096 834.627 125.777 830.044 121.195L828.63 122.609ZM848.085 130.096C856.014 130.096 862.531 127.619 867.54 122.609L866.126 121.195C861.544 125.777 855.562 128.096 848.085 128.096V130.096ZM867.54 122.609C872.561 117.589 875.027 110.847 875.027 102.5H873.027C873.027 110.43 870.698 116.623 866.126 121.195L867.54 122.609ZM875.027 102.5C875.027 94.1529 872.561 87.4111 867.54 82.3909L866.126 83.8051C870.698 88.3769 873.027 94.5698 873.027 102.5H875.027ZM867.54 82.3909C862.531 77.3814 856.014 74.904 848.085 74.904V76.904C855.562 76.904 861.544 79.2226 866.126 83.8051L867.54 82.3909ZM848.085 74.904C840.157 74.904 833.64 77.3814 828.63 82.3909L830.044 83.8051C834.627 79.2226 840.609 76.904 848.085 76.904V74.904ZM828.63 82.3909C823.61 87.4111 821.143 94.1529 821.143 102.5H823.143C823.143 94.5698 825.473 88.3769 830.044 83.8051L828.63 82.3909Z" fill="#727272" fill-opacity="0.35"/>
</svg>
