<svg width="53" height="53" viewBox="0 0 53 53" fill="none" xmlns="http://www.w3.org/2000/svg">
<path d="M38.389 12.116C38.3838 11.9399 38.3147 11.7716 38.1946 11.6426C38.0744 11.5137 37.9114 11.4329 37.736 11.4154C37.6688 11.4084 37.6012 11.4253 37.5451 11.4631L35.1089 13.0458C35.0178 13.1028 34.9426 13.182 34.8905 13.2761C34.8384 13.3701 34.8111 13.4758 34.8111 13.5833C34.8111 13.6908 34.8384 13.7965 34.8905 13.8905C34.9426 13.9845 35.0178 14.0637 35.1089 14.1207L37.5451 15.7035C37.6012 15.7413 37.6688 15.7582 37.736 15.7512C37.9114 15.7337 38.0744 15.6529 38.1946 15.5239C38.3147 15.395 38.3838 15.2267 38.389 15.0505C38.3944 14.9776 38.3815 14.9045 38.3515 14.8378C38.3215 14.7711 38.2753 14.713 38.2172 14.6687L36.5294 13.5766L38.2172 12.4845C38.2733 12.4414 38.3181 12.3854 38.348 12.3213C38.3779 12.2571 38.392 12.1867 38.389 12.116Z" fill="white"/>
<path d="M43.2136 8.836C43.1302 8.83172 43.0474 8.8523 42.9757 8.89513C42.9039 8.93795 42.8465 9.0011 42.8107 9.07656L39.4448 15.9899C39.4144 16.049 39.398 16.1143 39.397 16.1808C39.403 16.3185 39.4623 16.4486 39.5624 16.5434C39.6626 16.6382 39.7957 16.6903 39.9335 16.6886C40.0203 16.6915 40.1062 16.6708 40.1822 16.6288C40.2582 16.5868 40.3213 16.525 40.365 16.45L43.7406 9.5367C43.7682 9.47697 43.7813 9.41154 43.7787 9.34578C43.768 9.2033 43.7022 9.0706 43.5952 8.97581C43.4883 8.88101 43.3487 8.83155 43.2059 8.83791L43.2136 8.836Z" fill="white"/>
<path d="M48.0534 13.0458L45.6191 11.463C45.563 11.4254 45.4955 11.4085 45.4283 11.4153C45.2532 11.4333 45.0906 11.5143 44.9709 11.6432C44.8511 11.7721 44.7823 11.9401 44.7772 12.116C44.7718 12.1889 44.7847 12.262 44.8147 12.3287C44.8447 12.3954 44.8909 12.4535 44.949 12.4978L46.6368 13.5899L44.949 14.682C44.8909 14.7263 44.8447 14.7844 44.8147 14.8511C44.7847 14.9178 44.7718 14.9909 44.7772 15.0638C44.7823 15.2397 44.8511 15.4077 44.9709 15.5366C45.0906 15.6655 45.2532 15.7465 45.4283 15.7645C45.4955 15.7713 45.563 15.7544 45.6191 15.7168L48.0534 14.134C48.1446 14.077 48.2197 13.9978 48.2718 13.9038C48.3239 13.8098 48.3512 13.7041 48.3512 13.5966C48.3512 13.4891 48.3239 13.3834 48.2718 13.2894C48.2197 13.1954 48.1446 13.1161 48.0534 13.0591V13.0458Z" fill="white"/>
<path d="M49.2486 3.86045H32.5315C32.0965 2.72486 31.3273 1.74793 30.3255 1.05868C29.3237 0.369428 28.1363 0.000283023 26.9203 0L15.7131 0C14.1225 0.00202176 12.5975 0.634945 11.4729 1.75991C10.3483 2.88487 9.71589 4.41 9.71437 6.00068V12.8128C9.38208 13.1045 9.13198 13.4781 8.98895 13.8964C8.84592 14.3148 8.81495 14.7634 8.89913 15.1974L9.34016 17.6221C9.3834 17.9203 9.48994 18.2057 9.65262 18.4593C9.81529 18.7128 10.0303 18.9286 10.2833 19.0922C10.6468 19.3064 11.0624 19.4161 11.4842 19.4091V19.8406C11.5861 21.123 11.9491 22.371 12.5509 23.508C13.1528 24.645 13.9807 25.6469 14.9838 26.4523C15.3959 26.8253 15.8294 27.174 16.2821 27.4966V28.7968C16.2822 28.989 16.2151 29.1751 16.0923 29.323C15.9696 29.4708 15.799 29.5711 15.61 29.6063L15.5566 29.6178C15.5432 29.6178 14.2106 29.9691 12.4675 30.4635H6.77417C6.45611 30.4635 6.14145 30.529 5.84984 30.656C5.55823 30.783 5.29594 30.9688 5.07933 31.2017C4.86272 31.4346 4.69646 31.7096 4.59092 32.0097C4.48538 32.3097 4.44283 32.6283 4.46592 32.9455L4.48119 33.1651C3.28132 33.7178 2.25045 34.5804 1.49473 35.664C0.739009 36.7476 0.285752 38.013 0.181627 39.33V39.3624L0.000250786 50.0541C-0.00481074 50.4394 0.0667897 50.822 0.210889 51.1794C0.354988 51.5369 0.568711 51.8621 0.839631 52.1362C1.11055 52.4104 1.43326 52.6279 1.789 52.7762C2.14474 52.9245 2.52641 53.0005 2.91181 53H39.7292C40.1146 53 40.4961 52.9235 40.8516 52.7749C41.2071 52.6263 41.5296 52.4086 41.8003 52.1343C42.071 51.8601 42.2845 51.5348 42.4285 51.1774C42.5724 50.8199 42.644 50.4375 42.6389 50.0522L42.4613 39.3605C42.4613 39.3491 42.4613 39.3395 42.4613 39.3281C42.352 37.9689 41.8727 36.6655 41.0754 35.5593C40.2781 34.453 39.1932 33.5861 37.9384 33.0524L37.7857 32.9818V32.9417C37.8088 32.6245 37.7662 32.3059 37.6607 32.0059C37.5551 31.7058 37.3889 31.4308 37.1722 31.1979C36.9556 30.9649 36.6933 30.7792 36.4017 30.6522C36.1101 30.5252 35.7955 30.4597 35.4774 30.4597H30.166C28.4247 29.9652 27.0902 29.6178 27.0768 29.6158L27.0234 29.6044C26.8345 29.5692 26.6638 29.4689 26.5411 29.3211C26.4183 29.1732 26.3512 28.9871 26.3513 28.7949V27.4947C26.804 27.1714 27.2375 26.822 27.6496 26.4484C28.957 25.3092 29.9857 23.8854 30.6566 22.2863H35.7027L34.8225 25.8432C34.7493 26.1285 34.7678 26.4296 34.8754 26.7038C34.983 26.978 35.1743 27.2113 35.422 27.3706C35.6671 27.5341 35.9575 27.6162 36.2519 27.6052C36.5463 27.5943 36.8298 27.4908 37.0621 27.3095L43.5992 22.2883H49.2448C50.2283 22.2872 51.1713 21.8961 51.8668 21.2006C52.5623 20.5051 52.9534 19.5622 52.9544 18.5786V7.57006C52.9534 6.58652 52.5623 5.64355 51.8668 4.94808C51.1713 4.25262 50.2283 3.86146 49.2448 3.86045H49.2486ZM31.1568 14.1531C31.4044 14.0707 31.6607 14.0175 31.9205 13.9946C32.044 14.1114 32.1358 14.2576 32.1872 14.4196C32.2387 14.5816 32.2481 14.754 32.2145 14.9206L31.7754 17.3338C31.7124 17.6698 31.5845 17.75 31.5406 17.7768C31.4229 17.8381 31.2913 17.8677 31.1587 17.8627L31.1568 14.1531ZM11.2647 6.00068C11.2657 4.82118 11.7347 3.69028 12.5687 2.85625C13.4027 2.02221 14.5336 1.55321 15.7131 1.5522H26.9203C28.0991 1.55371 29.2292 2.02268 30.0628 2.85624C30.8964 3.68981 31.3653 4.81993 31.3669 5.99877V12.5054C30.9007 12.5835 30.4498 12.7343 30.0304 12.9522V8.22111C30.0294 7.40545 29.7059 6.62329 29.1304 6.04529C28.5549 5.46728 27.7741 5.14034 26.9585 5.13581H24.8583C24.1291 5.1367 23.4225 5.38887 22.8575 5.84986L22.6513 6.01787C22.275 6.32823 21.8025 6.49798 21.3148 6.49798C20.8271 6.49798 20.3546 6.32823 19.9783 6.01787L19.7722 5.84986C19.2092 5.39052 18.5055 5.13845 17.7789 5.13581H15.6788C14.8621 5.13883 14.0799 5.46511 13.5032 6.04328C12.9264 6.62145 12.6021 7.40447 12.6011 8.22111V12.9522C12.1817 12.7342 11.7308 12.5835 11.2647 12.5054V6.00068ZM11.1005 17.7768C11.0585 17.75 10.9286 17.6698 10.8656 17.3396L10.4265 14.9206C10.3932 14.754 10.4027 14.5816 10.4541 14.4197C10.5055 14.2577 10.5972 14.1115 10.7205 13.9946C10.9804 14.0175 11.2367 14.0707 11.4842 14.1531V17.8627C11.3516 17.8677 11.22 17.8381 11.1024 17.7768H11.1005ZM4.22727 50.8846C4.22727 51.0749 4.25296 51.2644 4.30364 51.4478H2.91181C2.73251 51.4481 2.55494 51.4127 2.38937 51.3439C2.22381 51.2751 2.07356 51.1741 1.9473 51.0467C1.82105 50.9194 1.72131 50.7683 1.65386 50.6022C1.58641 50.436 1.55259 50.2582 1.55436 50.0789L1.73191 39.4121C1.80023 38.479 2.09723 37.577 2.59669 36.7859C3.09615 35.9947 3.7827 35.3387 4.59575 34.8758L5.55036 48.1754C5.56721 48.414 5.62132 48.6485 5.71073 48.8703C5.28167 49.0059 4.90694 49.2745 4.64089 49.6374C4.37483 50.0003 4.23129 50.4384 4.23109 50.8884L4.22727 50.8846ZM36.6955 48.1735L37.6501 34.66C38.559 35.0997 39.3368 35.7698 39.9062 36.6035C40.4757 37.4372 40.8168 38.4055 40.8958 39.4121L41.0733 50.0751C41.0756 50.2547 41.0422 50.433 40.9749 50.5995C40.9077 50.7661 40.8081 50.9177 40.6818 51.0454C40.5555 51.1731 40.405 51.2745 40.2392 51.3435C40.0734 51.4126 39.8955 51.4481 39.7159 51.4478H38.3202C38.4006 51.1563 38.4176 50.851 38.37 50.5525C38.3224 50.2539 38.2114 49.969 38.0444 49.717C37.8774 49.465 37.6583 49.2517 37.4019 49.0914C37.1455 48.9312 36.8578 48.8279 36.558 48.7883C36.6293 48.5903 36.673 48.3834 36.6879 48.1735H36.6955ZM36.852 50.8846C36.8496 51.0329 36.7897 51.1744 36.6851 51.2795C36.5804 51.3845 36.439 51.4449 36.2907 51.4478H6.3465C6.19738 51.4478 6.05437 51.3886 5.94892 51.2831C5.84348 51.1777 5.78424 51.0347 5.78424 50.8855C5.78424 50.7364 5.84348 50.5934 5.94892 50.488C6.05437 50.3825 6.19738 50.3233 6.3465 50.3233H36.2946C36.4412 50.3281 36.5803 50.3891 36.6833 50.4935C36.7864 50.5979 36.8454 50.7379 36.8482 50.8846H36.852ZM36.033 32.2658C36.1041 32.3424 36.1588 32.4327 36.1936 32.5312C36.2284 32.6298 36.2426 32.7344 36.2354 32.8386L35.1509 48.0627C35.1365 48.2552 35.0496 48.435 34.908 48.5661C34.7663 48.6972 34.5802 48.7697 34.3872 48.7692H7.86052C7.66721 48.7697 7.48091 48.6969 7.33918 48.5654C7.19745 48.4339 7.11084 48.2536 7.09683 48.0608L6.0143 32.8386C6.00723 32.7341 6.02174 32.6292 6.05694 32.5305C6.09214 32.4318 6.14727 32.3414 6.2189 32.265C6.29054 32.1885 6.37714 32.1276 6.47332 32.086C6.5695 32.0445 6.67321 32.0231 6.77799 32.0234H35.4755C35.5801 32.0235 35.6835 32.045 35.7794 32.0868C35.8753 32.1285 35.9616 32.1894 36.033 32.2658ZM25.4865 30.4712H17.1527C17.5896 30.0272 17.8344 29.4292 17.8343 28.8063V28.4474C18.903 29.0435 20.0961 29.3821 21.3186 29.4364C22.5411 29.382 23.7342 29.0434 24.8029 28.4474V28.7949C24.8029 29.4178 25.0477 30.0157 25.4845 30.4597L25.4865 30.4712ZM26.6129 25.3163C25.1872 26.7462 23.323 27.6565 21.3186 27.9014C19.315 27.6561 17.4515 26.7458 16.0263 25.3163C15.1849 24.6549 14.4862 23.8299 13.9724 22.8911C13.4585 21.9523 13.1401 20.9192 13.0364 19.854V14.953H13.067C13.3546 14.953 13.6304 14.8388 13.8338 14.6354C14.0371 14.432 14.1514 14.1562 14.1514 13.8686V8.22111C14.1514 7.81602 14.3123 7.42753 14.5988 7.14109C14.8852 6.85465 15.2737 6.69373 15.6788 6.69373H17.7789C18.1498 6.69395 18.5092 6.82207 18.7965 7.05648L19.0027 7.22449C19.6564 7.75861 20.4745 8.05037 21.3186 8.05037C22.1627 8.05037 22.9809 7.75861 23.6345 7.22449L23.8407 7.05648C24.1281 6.82221 24.4875 6.69411 24.8583 6.69373H26.9585C27.3635 6.69373 27.752 6.85465 28.0385 7.14109C28.3249 7.42753 28.4858 7.81602 28.4858 8.22111V13.8705C28.4858 14.0153 28.5148 14.1587 28.571 14.2922C28.6273 14.4257 28.7098 14.5465 28.8135 14.6476C28.9173 14.7487 29.0402 14.828 29.1751 14.8808C29.31 14.9335 29.4541 14.9588 29.5989 14.9549V19.8464C29.4953 20.9116 29.177 21.9447 28.6631 22.8835C28.1492 23.8223 27.4505 24.6473 26.6091 25.3086L26.6129 25.3163ZM51.4041 18.5958C51.4036 19.1678 51.1762 19.7163 50.7717 20.1208C50.3672 20.5253 49.8187 20.7527 49.2467 20.7532H43.3396C43.1684 20.7529 43.0019 20.8093 42.8661 20.9136L36.4263 25.8509L37.4535 21.7059C37.4802 21.5921 37.4809 21.4737 37.4554 21.3595C37.43 21.2454 37.3792 21.1384 37.3067 21.0467C37.2342 20.9549 37.1419 20.8807 37.0368 20.8296C36.9316 20.7784 36.8162 20.7517 36.6993 20.7513H31.0862C31.1315 20.4544 31.1545 20.1544 31.1549 19.854V19.4225C31.5781 19.4254 31.9937 19.3111 32.3558 19.0922C32.6101 18.9276 32.8261 18.7103 32.9891 18.4551C33.1522 18.1998 33.2585 17.9125 33.3009 17.6126L33.74 15.1936C33.8242 14.7595 33.7932 14.311 33.6502 13.8926C33.5072 13.4743 33.2571 13.1006 32.9248 12.809V6.00068C32.9248 5.80976 32.9152 5.60738 32.8961 5.41264H49.2467C49.8187 5.41315 50.3672 5.64061 50.7717 6.0451C51.1762 6.44958 51.4036 6.99804 51.4041 7.57006V18.5958Z" fill="white"/>
<path d="M21.3187 43.9292C21.896 43.9292 22.4604 43.758 22.9405 43.4372C23.4205 43.1165 23.7947 42.6606 24.0157 42.1272C24.2366 41.5937 24.2944 41.0068 24.1818 40.4405C24.0691 39.8742 23.7911 39.3541 23.3829 38.9458C22.9746 38.5376 22.4544 38.2596 21.8882 38.1469C21.3219 38.0343 20.735 38.0921 20.2015 38.313C19.6681 38.534 19.2122 38.9082 18.8914 39.3882C18.5707 39.8683 18.3995 40.4327 18.3995 41.01C18.4 41.7841 18.7077 42.5263 19.255 43.0737C19.8024 43.621 20.5446 43.9287 21.3187 43.9292ZM21.3187 39.645C21.5886 39.645 21.8526 39.725 22.0771 39.875C22.3016 40.025 22.4765 40.2382 22.5799 40.4876C22.6832 40.7371 22.7102 41.0116 22.6575 41.2764C22.6049 41.5412 22.4748 41.7844 22.2839 41.9753C22.093 42.1662 21.8498 42.2962 21.585 42.3489C21.3202 42.4016 21.0457 42.3746 20.7963 42.2712C20.5468 42.1679 20.3336 41.9929 20.1836 41.7684C20.0336 41.5439 19.9536 41.28 19.9536 41.01C19.9541 40.6482 20.0981 40.3013 20.354 40.0454C20.6099 39.7895 20.9568 39.6455 21.3187 39.645Z" fill="white"/>
</svg>
