<svg width="49" height="49" viewBox="0 0 49 49" fill="none" xmlns="http://www.w3.org/2000/svg">
<path d="M49 36.75V2.45C48.9992 1.80045 48.7409 1.17772 48.2816 0.718424C47.8223 0.259124 47.1995 0.000756483 46.55 0H2.45C1.80045 0.000756483 1.17772 0.259124 0.718424 0.718424C0.259124 1.17772 0.000756483 1.80045 0 2.45V36.75C0.000756483 37.3995 0.259124 38.0223 0.718424 38.4816C1.17772 38.9409 1.80045 39.1992 2.45 39.2H18.6359L17.2748 47.3667H13.8833C13.6667 47.3667 13.459 47.4527 13.3059 47.6059C13.1527 47.759 13.0667 47.9667 13.0667 48.1833C13.0667 48.3999 13.1527 48.6077 13.3059 48.7608C13.459 48.914 13.6667 49 13.8833 49H35.1167C35.3333 49 35.541 48.914 35.6941 48.7608C35.8473 48.6077 35.9333 48.3999 35.9333 48.1833C35.9333 47.9667 35.8473 47.759 35.6941 47.6059C35.541 47.4527 35.3333 47.3667 35.1167 47.3667H31.7252L30.3641 39.2H37.3683L44.4722 46.3039C44.9317 46.7633 45.5548 47.0215 46.2046 47.0215C46.8544 47.0215 47.4775 46.7633 47.937 46.3039C48.3958 45.844 48.6534 45.221 48.6534 44.5715C48.6534 43.9219 48.3958 43.2989 47.937 42.8391L44.2979 39.2H46.55C47.1995 39.1992 47.8223 38.9409 48.2816 38.4816C48.7409 38.0223 48.9992 37.3995 49 36.75ZM31.1906 30.7124L32.3455 29.5574L35.8102 33.0221L34.6553 34.1775L31.1906 30.7124ZM29.7855 29.8077L27.5547 29.25C27.1161 29.1417 26.7161 28.9136 26.3995 28.5912C26.0829 28.2688 25.8621 27.8647 25.7616 27.4242L24.7729 23.1395L29.0575 24.1283C29.4981 24.2287 29.9021 24.4496 30.2245 24.7662C30.5469 25.0828 30.775 25.4827 30.8834 25.9214L31.4411 28.1521L29.7855 29.8077ZM33.0828 27.985L32.4678 25.5248C32.2871 24.7937 31.9069 24.1271 31.3695 23.5995C30.8322 23.0718 30.1588 22.7038 29.4245 22.5364L23.8671 21.2543C23.7321 21.2231 23.5915 21.2268 23.4583 21.265C23.3252 21.3032 23.2039 21.3746 23.106 21.4725C23.008 21.5705 22.9366 21.6917 22.8984 21.8249C22.8602 21.958 22.8566 22.0987 22.8877 22.2336L24.1703 27.7914C24.3053 28.3778 24.5684 28.9271 24.9405 29.4H1.63333V8.16667H47.3667V29.4H34.4979L33.0828 27.985ZM2.45 1.63333H46.55C46.7665 1.63358 46.9741 1.7197 47.1272 1.8728C47.2803 2.0259 47.3664 2.23348 47.3667 2.45V6.53333H1.63333V2.45C1.63358 2.23348 1.7197 2.0259 1.8728 1.8728C2.0259 1.7197 2.23348 1.63358 2.45 1.63333ZM30.0693 47.3667H18.9307L20.2918 39.2H28.7082L30.0693 47.3667ZM2.45 37.5667C2.23348 37.5664 2.0259 37.4803 1.8728 37.3272C1.7197 37.1741 1.63358 36.9665 1.63333 36.75V31.0333H27.9533L29.6178 31.4494L35.735 37.5667H2.45ZM46.782 45.1489C46.7062 45.2247 46.6162 45.2849 46.5171 45.3259C46.418 45.367 46.3118 45.3881 46.2045 45.3881C46.0973 45.3881 45.9911 45.367 45.892 45.3259C45.7929 45.2849 45.7029 45.2247 45.6271 45.1489L35.8102 35.3321L36.9652 34.1775L46.782 43.9943C46.9348 44.1476 47.0206 44.3552 47.0206 44.5716C47.0206 44.788 46.9348 44.9956 46.782 45.1489ZM36.1313 31.0333H47.3667V36.75C47.3664 36.9665 47.2803 37.1741 47.1272 37.3272C46.9741 37.4803 46.7665 37.5664 46.55 37.5667H42.6646L36.1313 31.0333Z" fill="white"/>
<path d="M26.1333 32.6667H22.8667C22.6501 32.6667 22.4423 32.7528 22.2892 32.9059C22.136 33.0591 22.05 33.2668 22.05 33.4834C22.05 33.7 22.136 33.9077 22.2892 34.0609C22.4423 34.214 22.6501 34.3001 22.8667 34.3001H26.1333C26.3499 34.3001 26.5576 34.214 26.7108 34.0609C26.8639 33.9077 26.95 33.7 26.95 33.4834C26.95 33.2668 26.8639 33.0591 26.7108 32.9059C26.5576 32.7528 26.3499 32.6667 26.1333 32.6667Z" fill="white"/>
<path d="M4.08333 4.89993C4.53436 4.89993 4.9 4.5343 4.9 4.08327C4.9 3.63224 4.53436 3.2666 4.08333 3.2666C3.6323 3.2666 3.26666 3.63224 3.26666 4.08327C3.26666 4.5343 3.6323 4.89993 4.08333 4.89993Z" fill="white"/>
<path d="M7.34999 4.89993C7.80102 4.89993 8.16666 4.5343 8.16666 4.08327C8.16666 3.63224 7.80102 3.2666 7.34999 3.2666C6.89896 3.2666 6.53333 3.63224 6.53333 4.08327C6.53333 4.5343 6.89896 4.89993 7.34999 4.89993Z" fill="white"/>
<path d="M10.6167 4.89993C11.0677 4.89993 11.4333 4.5343 11.4333 4.08327C11.4333 3.63224 11.0677 3.2666 10.6167 3.2666C10.1656 3.2666 9.79999 3.63224 9.79999 4.08327C9.79999 4.5343 10.1656 4.89993 10.6167 4.89993Z" fill="white"/>
<path d="M8.98332 11.4334H10.6167C10.8333 11.4334 11.041 11.3473 11.1941 11.1942C11.3473 11.041 11.4333 10.8333 11.4333 10.6167C11.4333 10.4001 11.3473 10.1924 11.1941 10.0392C11.041 9.88609 10.8333 9.80005 10.6167 9.80005H8.98332C8.76673 9.80005 8.55901 9.88609 8.40585 10.0392C8.2527 10.1924 8.16666 10.4001 8.16666 10.6167C8.16666 10.8333 8.2527 11.041 8.40585 11.1942C8.55901 11.3473 8.76673 11.4334 8.98332 11.4334Z" fill="white"/>
<path d="M13.8833 11.4334H15.5167C15.7333 11.4334 15.941 11.3473 16.0942 11.1942C16.2473 11.041 16.3333 10.8333 16.3333 10.6167C16.3333 10.4001 16.2473 10.1924 16.0942 10.0392C15.941 9.88609 15.7333 9.80005 15.5167 9.80005H13.8833C13.6668 9.80005 13.459 9.88609 13.3059 10.0392C13.1527 10.1924 13.0667 10.4001 13.0667 10.6167C13.0667 10.8333 13.1527 11.041 13.3059 11.1942C13.459 11.3473 13.6668 11.4334 13.8833 11.4334Z" fill="white"/>
<path d="M5.71666 26.1333H4.9V25.3167C4.9 25.1001 4.81395 24.8924 4.6608 24.7392C4.50764 24.586 4.29992 24.5 4.08333 24.5C3.86674 24.5 3.65901 24.586 3.50586 24.7392C3.3527 24.8924 3.26666 25.1001 3.26666 25.3167V26.95C3.26666 27.1666 3.3527 27.3743 3.50586 27.5275C3.65901 27.6806 3.86674 27.7667 4.08333 27.7667H5.71666C5.93326 27.7667 6.14098 27.6806 6.29413 27.5275C6.44729 27.3743 6.53333 27.1666 6.53333 26.95C6.53333 26.7334 6.44729 26.5257 6.29413 26.3725C6.14098 26.2194 5.93326 26.1333 5.71666 26.1333Z" fill="white"/>
<path d="M10.6167 26.1333H8.98332C8.76673 26.1333 8.55901 26.2193 8.40585 26.3725C8.2527 26.5257 8.16666 26.7334 8.16666 26.95C8.16666 27.1666 8.2527 27.3743 8.40585 27.5274C8.55901 27.6806 8.76673 27.7666 8.98332 27.7666H10.6167C10.8333 27.7666 11.041 27.6806 11.1941 27.5274C11.3473 27.3743 11.4333 27.1666 11.4333 26.95C11.4333 26.7334 11.3473 26.5257 11.1941 26.3725C11.041 26.2193 10.8333 26.1333 10.6167 26.1333Z" fill="white"/>
<path d="M15.5167 26.1333H13.8833C13.6668 26.1333 13.459 26.2193 13.3059 26.3725C13.1527 26.5257 13.0667 26.7334 13.0667 26.95C13.0667 27.1666 13.1527 27.3743 13.3059 27.5274C13.459 27.6806 13.6668 27.7666 13.8833 27.7666H15.5167C15.7333 27.7666 15.941 27.6806 16.0942 27.5274C16.2473 27.3743 16.3333 27.1666 16.3333 26.95C16.3333 26.7334 16.2473 26.5257 16.0942 26.3725C15.941 26.2193 15.7333 26.1333 15.5167 26.1333Z" fill="white"/>
<path d="M20.4167 9.80005H18.7833C18.5667 9.80005 18.359 9.88609 18.2059 10.0392C18.0527 10.1924 17.9667 10.4001 17.9667 10.6167C17.9667 10.8333 18.0527 11.041 18.2059 11.1942C18.359 11.3473 18.5667 11.4334 18.7833 11.4334H19.6V12.25C19.6 12.4666 19.686 12.6744 19.8392 12.8275C19.9924 12.9807 20.2001 13.0667 20.4167 13.0667C20.6333 13.0667 20.841 12.9807 20.9941 12.8275C21.1473 12.6744 21.2333 12.4666 21.2333 12.25V10.6167C21.2333 10.4001 21.1473 10.1924 20.9941 10.0392C20.841 9.88609 20.6333 9.80005 20.4167 9.80005Z" fill="white"/>
<path d="M20.4167 14.7C20.2001 14.7 19.9924 14.786 19.8392 14.9391C19.686 15.0923 19.6 15.3 19.6 15.5166V17.15C19.6 17.3665 19.686 17.5743 19.8392 17.7274C19.9924 17.8806 20.2001 17.9666 20.4167 17.9666C20.6333 17.9666 20.841 17.8806 20.9941 17.7274C21.1473 17.5743 21.2333 17.3665 21.2333 17.15V15.5166C21.2333 15.3 21.1473 15.0923 20.9941 14.9391C20.841 14.786 20.6333 14.7 20.4167 14.7Z" fill="white"/>
<path d="M20.4167 19.6001C20.2001 19.6001 19.9924 19.6861 19.8392 19.8393C19.686 19.9924 19.6 20.2002 19.6 20.4168V22.0501C19.6 22.2667 19.686 22.4744 19.8392 22.6276C19.9924 22.7807 20.2001 22.8668 20.4167 22.8668C20.6333 22.8668 20.841 22.7807 20.9941 22.6276C21.1473 22.4744 21.2333 22.2667 21.2333 22.0501V20.4168C21.2333 20.2002 21.1473 19.9924 20.9941 19.8393C20.841 19.6861 20.6333 19.6001 20.4167 19.6001Z" fill="white"/>
<path d="M20.4167 24.5C20.2001 24.5 19.9924 24.586 19.8392 24.7392C19.686 24.8924 19.6 25.1001 19.6 25.3167V26.1333H18.7833C18.5667 26.1333 18.359 26.2194 18.2059 26.3725C18.0527 26.5257 17.9667 26.7334 17.9667 26.95C17.9667 27.1666 18.0527 27.3743 18.2059 27.5275C18.359 27.6806 18.5667 27.7667 18.7833 27.7667H20.4167C20.6333 27.7667 20.841 27.6806 20.9941 27.5275C21.1473 27.3743 21.2333 27.1666 21.2333 26.95V25.3167C21.2333 25.1001 21.1473 24.8924 20.9941 24.7392C20.841 24.586 20.6333 24.5 20.4167 24.5Z" fill="white"/>
<path d="M4.08333 13.0667C4.29992 13.0667 4.50764 12.9807 4.6608 12.8275C4.81395 12.6744 4.9 12.4666 4.9 12.25V11.4334H5.71666C5.93326 11.4334 6.14098 11.3473 6.29413 11.1942C6.44729 11.041 6.53333 10.8333 6.53333 10.6167C6.53333 10.4001 6.44729 10.1924 6.29413 10.0392C6.14098 9.88609 5.93326 9.80005 5.71666 9.80005H4.08333C3.86674 9.80005 3.65901 9.88609 3.50586 10.0392C3.3527 10.1924 3.26666 10.4001 3.26666 10.6167V12.25C3.26666 12.4666 3.3527 12.6744 3.50586 12.8275C3.65901 12.9807 3.86674 13.0667 4.08333 13.0667Z" fill="white"/>
<path d="M4.08333 17.9666C4.29992 17.9666 4.50764 17.8806 4.6608 17.7274C4.81395 17.5743 4.9 17.3665 4.9 17.15V15.5166C4.9 15.3 4.81395 15.0923 4.6608 14.9391C4.50764 14.786 4.29992 14.7 4.08333 14.7C3.86674 14.7 3.65901 14.786 3.50586 14.9391C3.3527 15.0923 3.26666 15.3 3.26666 15.5166V17.15C3.26666 17.3665 3.3527 17.5743 3.50586 17.7274C3.65901 17.8806 3.86674 17.9666 4.08333 17.9666Z" fill="white"/>
<path d="M4.08333 22.8668C4.29992 22.8668 4.50764 22.7807 4.6608 22.6276C4.81395 22.4744 4.9 22.2667 4.9 22.0501V20.4168C4.9 20.2002 4.81395 19.9924 4.6608 19.8393C4.50764 19.6861 4.29992 19.6001 4.08333 19.6001C3.86674 19.6001 3.65901 19.6861 3.50586 19.8393C3.3527 19.9924 3.26666 20.2002 3.26666 20.4168V22.0501C3.26666 22.2667 3.3527 22.4744 3.50586 22.6276C3.65901 22.7807 3.86674 22.8668 4.08333 22.8668Z" fill="white"/>
<path d="M28.5833 17.9666H23.6833C23.4667 17.9666 23.259 18.0526 23.1059 18.2057C22.9527 18.3589 22.8667 18.5666 22.8667 18.7832C22.8667 18.9998 22.9527 19.2075 23.1059 19.3607C23.259 19.5138 23.4667 19.5999 23.6833 19.5999H28.5833C28.7999 19.5999 29.0077 19.5138 29.1608 19.3607C29.314 19.2075 29.4 18.9998 29.4 18.7832C29.4 18.5666 29.314 18.3589 29.1608 18.2057C29.0077 18.0526 28.7999 17.9666 28.5833 17.9666Z" fill="white"/>
<path d="M44.9167 17.9666H31.85C31.6334 17.9666 31.4257 18.0526 31.2725 18.2057C31.1194 18.3589 31.0333 18.5666 31.0333 18.7832C31.0333 18.9998 31.1194 19.2075 31.2725 19.3607C31.4257 19.5138 31.6334 19.5999 31.85 19.5999H44.9167C45.1333 19.5999 45.341 19.5138 45.4941 19.3607C45.6473 19.2075 45.7333 18.9998 45.7333 18.7832C45.7333 18.5666 45.6473 18.3589 45.4941 18.2057C45.341 18.0526 45.1333 17.9666 44.9167 17.9666Z" fill="white"/>
<path d="M44.9167 21.2334H33.4833C33.2667 21.2334 33.059 21.3194 32.9059 21.4726C32.7527 21.6257 32.6667 21.8335 32.6667 22.0501C32.6667 22.2667 32.7527 22.4744 32.9059 22.6275C33.059 22.7807 33.2667 22.8667 33.4833 22.8667H44.9167C45.1333 22.8667 45.341 22.7807 45.4941 22.6275C45.6473 22.4744 45.7333 22.2667 45.7333 22.0501C45.7333 21.8335 45.6473 21.6257 45.4941 21.4726C45.341 21.3194 45.1333 21.2334 44.9167 21.2334Z" fill="white"/>
<path d="M44.9167 9.80005H23.6833C23.4667 9.80005 23.259 9.88609 23.1059 10.0392C22.9527 10.1924 22.8667 10.4001 22.8667 10.6167V15.5167C22.8667 15.7333 22.9527 15.941 23.1059 16.0942C23.259 16.2473 23.4667 16.3334 23.6833 16.3334H44.9167C45.1333 16.3334 45.341 16.2473 45.4941 16.0942C45.6473 15.941 45.7333 15.7333 45.7333 15.5167V10.6167C45.7333 10.4001 45.6473 10.1924 45.4941 10.0392C45.341 9.88609 45.1333 9.80005 44.9167 9.80005ZM44.1 14.7H24.5V11.4334H44.1V14.7Z" fill="white"/>
<path d="M17.9667 13.8833C17.9667 13.6667 17.8806 13.459 17.7275 13.3058C17.5743 13.1527 17.3666 13.0667 17.15 13.0667H7.34999C7.1334 13.0667 6.92568 13.1527 6.77252 13.3058C6.61937 13.459 6.53333 13.6667 6.53333 13.8833V23.6833C6.53333 23.8999 6.61937 24.1076 6.77252 24.2608C6.92568 24.4139 7.1334 24.5 7.34999 24.5H17.15C17.3666 24.5 17.5743 24.4139 17.7275 24.2608C17.8806 24.1076 17.9667 23.8999 17.9667 23.6833V13.8833ZM16.3333 22.8667H8.16666V14.7H16.3333V22.8667Z" fill="white"/>
</svg>
