<svg width="224" height="52" viewBox="0 0 224 52" fill="none" xmlns="http://www.w3.org/2000/svg">
<path d="M58.006 30.2557V24.0057C59.1389 24.9562 60.3693 25.6723 61.6974 26.1541C63.0256 26.6229 64.3667 26.8572 65.7209 26.8572C66.5152 26.8572 67.2053 26.7856 67.7912 26.6424C68.3902 26.4992 68.8849 26.3039 69.2756 26.0565C69.6792 25.796 69.9787 25.4966 70.174 25.158C70.3693 24.8065 70.467 24.4289 70.467 24.0252C70.467 23.4783 70.3107 22.9901 69.9982 22.5604C69.6857 22.1307 69.256 21.7335 68.7092 21.369C68.1753 21.0044 67.5373 20.6528 66.7951 20.3143C66.0529 19.9757 65.2521 19.6307 64.3928 19.2791C62.2053 18.3677 60.5711 17.2544 59.4904 15.9393C58.4227 14.6242 57.8889 13.0356 57.8889 11.1736C57.8889 9.71531 58.1818 8.46531 58.7678 7.42365C59.3537 6.36896 60.148 5.50307 61.1506 4.82599C62.1662 4.14891 63.3381 3.65411 64.6662 3.34161C65.9943 3.01609 67.4006 2.85333 68.8849 2.85333C70.3433 2.85333 71.6323 2.94448 72.7521 3.12677C73.8849 3.29604 74.9266 3.56297 75.8771 3.92755V9.7674C75.4084 9.44187 74.8941 9.15542 74.3342 8.90802C73.7873 8.66062 73.2209 8.4588 72.6349 8.30255C72.049 8.13328 71.4631 8.00958 70.8771 7.93146C70.3042 7.85333 69.7573 7.81427 69.2365 7.81427C68.5204 7.81427 67.8693 7.88588 67.2834 8.02911C66.6974 8.15932 66.2027 8.34812 65.799 8.59552C65.3954 8.84292 65.0829 9.1424 64.8615 9.49396C64.6402 9.8325 64.5295 10.2166 64.5295 10.6463C64.5295 11.1151 64.6532 11.5382 64.9006 11.9158C65.148 12.2804 65.4995 12.632 65.9553 12.9705C66.411 13.296 66.9644 13.6216 67.6154 13.9471C68.2665 14.2596 69.0021 14.5851 69.8224 14.9236C70.9422 15.3924 71.9448 15.8937 72.8303 16.4276C73.7287 16.9484 74.4969 17.5408 75.1349 18.2049C75.773 18.869 76.2613 19.6307 76.5998 20.4901C76.9383 21.3364 77.1076 22.326 77.1076 23.4588C77.1076 25.0213 76.8081 26.3364 76.2092 27.4041C75.6232 28.4588 74.8224 29.3182 73.8068 29.9822C72.7912 30.6333 71.6063 31.102 70.2521 31.3885C68.911 31.6749 67.4917 31.8182 65.9943 31.8182C64.4579 31.8182 62.993 31.688 61.5998 31.4276C60.2196 31.1671 59.0217 30.7765 58.006 30.2557ZM90.6428 31.8182C87.3094 31.8182 84.6857 30.8872 82.7717 29.0252C80.8706 27.1502 79.9201 24.6111 79.9201 21.408C79.9201 18.1007 80.9097 15.5161 82.8889 13.6541C84.868 11.7791 87.5438 10.8416 90.9162 10.8416C94.2365 10.8416 96.8407 11.7791 98.7287 13.6541C100.617 15.5161 101.561 17.9835 101.561 21.0565C101.561 24.3768 100.584 27.0005 98.631 28.9276C96.6909 30.8546 94.0282 31.8182 90.6428 31.8182ZM90.799 15.5682C89.3407 15.5682 88.2079 16.0695 87.4006 17.0721C86.5933 18.0747 86.1896 19.494 86.1896 21.3299C86.1896 25.171 87.7391 27.0916 90.8381 27.0916C93.7938 27.0916 95.2717 25.119 95.2717 21.1736C95.2717 17.4367 93.7808 15.5682 90.799 15.5682ZM117.987 6.44708C117.192 6.13458 116.431 5.97833 115.701 5.97833C113.722 5.97833 112.733 7.05255 112.733 9.20099V11.3299H117.303V15.8807H112.733V31.3299H106.58V15.8807H103.221V11.3299H106.58V8.84943C106.58 6.57078 107.322 4.73484 108.807 3.34161C110.291 1.94838 112.309 1.25177 114.862 1.25177C116.112 1.25177 117.153 1.38198 117.987 1.6424V6.44708ZM133.162 31.0955C132.251 31.5773 130.877 31.8182 129.041 31.8182C124.692 31.8182 122.518 29.5591 122.518 25.0408V15.8807H119.276V11.3299H122.518V7.01349L128.67 5.25568V11.3299H133.162V15.8807H128.67V23.9666C128.67 26.0499 129.497 27.0916 131.151 27.0916C131.802 27.0916 132.472 26.9028 133.162 26.5252V31.0955Z" fill="#29B85D"/>
<path d="M137.264 31.3299V3.32208H147.186C157.134 3.32208 162.108 7.87286 162.108 16.9744C162.108 21.3364 160.747 24.8195 158.026 27.4236C155.317 30.0278 151.704 31.3299 147.186 31.3299H137.264ZM143.572 8.4588V26.2127H146.697C149.432 26.2127 151.574 25.3924 153.123 23.7518C154.686 22.1111 155.467 19.8781 155.467 17.0526C155.467 14.3833 154.692 12.2869 153.143 10.7635C151.606 9.22703 149.445 8.4588 146.658 8.4588H143.572ZM182.791 31.3299H176.951V28.4588H176.873C175.532 30.6984 173.546 31.8182 170.916 31.8182C168.976 31.8182 167.446 31.2713 166.326 30.1776C165.22 29.0708 164.666 27.5994 164.666 25.7635C164.666 21.8833 166.964 19.6437 171.561 19.0447L176.99 18.3221C176.99 16.1346 175.806 15.0408 173.436 15.0408C171.053 15.0408 168.787 15.7505 166.639 17.1697V12.5213C167.498 12.0786 168.67 11.688 170.154 11.3494C171.652 11.0109 173.013 10.8416 174.237 10.8416C179.94 10.8416 182.791 13.6867 182.791 19.3768V31.3299ZM176.99 23.2049V21.8572L173.358 22.326C171.352 22.5864 170.35 23.4914 170.35 25.0408C170.35 25.744 170.591 26.3234 171.072 26.7791C171.567 27.2218 172.231 27.4432 173.065 27.4432C174.223 27.4432 175.168 27.046 175.897 26.2518C176.626 25.4445 176.99 24.4289 176.99 23.2049ZM199.764 31.0955C198.852 31.5773 197.479 31.8182 195.643 31.8182C191.294 31.8182 189.119 29.5591 189.119 25.0408V15.8807H185.877V11.3299H189.119V7.01349L195.272 5.25568V11.3299H199.764V15.8807H195.272V23.9666C195.272 26.0499 196.098 27.0916 197.752 27.0916C198.403 27.0916 199.074 26.9028 199.764 26.5252V31.0955ZM219.901 31.3299H214.061V28.4588H213.983C212.641 30.6984 210.656 31.8182 208.026 31.8182C206.085 31.8182 204.556 31.2713 203.436 30.1776C202.329 29.0708 201.776 27.5994 201.776 25.7635C201.776 21.8833 204.074 19.6437 208.67 19.0447L214.1 18.3221C214.1 16.1346 212.915 15.0408 210.545 15.0408C208.162 15.0408 205.897 15.7505 203.748 17.1697V12.5213C204.608 12.0786 205.779 11.688 207.264 11.3494C208.761 11.0109 210.122 10.8416 211.346 10.8416C217.049 10.8416 219.901 13.6867 219.901 19.3768V31.3299ZM214.1 23.2049V21.8572L210.467 22.326C208.462 22.5864 207.459 23.4914 207.459 25.0408C207.459 25.744 207.7 26.3234 208.182 26.7791C208.677 27.2218 209.341 27.4432 210.174 27.4432C211.333 27.4432 212.277 27.046 213.006 26.2518C213.735 25.4445 214.1 24.4289 214.1 23.2049Z" fill="white"/>
<path d="M56.801 46.9901V45.8299C56.9338 45.9471 57.092 46.0526 57.2756 46.1463C57.4631 46.2401 57.6584 46.3201 57.8615 46.3865C58.0685 46.449 58.2756 46.4979 58.4826 46.533C58.6896 46.5682 58.881 46.5858 59.0568 46.5858C59.6623 46.5858 60.1135 46.4744 60.4103 46.2518C60.7111 46.0252 60.8615 45.701 60.8615 45.2791C60.8615 45.0526 60.8107 44.8553 60.7092 44.6873C60.6115 44.5193 60.4748 44.367 60.299 44.2303C60.1232 44.0897 59.9142 43.9568 59.6721 43.8318C59.4338 43.7029 59.176 43.5682 58.8986 43.4276C58.6057 43.2791 58.3322 43.1287 58.0783 42.9764C57.8244 42.824 57.6037 42.6561 57.4162 42.4725C57.2287 42.2889 57.0803 42.0818 56.9709 41.8514C56.8654 41.617 56.8127 41.3436 56.8127 41.0311C56.8127 40.6483 56.8967 40.3162 57.0646 40.035C57.2326 39.7498 57.4533 39.5154 57.7267 39.3318C58.0002 39.1483 58.3107 39.0115 58.6584 38.9217C59.0099 38.8318 59.3674 38.7869 59.7307 38.7869C60.5588 38.7869 61.1623 38.8865 61.5412 39.0858V40.1932C61.0451 39.8494 60.4084 39.6776 59.631 39.6776C59.4162 39.6776 59.2014 39.701 58.9865 39.7479C58.7717 39.7908 58.5803 39.8631 58.4123 39.9647C58.2443 40.0662 58.1076 40.1971 58.0021 40.3572C57.8967 40.5174 57.8439 40.7127 57.8439 40.9432C57.8439 41.158 57.883 41.3436 57.9611 41.4998C58.0432 41.6561 58.1623 41.7986 58.3185 41.9276C58.4748 42.0565 58.6642 42.1815 58.8869 42.3026C59.1135 42.4236 59.3732 42.5565 59.6662 42.701C59.967 42.8494 60.2521 43.0057 60.5217 43.1697C60.7912 43.3338 61.0275 43.5154 61.2307 43.7147C61.4338 43.9139 61.5939 44.1346 61.7111 44.3768C61.8322 44.619 61.8928 44.8963 61.8928 45.2088C61.8928 45.6229 61.8107 45.9744 61.6467 46.2635C61.4865 46.5486 61.2678 46.7811 60.9904 46.9608C60.717 47.1404 60.4006 47.2693 60.0412 47.3475C59.6818 47.4295 59.3029 47.4705 58.9045 47.4705C58.7717 47.4705 58.6076 47.4588 58.4123 47.4354C58.217 47.4158 58.0178 47.3846 57.8146 47.3416C57.6115 47.3026 57.4182 47.2537 57.2346 47.1951C57.0549 47.1326 56.9103 47.0643 56.801 46.9901ZM65.9474 47.4705C65.0607 47.4705 64.3517 47.1912 63.8205 46.6326C63.2932 46.0701 63.0295 45.326 63.0295 44.4002C63.0295 43.3924 63.3049 42.6053 63.8557 42.0389C64.4064 41.4725 65.1506 41.1893 66.0881 41.1893C66.9826 41.1893 67.6799 41.4647 68.1799 42.0154C68.6838 42.5662 68.9357 43.3299 68.9357 44.3065C68.9357 45.2635 68.6642 46.0311 68.1213 46.6092C67.5822 47.1834 66.8576 47.4705 65.9474 47.4705ZM66.0178 41.9979C65.4006 41.9979 64.9123 42.2088 64.5529 42.6307C64.1935 43.0486 64.0139 43.6268 64.0139 44.3651C64.0139 45.076 64.1955 45.6365 64.5588 46.0467C64.9221 46.4568 65.4084 46.6619 66.0178 46.6619C66.6389 46.6619 67.1154 46.4608 67.4474 46.0584C67.7834 45.6561 67.9514 45.0838 67.9514 44.3416C67.9514 43.5916 67.7834 43.0135 67.4474 42.6072C67.1154 42.201 66.6389 41.9979 66.0178 41.9979ZM73.4357 39.2908C73.2482 39.1854 73.0353 39.1326 72.7971 39.1326C72.1252 39.1326 71.7892 39.5565 71.7892 40.4041V41.3299H73.1955V42.1502H71.7892V47.3299H70.8342V42.1502H69.8088V41.3299H70.8342V40.3572C70.8342 39.7283 71.0158 39.2322 71.3791 38.869C71.7424 38.5018 72.1955 38.3182 72.7385 38.3182C73.0314 38.3182 73.2639 38.3533 73.4357 38.4236V39.2908ZM77.0158 47.2713C76.7892 47.3963 76.4904 47.4588 76.1193 47.4588C75.0685 47.4588 74.5432 46.8729 74.5432 45.701V42.1502H73.5119V41.3299H74.5432V39.8651L75.5041 39.5545V41.3299H77.0158V42.1502H75.5041V45.5311C75.5041 45.9334 75.5724 46.2205 75.7092 46.3924C75.8459 46.5643 76.0724 46.6502 76.3889 46.6502C76.631 46.6502 76.84 46.5838 77.0158 46.451V47.2713ZM85.8576 41.3299L84.0588 47.3299H83.0627L81.8264 43.035C81.7795 42.8709 81.7482 42.6854 81.7326 42.4783H81.7092C81.6974 42.619 81.6564 42.8006 81.5861 43.0233L80.2443 47.3299H79.2834L77.467 41.3299H78.4748L79.717 45.8416C79.756 45.9783 79.7834 46.158 79.799 46.3807H79.8459C79.8576 46.2088 79.8928 46.0252 79.9514 45.8299L81.3342 41.3299H82.2131L83.4553 45.8533C83.4943 45.9979 83.5236 46.1776 83.5432 46.3924H83.59C83.5978 46.2401 83.631 46.0604 83.6896 45.8533L84.9084 41.3299H85.8576ZM91.2658 47.3299H90.3049V46.3924H90.2814C89.8635 47.1111 89.2482 47.4705 88.4357 47.4705C87.8381 47.4705 87.3693 47.3123 87.0295 46.9959C86.6935 46.6795 86.5256 46.2596 86.5256 45.7361C86.5256 44.6151 87.1857 43.9627 88.506 43.7791L90.3049 43.5272C90.3049 42.5076 89.8928 41.9979 89.0685 41.9979C88.3459 41.9979 87.6935 42.244 87.1115 42.7361V41.7518C87.7014 41.3768 88.381 41.1893 89.1506 41.1893C90.5607 41.1893 91.2658 41.9354 91.2658 43.4276V47.3299ZM90.3049 44.2947L88.8576 44.494C88.4123 44.5565 88.0764 44.6678 87.8498 44.8279C87.6232 44.9842 87.5099 45.2635 87.5099 45.6658C87.5099 45.9588 87.6135 46.199 87.8205 46.3865C88.0314 46.5701 88.3107 46.6619 88.6584 46.6619C89.1349 46.6619 89.5275 46.4959 89.8361 46.1639C90.1486 45.8279 90.3049 45.4041 90.3049 44.8924V44.2947ZM96.2053 42.3026C96.0373 42.1736 95.7951 42.1092 95.4787 42.1092C95.0685 42.1092 94.7248 42.3026 94.4474 42.6893C94.174 43.076 94.0373 43.6033 94.0373 44.2713V47.3299H93.0764V41.3299H94.0373V42.5662H94.0607C94.1974 42.1443 94.4064 41.8162 94.6877 41.5818C94.9689 41.3436 95.2834 41.2244 95.631 41.2244C95.881 41.2244 96.0724 41.2518 96.2053 41.3065V42.3026ZM102.07 44.5701H97.8342C97.8498 45.2381 98.0295 45.7537 98.3732 46.117C98.717 46.4803 99.1896 46.6619 99.7912 46.6619C100.467 46.6619 101.088 46.4393 101.654 45.994V46.8963C101.127 47.2791 100.43 47.4705 99.5627 47.4705C98.715 47.4705 98.049 47.199 97.5646 46.6561C97.0803 46.1092 96.8381 45.3416 96.8381 44.3533C96.8381 43.4197 97.1017 42.66 97.6291 42.074C98.1603 41.4842 98.8185 41.1893 99.6037 41.1893C100.389 41.1893 100.996 41.4432 101.426 41.951C101.856 42.4588 102.07 43.1639 102.07 44.0662V44.5701ZM101.086 43.7557C101.082 43.201 100.947 42.7693 100.682 42.4608C100.42 42.1522 100.055 41.9979 99.5861 41.9979C99.133 41.9979 98.7482 42.16 98.4318 42.4842C98.1154 42.8084 97.9201 43.2322 97.8459 43.7557H101.086ZM106.951 47.3299V38.9276H109.272C112.233 38.9276 113.713 40.2928 113.713 43.0233C113.713 44.3201 113.301 45.3631 112.477 46.1522C111.656 46.9373 110.557 47.3299 109.178 47.3299H106.951ZM107.936 39.8182V46.4393H109.19C110.291 46.4393 111.149 46.1443 111.762 45.5545C112.375 44.9647 112.682 44.1287 112.682 43.0467C112.682 40.8943 111.537 39.8182 109.248 39.8182H107.936ZM120.059 44.5701H115.822C115.838 45.2381 116.018 45.7537 116.362 46.117C116.705 46.4803 117.178 46.6619 117.779 46.6619C118.455 46.6619 119.076 46.4393 119.643 45.994V46.8963C119.115 47.2791 118.418 47.4705 117.551 47.4705C116.703 47.4705 116.037 47.199 115.553 46.6561C115.069 46.1092 114.826 45.3416 114.826 44.3533C114.826 43.4197 115.09 42.66 115.617 42.074C116.149 41.4842 116.807 41.1893 117.592 41.1893C118.377 41.1893 118.985 41.4432 119.414 41.951C119.844 42.4588 120.059 43.1639 120.059 44.0662V44.5701ZM119.074 43.7557C119.07 43.201 118.936 42.7693 118.67 42.4608C118.408 42.1522 118.043 41.9979 117.574 41.9979C117.121 41.9979 116.737 42.16 116.42 42.4842C116.104 42.8084 115.908 43.2322 115.834 43.7557H119.074ZM126.235 41.3299L123.844 47.3299H122.901L120.627 41.3299H121.682L123.205 45.6893C123.319 46.0096 123.389 46.2889 123.416 46.5272H123.44C123.479 46.2264 123.541 45.9549 123.627 45.7127L125.221 41.3299H126.235ZM132.094 44.5701H127.858C127.873 45.2381 128.053 45.7537 128.397 46.117C128.74 46.4803 129.213 46.6619 129.815 46.6619C130.49 46.6619 131.112 46.4393 131.678 45.994V46.8963C131.151 47.2791 130.453 47.4705 129.586 47.4705C128.738 47.4705 128.072 47.199 127.588 46.6561C127.104 46.1092 126.862 45.3416 126.862 44.3533C126.862 43.4197 127.125 42.66 127.653 42.074C128.184 41.4842 128.842 41.1893 129.627 41.1893C130.412 41.1893 131.02 41.4432 131.449 41.951C131.879 42.4588 132.094 43.1639 132.094 44.0662V44.5701ZM131.11 43.7557C131.106 43.201 130.971 42.7693 130.705 42.4608C130.444 42.1522 130.078 41.9979 129.61 41.9979C129.156 41.9979 128.772 42.16 128.455 42.4842C128.139 42.8084 127.944 43.2322 127.869 43.7557H131.11ZM134.514 47.3299H133.553V38.4471H134.514V47.3299ZM138.967 47.4705C138.08 47.4705 137.371 47.1912 136.84 46.6326C136.313 46.0701 136.049 45.326 136.049 44.4002C136.049 43.3924 136.324 42.6053 136.875 42.0389C137.426 41.4725 138.17 41.1893 139.108 41.1893C140.002 41.1893 140.699 41.4647 141.199 42.0154C141.703 42.5662 141.955 43.3299 141.955 44.3065C141.955 45.2635 141.684 46.0311 141.141 46.6092C140.602 47.1834 139.877 47.4705 138.967 47.4705ZM139.037 41.9979C138.42 41.9979 137.932 42.2088 137.572 42.6307C137.213 43.0486 137.033 43.6268 137.033 44.3651C137.033 45.076 137.215 45.6365 137.578 46.0467C137.942 46.4568 138.428 46.6619 139.037 46.6619C139.658 46.6619 140.135 46.4608 140.467 46.0584C140.803 45.6561 140.971 45.0838 140.971 44.3416C140.971 43.5916 140.803 43.0135 140.467 42.6072C140.135 42.201 139.658 41.9979 139.037 41.9979ZM144.475 46.4627H144.451V50.0897H143.49V41.3299H144.451V42.3846H144.475C144.947 41.5877 145.639 41.1893 146.549 41.1893C147.322 41.1893 147.926 41.4588 148.36 41.9979C148.793 42.533 149.01 43.2518 149.01 44.1541C149.01 45.158 148.766 45.9627 148.278 46.5682C147.789 47.1697 147.121 47.4705 146.274 47.4705C145.496 47.4705 144.897 47.1346 144.475 46.4627ZM144.451 44.0428V44.8807C144.451 45.3768 144.612 45.7986 144.932 46.1463C145.256 46.4901 145.666 46.6619 146.162 46.6619C146.744 46.6619 147.199 46.4393 147.528 45.994C147.86 45.5486 148.026 44.9295 148.026 44.1365C148.026 43.4686 147.871 42.9451 147.563 42.5662C147.254 42.1873 146.836 41.9979 146.309 41.9979C145.75 41.9979 145.301 42.1932 144.961 42.5838C144.621 42.9705 144.451 43.4568 144.451 44.0428ZM159.065 47.3299H158.104V43.8846C158.104 43.2205 158 42.7401 157.793 42.4432C157.59 42.1463 157.246 41.9979 156.762 41.9979C156.352 41.9979 156.002 42.1854 155.713 42.5604C155.428 42.9354 155.285 43.3846 155.285 43.908V47.3299H154.324V43.7674C154.324 42.5877 153.869 41.9979 152.959 41.9979C152.537 41.9979 152.19 42.1756 151.916 42.5311C151.643 42.8826 151.506 43.3416 151.506 43.908V47.3299H150.545V41.3299H151.506V42.2791H151.529C151.955 41.5526 152.576 41.1893 153.393 41.1893C153.803 41.1893 154.16 41.3045 154.465 41.535C154.77 41.7615 154.979 42.0604 155.092 42.4315C155.537 41.6033 156.201 41.1893 157.084 41.1893C158.404 41.1893 159.065 42.0037 159.065 43.6326V47.3299ZM165.703 44.5701H161.467C161.483 45.2381 161.662 45.7537 162.006 46.117C162.35 46.4803 162.822 46.6619 163.424 46.6619C164.1 46.6619 164.721 46.4393 165.287 45.994V46.8963C164.76 47.2791 164.063 47.4705 163.195 47.4705C162.348 47.4705 161.682 47.199 161.197 46.6561C160.713 46.1092 160.471 45.3416 160.471 44.3533C160.471 43.4197 160.735 42.66 161.262 42.074C161.793 41.4842 162.451 41.1893 163.237 41.1893C164.022 41.1893 164.629 41.4432 165.059 41.951C165.488 42.4588 165.703 43.1639 165.703 44.0662V44.5701ZM164.719 43.7557C164.715 43.201 164.58 42.7693 164.315 42.4608C164.053 42.1522 163.688 41.9979 163.219 41.9979C162.766 41.9979 162.381 42.16 162.065 42.4842C161.748 42.8084 161.553 43.2322 161.479 43.7557H164.719ZM172.143 47.3299H171.182V43.908C171.182 42.6346 170.717 41.9979 169.787 41.9979C169.307 41.9979 168.908 42.1795 168.592 42.5428C168.279 42.9022 168.123 43.3572 168.123 43.908V47.3299H167.162V41.3299H168.123V42.326H168.147C168.6 41.5682 169.256 41.1893 170.115 41.1893C170.772 41.1893 171.274 41.4022 171.621 41.8279C171.969 42.2498 172.143 42.8611 172.143 43.6619V47.3299ZM176.742 47.2713C176.516 47.3963 176.217 47.4588 175.846 47.4588C174.795 47.4588 174.27 46.8729 174.27 45.701V42.1502H173.238V41.3299H174.27V39.8651L175.231 39.5545V41.3299H176.742V42.1502H175.231V45.5311C175.231 45.9334 175.299 46.2205 175.436 46.3924C175.572 46.5643 175.799 46.6502 176.115 46.6502C176.358 46.6502 176.567 46.5838 176.742 46.451V47.2713Z" fill="white"/>
<path d="M40.8079 21.0671L38.0934 16.376L40.8083 11.6927H46.2219L48.9287 16.376L46.2219 21.0674L40.8079 21.0671Z" fill="#29B85D"/>
<path d="M20.5353 10.4464L18.3365 6.64479L20.5353 2.83475H24.9329L27.1236 6.64479L24.9329 10.4471L20.5353 10.4464Z" fill="#29B85D"/>
<path d="M47.1982 4.00882L46.0392 2.00038L47.1982 0H49.5082L50.6672 2.00038L49.5082 4.00882H47.1982Z" fill="#29B85D"/>
<path d="M36.5933 6.62026L34.7353 3.40549L36.5933 0.19072H40.3094L42.1675 3.40549L40.3094 6.62026H36.5933Z" fill="#29B85D"/>
<path d="M28.2192 21.8531C28.2201 21.6372 28.1569 21.4259 28.0378 21.246C27.9186 21.066 27.7487 20.9254 27.5496 20.842C27.3505 20.7586 27.1312 20.736 26.9193 20.7773C26.7074 20.8186 26.5125 20.9217 26.3593 21.0737C26.206 21.2258 26.1013 21.4198 26.0583 21.6314C26.0154 21.8429 26.0361 22.0624 26.1179 22.2622C26.1998 22.4619 26.339 22.6329 26.518 22.7536C26.697 22.8742 26.9078 22.939 27.1236 22.9399C27.2671 22.941 27.4093 22.9138 27.5422 22.8597C27.6751 22.8056 27.7959 22.7257 27.8978 22.6247C27.9996 22.5236 28.0805 22.4034 28.1356 22.271C28.1908 22.1386 28.2192 21.9965 28.2192 21.8531Z" fill="#29B85D"/>
<path d="M31.4017 33.0771L35.3786 39.6097L38.0219 40.3319L44.6828 28.7903L42.3014 24.6626H38.402L33.5837 16.3119L35.5283 12.9383L33.5121 9.44554H29.7666L27.1075 14.0496H18.3431L15.6847 9.44624H11.1763L7.31089 16.1457L12.3893 24.028C12.437 24.028 12.4766 24.0123 12.5162 24.0123C13.1457 24.005 13.7587 24.2129 14.2539 24.6015C14.7491 24.9901 15.0967 25.5362 15.2393 26.1493C15.3818 26.7625 15.3107 27.4059 15.0377 27.9731C14.7648 28.5403 14.3063 28.9973 13.7382 29.2684C13.1701 29.5396 12.5264 29.6086 11.9138 29.464C11.3011 29.3195 10.7562 28.9701 10.3692 28.4736C9.98215 27.9771 9.77627 27.3634 9.7856 26.734C9.79493 26.1046 10.0189 25.4972 10.4205 25.0125L6.07055 18.2734L0 28.7825L5.85811 38.9348L18.1633 30.8366L19.7034 25.2403L20.0686 25.0181C20.0686 25.0181 24.2994 22.3905 24.4344 22.3113C24.4063 22.1594 24.3904 22.0054 24.3867 21.851C24.3888 21.2446 24.5934 20.6563 24.968 20.1795C25.3426 19.7027 25.8657 19.3646 26.4544 19.219C27.043 19.0734 27.6634 19.1285 28.2171 19.3757C28.7708 19.6229 29.2261 20.048 29.5107 20.5834C29.7953 21.1188 29.8929 21.734 29.788 22.3312C29.6831 22.9285 29.3817 23.4736 28.9317 23.88C28.4817 24.2864 27.9088 24.5309 27.304 24.5746C26.6992 24.6183 26.0971 24.4588 25.5934 24.1213C25.4428 24.2375 25.2864 24.3461 25.125 24.4466L21.5744 26.6475L20.0346 32.2438L6.94559 40.8402L9.98577 46.103L20.3922 39.5227C20.3922 39.4831 20.3765 39.4435 20.3765 39.3958C20.3765 38.8558 20.5366 38.3278 20.8367 37.8788C21.1367 37.4297 21.5632 37.0797 22.0621 36.8731C22.5611 36.6664 23.1101 36.6123 23.6398 36.7177C24.1695 36.823 24.656 37.0831 25.0379 37.465C25.4198 37.8469 25.6799 38.3334 25.7852 38.8631C25.8906 39.3928 25.8365 39.9419 25.6298 40.4408C25.4232 40.9398 25.0732 41.3662 24.6241 41.6663C24.1751 41.9663 23.6472 42.1265 23.1071 42.1265C22.4722 42.1245 21.8588 41.8965 21.3766 41.4835L11.081 47.9919L11.1606 48.135H33.4894L36.8629 42.2849L33.9497 41.4832L33.7193 41.1179C33.7193 41.1179 29.314 33.896 29.2267 33.7674C29.0748 33.7954 28.9209 33.8114 28.7664 33.815C28.1572 33.8154 27.5653 33.6121 27.0849 33.2376C26.6044 32.863 26.2629 32.3386 26.1146 31.7477C25.9663 31.1569 26.0198 30.5334 26.2664 29.9763C26.5131 29.4193 26.9389 28.9606 27.4761 28.6733C28.0132 28.386 28.6311 28.2864 29.2313 28.3904C29.8316 28.4944 30.3799 28.7961 30.7891 29.2474C31.1983 29.6987 31.4449 30.2739 31.4898 30.8814C31.5346 31.489 31.3752 32.0941 31.0367 32.6007C31.1755 32.7456 31.2979 32.9053 31.4017 33.0771Z" fill="#29B85D"/>
<path d="M24.2181 39.3955C24.2181 39.1805 24.1543 38.9704 24.0349 38.7917C23.9155 38.613 23.7458 38.4737 23.5472 38.3914C23.3486 38.3092 23.1301 38.2876 22.9193 38.3296C22.7084 38.3715 22.5148 38.475 22.3628 38.627C22.2108 38.779 22.1073 38.9726 22.0654 39.1835C22.0234 39.3943 22.045 39.6128 22.1272 39.8114C22.2095 40.01 22.3488 40.1797 22.5275 40.2991C22.7062 40.4185 22.9163 40.4823 23.1313 40.4823C23.2741 40.4826 23.4156 40.4548 23.5476 40.4003C23.6796 40.3458 23.7996 40.2658 23.9006 40.1648C24.0016 40.0638 24.0816 39.9438 24.1361 39.8118C24.1906 39.6798 24.2184 39.5383 24.2181 39.3955Z" fill="#29B85D"/>
<path d="M13.6132 26.7506C13.6123 26.5347 13.5475 26.324 13.4269 26.145C13.3062 25.966 13.1352 25.8267 12.9355 25.7449C12.7357 25.6631 12.5162 25.6424 12.3047 25.6853C12.0931 25.7283 11.8991 25.833 11.747 25.9862C11.595 26.1395 11.4918 26.3344 11.4506 26.5463C11.4093 26.7581 11.4319 26.9775 11.5153 27.1766C11.5987 27.3757 11.7393 27.5455 11.9193 27.6647C12.0992 27.7839 12.3105 27.847 12.5264 27.8461C12.6697 27.8458 12.8116 27.8172 12.9439 27.7619C13.0762 27.7067 13.1963 27.6258 13.2972 27.524C13.3982 27.4222 13.4781 27.3015 13.5323 27.1688C13.5865 27.0361 13.614 26.894 13.6132 26.7506Z" fill="#29B85D"/>
<path d="M27.7108 31.0925C27.7099 31.3087 27.7733 31.5203 27.8929 31.7005C28.0124 31.8807 28.1828 32.0212 28.3824 32.1044C28.582 32.1876 28.8018 32.2096 29.0139 32.1676C29.2261 32.1256 29.421 32.0216 29.5739 31.8687C29.7268 31.7158 29.8308 31.5209 29.8727 31.3088C29.9147 31.0967 29.8927 30.8769 29.8095 30.6773C29.7264 30.4777 29.5858 30.3073 29.4056 30.1877C29.2255 30.0681 29.0138 30.0048 28.7976 30.0057C28.5096 30.0063 28.2335 30.121 28.0298 30.3247C27.8262 30.5284 27.7115 30.8044 27.7108 31.0925Z" fill="#29B85D"/>
</svg>
