<svg width="19" height="19" viewBox="0 0 19 19" fill="none" xmlns="http://www.w3.org/2000/svg">
<path d="M9.50336 1.01588e-07C5.70218 -0.00055395 2.26674 2.26524 0.770606 5.7596L0.652197 5.79886L0.698104 5.93658C-1.27179 10.7951 1.06983 16.3305 5.92831 18.3004C7.06304 18.7605 8.27606 18.9967 9.50055 18.996C14.7462 18.9968 18.9992 14.745 19 9.49944C19.0008 4.25385 14.749 0.000752028 9.50336 1.01588e-07ZM16.9535 14.2868L16.4658 13.7994V12.664C16.4663 12.615 16.4555 12.5666 16.4341 12.5225L15.1994 10.0565V8.86482C15.1994 8.759 15.1465 8.66014 15.0585 8.60141L14.1087 7.96821C14.0342 7.9185 13.9422 7.90263 13.8554 7.92451L12.6922 8.21515L10.7385 7.3768L10.4697 5.49365L11.2146 4.74901H12.8138L13.352 5.55793C13.4006 5.63066 13.4772 5.68009 13.5635 5.69438L15.4631 6.01098C15.514 6.01953 15.5661 6.01537 15.6151 5.99895L17.3646 5.41577C18.832 8.23174 18.675 11.6186 16.9535 14.2868ZM15.6477 3.11978L15.1329 3.46298L13.6977 3.17582L12.7666 2.86587C12.7096 2.84652 12.6483 2.84406 12.5899 2.8589L11.4128 3.15303L10.8968 2.98111L11.2792 2.2162H12.35C12.3991 2.21624 12.4475 2.20489 12.4915 2.18296L13.5869 1.63524C14.3413 2.02901 15.0353 2.52893 15.6477 3.11978ZM6.03283 1.34017L6.79267 1.84673C6.83003 1.87159 6.87221 1.88821 6.91646 1.89549L8.45071 2.1513L8.30095 2.59929L7.50154 2.86619C7.42995 2.89001 7.3692 2.93861 7.33026 3.00327L6.42098 4.51853L4.9605 5.39488L2.80761 5.70229C2.65157 5.72434 2.53554 5.85782 2.53534 6.01541V6.96521C2.53534 7.04919 2.56874 7.12969 2.6281 7.18905L3.16854 7.72949V8.27341L1.85148 7.39516L1.37373 5.96191C2.28269 3.88501 3.94868 2.23235 6.03283 1.34017ZM5.13146 11.7206L3.70043 11.434L3.16854 10.3731V9.62909L4.34819 8.44944L4.78479 9.32294C4.83841 9.43027 4.94815 9.49806 5.06814 9.49802H7.10515L7.96282 10.9275C8.02005 11.0227 8.12302 11.081 8.23415 11.081H9.1143L8.89268 12.1913L7.69403 13.39C7.63455 13.4493 7.60107 13.5298 7.60095 13.6138V14.4053L6.46119 15.2602C6.38148 15.32 6.33455 15.4138 6.33455 15.5134V16.657L5.9407 16.5266L5.38474 15.136V12.0308C5.38478 11.8804 5.27888 11.7506 5.13146 11.7206ZM4.17976 16.5875C1.19465 14.348 -0.0677532 10.4785 1.0223 6.90949L1.2854 7.69846C1.30756 7.76523 1.35133 7.82273 1.40982 7.86183L2.98808 8.91389L2.6281 9.27418C2.56874 9.33355 2.53534 9.41404 2.53534 9.49802V10.4478C2.5353 10.4969 2.54666 10.5454 2.56858 10.5893L3.20178 11.8557C3.24563 11.9432 3.32743 12.0055 3.4234 12.0245L4.75313 12.2901V15.1968C4.75309 15.237 4.76072 15.2769 4.7756 15.3143L5.40881 16.8973C5.44347 16.9838 5.51447 17.0506 5.60288 17.08L6.55268 17.3966C6.58442 17.4073 6.61767 17.4129 6.65115 17.413C6.82599 17.413 6.96775 17.2713 6.96775 17.0964V15.6717L8.10751 14.8169C8.18721 14.7571 8.23415 14.6633 8.23415 14.5636V13.7449L9.40779 12.5713C9.45192 12.5271 9.48199 12.4707 9.49422 12.4095L9.81082 10.8265C9.84509 10.655 9.73389 10.4882 9.56241 10.454C9.54203 10.4499 9.52133 10.4478 9.50055 10.4478H8.41335L7.55568 9.01837C7.49845 8.92311 7.39548 8.86486 7.28435 8.86482H5.2638L4.71988 7.7735C4.67433 7.68239 4.58774 7.61876 4.48718 7.60253C4.38666 7.58516 4.28404 7.61832 4.21269 7.69118L3.80174 8.10054V7.59842C3.80174 7.51444 3.76834 7.43394 3.70898 7.37458L3.16854 6.83414V6.28991L5.1131 6.01225C5.15485 6.00619 5.19502 5.99187 5.23119 5.97014L6.8142 5.02034C6.8586 4.99366 6.8958 4.95646 6.92247 4.91206L7.81212 3.42942L8.6508 3.14954C8.7455 3.11848 8.81982 3.04419 8.85089 2.94945L9.16749 1.99965C9.22234 1.83363 9.13223 1.65456 8.96621 1.5997C8.9509 1.59464 8.93518 1.59076 8.91928 1.58807L7.08679 1.28255L6.76481 1.06789C8.75714 0.419417 10.915 0.499675 12.8537 1.29426L12.2752 1.583H11.0836C10.963 1.58233 10.8525 1.65024 10.7986 1.75808L10.1654 3.02449C10.0874 3.18097 10.151 3.37109 10.3075 3.44909C10.3208 3.45574 10.3346 3.46144 10.3487 3.46614L11.2985 3.78275C11.3555 3.8021 11.4169 3.80455 11.4752 3.78971L12.6523 3.49559L13.5147 3.78275C13.5271 3.78718 13.5398 3.79058 13.5527 3.79288L15.1357 4.10948C15.218 4.12626 15.3037 4.1094 15.3735 4.06262L16.0941 3.58202C16.4487 3.97702 16.7674 4.40285 17.0464 4.85444L15.4887 5.37366L13.8022 5.09252L13.245 4.2567C13.1866 4.16912 13.0884 4.11632 12.9832 4.11581H11.0836C10.9996 4.11581 10.9191 4.14921 10.8597 4.20857L9.90992 5.15837C9.8394 5.22886 9.80619 5.32847 9.82032 5.42717L10.1369 7.64337C10.1529 7.75296 10.2249 7.84624 10.3269 7.88937L12.5431 8.83917C12.6066 8.86668 12.6774 8.87234 12.7444 8.85532L13.875 8.5726L14.5662 9.0342V10.1312C14.5656 10.1802 14.5765 10.2287 14.5978 10.2727L15.8326 12.7387V13.9304C15.8326 14.0144 15.866 14.0949 15.9253 14.1543L16.5877 14.8169C13.6503 18.7322 8.09504 19.525 4.17976 16.5875Z" fill="#29B85D"/>
</svg>
