<svg width="26" height="25" viewBox="0 0 26 25" fill="none" xmlns="http://www.w3.org/2000/svg">
<path fill-rule="evenodd" clip-rule="evenodd" d="M0.727173 12.5C0.727173 19.4036 6.32361 25 13.2272 25C20.1307 25 25.7272 19.4036 25.7272 12.5C25.7272 5.59644 20.1307 0 13.2272 0C6.32361 0 0.727173 5.59644 0.727173 12.5ZM21.0721 12.0216C21.0704 16.1189 17.7374 19.4528 13.6392 19.4544H13.6362C12.3922 19.454 11.1698 19.1419 10.0842 18.5497L6.14388 19.5833L7.19836 15.7317C6.5479 14.6044 6.20564 13.3258 6.20619 12.0157C6.20782 7.91754 9.54222 4.58332 13.6392 4.58332C15.6275 4.58418 17.4938 5.35825 18.8971 6.76323C20.3004 8.16813 21.0729 10.0356 21.0721 12.0216Z" fill="#3D3D3D"/>
<path fill-rule="evenodd" clip-rule="evenodd" d="M7.92853 17.8174L10.2667 17.2041L10.4923 17.338C11.4409 17.9008 12.5282 18.1987 13.6368 18.1991H13.6393C17.0443 18.1991 19.8157 15.4277 19.8171 12.0212C19.8177 10.3704 19.1758 8.81825 18.0094 7.65049C16.843 6.48273 15.2918 5.83932 13.6417 5.83875C10.234 5.83875 7.46253 8.60993 7.46118 12.0162C7.4607 13.1835 7.78732 14.3204 8.40574 15.304L8.55264 15.5377L7.92853 17.8174ZM17.1295 13.6219C17.2591 13.6845 17.3465 13.7268 17.3839 13.7891C17.4303 13.8665 17.4303 14.2384 17.2756 14.6723C17.1208 15.1061 16.3788 15.502 16.022 15.5553C15.702 15.6032 15.2971 15.6231 14.8522 15.4818C14.5824 15.3962 14.2365 15.2819 13.7934 15.0905C12.0523 14.3387 10.8757 12.6512 10.6533 12.3323C10.6377 12.3099 10.6268 12.2943 10.6207 12.2862L10.6192 12.2842C10.521 12.153 9.86239 11.2744 9.86239 10.365C9.86239 9.50947 10.2826 9.06107 10.4761 8.85467C10.4893 8.84052 10.5015 8.82752 10.5124 8.8156C10.6826 8.62966 10.8839 8.58317 11.0077 8.58317C11.1315 8.58317 11.2554 8.58432 11.3636 8.58975C11.377 8.59042 11.3909 8.59034 11.4052 8.59026C11.5134 8.58962 11.6484 8.58883 11.7815 8.90857C11.8327 9.03161 11.9076 9.21403 11.9867 9.40643C12.1465 9.7955 12.323 10.2254 12.3541 10.2876C12.4005 10.3805 12.4315 10.489 12.3696 10.613C12.3603 10.6316 12.3517 10.6491 12.3435 10.6659C12.297 10.7608 12.2628 10.8306 12.1839 10.9228C12.1528 10.959 12.1208 10.9981 12.0887 11.0371C12.0248 11.1149 11.9609 11.1927 11.9053 11.2482C11.8123 11.3408 11.7155 11.4412 11.8239 11.6272C11.9322 11.8131 12.3049 12.4213 12.857 12.9138C13.4505 13.4431 13.9664 13.6669 14.2278 13.7803C14.2789 13.8025 14.3203 13.8204 14.3506 13.8356C14.5362 13.9286 14.6446 13.913 14.7529 13.7891C14.8613 13.6652 15.2172 13.2468 15.341 13.0609C15.4648 12.875 15.5887 12.906 15.7589 12.9679C15.9291 13.03 16.8422 13.4792 17.028 13.5722C17.0642 13.5903 17.0981 13.6067 17.1295 13.6219Z" fill="#3D3D3D"/>
</svg>
