<svg width="362" height="362" viewBox="0 0 362 362" fill="none" xmlns="http://www.w3.org/2000/svg">
<path d="M186.838 46.7096C193.278 46.7096 198.516 51.947 198.516 58.3871H210.193C210.193 45.5069 199.718 35.0322 186.838 35.0322C173.958 35.0322 163.483 45.5069 163.483 58.3871V70.0645C163.483 82.9447 173.958 93.4193 186.838 93.4193C199.718 93.4193 210.193 82.9447 210.193 70.0645H198.516C198.516 76.5046 193.278 81.7419 186.838 81.7419C180.398 81.7419 175.161 76.5046 175.161 70.0645V58.3871C175.161 51.947 180.398 46.7096 186.838 46.7096Z" fill="#4B4B4B"/>
<path d="M251.064 35.0322H221.871V93.4193H233.548V70.0645H251.064C254.281 70.0645 256.903 72.6861 256.903 75.9032V93.4193H268.58V75.9032C268.58 71.4015 266.823 67.332 264.026 64.2258C266.829 61.1196 268.58 57.05 268.58 52.5484C268.58 42.8911 260.721 35.0322 251.064 35.0322ZM233.548 58.3871V46.7096H251.064C254.281 46.7096 256.903 49.3312 256.903 52.5484C256.903 55.7655 254.281 58.3871 251.064 58.3871H233.548Z" fill="#4B4B4B"/>
<path d="M311.081 70.0645H307.823L296.145 35.0322H280.258V93.4193H291.936V59.3329L299.403 81.7419H319.5L326.968 59.3329V93.4193H338.645V35.0322H322.758L311.081 70.0645Z" fill="#4B4B4B"/>
<path d="M23.3535 116.774H35.0309V128.451H23.3535V116.774Z" fill="#4B4B4B"/>
<path d="M46.7109 116.774H58.3884V128.451H46.7109V116.774Z" fill="#4B4B4B"/>
<path d="M70.0645 116.774H81.7419V128.451H70.0645V116.774Z" fill="#4B4B4B"/>
<path d="M297.776 175.162H204.356C194.699 175.162 186.84 183.021 186.84 192.678V204.355C186.84 214.012 194.699 221.871 204.356 221.871V233.549C194.699 233.549 186.84 241.408 186.84 251.065V262.742C186.84 272.399 194.699 280.258 204.356 280.258V291.936C194.699 291.936 186.84 299.795 186.84 309.452V321.129C186.84 330.787 194.699 338.645 204.356 338.645H297.776C307.433 338.645 315.292 330.787 315.292 321.129V309.452C315.292 299.795 307.433 291.936 297.776 291.936V280.258C307.433 280.258 315.292 272.399 315.292 262.742V251.065C315.292 241.408 307.433 233.549 297.776 233.549V221.871C307.433 221.871 315.292 214.012 315.292 204.355V192.678C315.292 183.021 307.433 175.162 297.776 175.162ZM303.615 309.452V321.129C303.615 324.352 300.993 326.968 297.776 326.968H204.356C201.139 326.968 198.518 324.352 198.518 321.129V309.452C198.518 306.229 201.139 303.613 204.356 303.613H297.776C300.993 303.613 303.615 306.229 303.615 309.452ZM286.098 291.936H216.034V280.258H286.098V291.936ZM303.615 251.065V262.742C303.615 265.965 300.993 268.581 297.776 268.581H204.356C201.139 268.581 198.518 265.965 198.518 262.742V251.065C198.518 247.842 201.139 245.226 204.356 245.226H297.776C300.993 245.226 303.615 247.842 303.615 251.065ZM286.098 233.549H216.034V221.871H286.098V233.549ZM303.615 204.355C303.615 207.578 300.993 210.194 297.776 210.194H204.356C201.139 210.194 198.518 207.578 198.518 204.355V192.678C198.518 189.455 201.139 186.839 204.356 186.839H297.776C300.993 186.839 303.615 189.455 303.615 192.678V204.355Z" fill="#4B4B4B"/>
<path d="M332.806 0H169.323C153.225 0 140.129 13.0962 140.129 29.1935V93.4194H17.5161C7.8589 93.4194 0 101.278 0 110.935V344.484C0 354.141 7.8589 362 17.5161 362H321.129C330.786 362 338.645 354.141 338.645 344.484V127.862C351.952 125.147 362 113.359 362 99.2581V29.1935C362 13.0962 348.904 0 332.806 0ZM17.5161 105.097H140.719C143.434 118.403 155.222 128.452 169.323 128.452H189.945L199.678 140.129H11.6774V110.935C11.6774 107.718 14.299 105.097 17.5161 105.097ZM321.129 350.323H17.5161C14.299 350.323 11.6774 347.707 11.6774 344.484V151.806H209.405L213.808 157.09C217.194 161.154 222.169 163.484 227.459 163.484C235.107 163.484 241.582 158.597 244.081 151.806H326.968V344.484C326.968 347.707 324.346 350.323 321.129 350.323ZM245.226 140.129V128.452H326.968V140.129H245.226ZM350.323 99.2581C350.323 108.915 342.464 116.774 332.806 116.774H233.548V145.717C233.548 149.074 230.816 151.806 227.459 151.806C225.643 151.806 223.938 151.007 222.776 149.617L195.41 116.774H169.323C159.665 116.774 151.806 108.915 151.806 99.2581V29.1935C151.806 19.5363 159.665 11.6774 169.323 11.6774H332.806C342.464 11.6774 350.323 19.5363 350.323 29.1935V99.2581Z" fill="#4B4B4B"/>
<path d="M99.26 291.936C134.672 291.936 163.486 263.122 163.486 227.711C163.486 192.299 134.672 163.485 99.26 163.485C63.8482 163.485 35.0342 192.299 35.0342 227.711C35.0342 263.122 63.8482 291.936 99.26 291.936ZM99.26 280.259C86.8702 280.259 75.4906 275.927 66.499 268.728L101.677 233.549H151.464C148.55 259.783 126.258 280.259 99.26 280.259ZM140.277 194.95C146.326 202.511 150.337 211.753 151.464 221.872H113.355L140.277 194.95ZM132.021 186.694L99.26 219.455L66.499 186.694C75.4906 179.495 86.8702 175.162 99.26 175.162C111.65 175.162 123.029 179.495 132.021 186.694ZM58.243 194.95L91.004 227.711L58.243 260.472C51.0439 251.48 46.7116 240.1 46.7116 227.711C46.7116 215.321 51.0439 203.941 58.243 194.95Z" fill="#4B4B4B"/>
<path d="M23.3535 303.612H35.0309V315.289H23.3535V303.612Z" fill="#4B4B4B"/>
<path d="M46.7109 303.612H175.163V315.289H46.7109V303.612Z" fill="#4B4B4B"/>
<path d="M23.3535 326.968H58.3858V338.645H23.3535V326.968Z" fill="#4B4B4B"/>
<path d="M70.0645 326.968H175.161V338.645H70.0645V326.968Z" fill="#4B4B4B"/>
</svg>
