<svg width="362" height="362" viewBox="0 0 362 362" fill="none" xmlns="http://www.w3.org/2000/svg">
<path d="M262.204 82.7548C262.168 81.5515 261.696 80.4021 260.876 79.5214C260.055 78.6407 258.942 78.0888 257.744 77.9689C257.284 77.9213 256.823 78.0367 256.44 78.295L239.8 89.1055C239.178 89.4947 238.664 90.0357 238.308 90.6779C237.953 91.32 237.766 92.0421 237.766 92.7762C237.766 93.5104 237.953 94.2325 238.308 94.8747C238.664 95.5168 239.178 96.0579 239.8 96.4471L256.44 107.258C256.823 107.516 257.284 107.631 257.744 107.584C258.942 107.464 260.055 106.912 260.876 106.031C261.696 105.15 262.168 104.001 262.204 102.798C262.241 102.3 262.153 101.8 261.948 101.345C261.743 100.889 261.427 100.492 261.03 100.19L249.502 92.7307L261.03 85.2716C261.413 84.977 261.72 84.5946 261.924 84.1565C262.128 83.7185 262.224 83.2377 262.204 82.7548Z" fill="#525252"/>
<path d="M295.157 60.3516C294.587 60.3223 294.021 60.4629 293.531 60.7554C293.042 61.0479 292.649 61.4792 292.405 61.9946L269.415 109.214C269.207 109.618 269.095 110.064 269.089 110.518C269.129 111.459 269.535 112.347 270.219 112.994C270.902 113.642 271.811 113.998 272.753 113.987C273.346 114.006 273.933 113.865 274.452 113.578C274.97 113.291 275.402 112.869 275.7 112.357L298.756 65.1374C298.945 64.7295 299.034 64.2826 299.016 63.8334C298.943 62.8602 298.494 61.9539 297.763 61.3065C297.033 60.659 296.079 60.3211 295.104 60.3646L295.157 60.3516Z" fill="#525252"/>
<path d="M328.213 89.105L311.586 78.2946C311.203 78.0373 310.742 77.922 310.283 77.9685C309.087 78.0914 307.977 78.6445 307.159 79.525C306.341 80.4054 305.871 81.5531 305.836 82.7544C305.799 83.2525 305.887 83.7518 306.092 84.2073C306.297 84.6627 306.612 85.0598 307.009 85.3624L318.537 92.8215L307.009 100.281C306.612 100.583 306.297 100.98 306.092 101.436C305.887 101.891 305.799 102.391 305.836 102.889C305.871 104.09 306.341 105.238 307.159 106.118C307.977 106.999 309.087 107.552 310.283 107.674C310.742 107.721 311.203 107.606 311.586 107.348L328.213 96.538C328.836 96.1488 329.349 95.6076 329.705 94.9655C330.06 94.3234 330.247 93.6013 330.247 92.8672C330.247 92.133 330.06 91.411 329.705 90.7688C329.349 90.1267 328.836 89.5855 328.213 89.1963V89.105Z" fill="#525252"/>
<path d="M336.377 26.3676H222.196C219.225 18.6113 213.972 11.9387 207.129 7.23098C200.286 2.52326 192.176 0.0019331 183.871 0H107.324C96.4591 0.013809 86.0435 4.33679 78.3623 12.0205C70.681 19.7042 66.3613 30.1211 66.351 40.9858V87.5138C64.0814 89.506 62.3731 92.0578 61.3962 94.9154C60.4193 97.7729 60.2078 100.836 60.7827 103.801L63.7951 120.362C64.0904 122.399 64.8181 124.348 65.9292 126.08C67.0403 127.812 68.5091 129.286 70.237 130.403C72.7197 131.866 75.5581 132.616 78.4394 132.568V135.515C79.1354 144.274 81.6148 152.798 85.7253 160.564C89.8358 168.33 95.4906 175.173 102.342 180.674C105.157 183.222 108.118 185.604 111.21 187.807V196.688C111.211 198 110.752 199.272 109.914 200.282C109.075 201.291 107.91 201.976 106.62 202.217L106.254 202.295C106.163 202.295 97.061 204.694 85.1552 208.072H46.2689C44.0964 208.071 41.9472 208.519 39.9555 209.386C37.9638 210.254 36.1722 211.523 34.6928 213.113C33.2133 214.704 32.0777 216.583 31.3568 218.632C30.636 220.682 30.3453 222.858 30.5031 225.024L30.6074 226.524C22.412 230.299 15.371 236.191 10.2093 243.592C5.04757 250.993 1.95174 259.636 1.24055 268.631V268.853L0.00171292 341.879C-0.0328583 344.511 0.456186 347.124 1.44041 349.565C2.42464 352.007 3.88441 354.228 5.73484 356.1C7.58527 357.973 9.78945 359.458 12.2192 360.471C14.649 361.484 17.2558 362.004 19.8882 362H271.358C273.99 362 276.596 361.478 279.024 360.463C281.453 359.448 283.655 357.96 285.504 356.087C287.353 354.214 288.811 351.992 289.794 349.551C290.778 347.11 291.266 344.497 291.232 341.866L290.019 268.84C290.019 268.762 290.019 268.696 290.019 268.618C289.272 259.334 285.998 250.432 280.552 242.877C275.107 235.321 267.697 229.399 259.126 225.754L258.083 225.272V224.998C258.241 222.831 257.95 220.655 257.229 218.606C256.509 216.557 255.373 214.678 253.893 213.087C252.414 211.496 250.622 210.228 248.631 209.36C246.639 208.493 244.49 208.045 242.317 208.046H206.039C194.146 204.668 185.031 202.295 184.94 202.282L184.575 202.204C183.284 201.963 182.119 201.278 181.281 200.268C180.442 199.259 179.984 197.987 179.985 196.674V187.794C183.076 185.586 186.037 183.2 188.852 180.648C197.782 172.867 204.808 163.142 209.391 152.22H243.856L237.845 176.514C237.344 178.463 237.47 180.519 238.205 182.392C238.94 184.265 240.247 185.858 241.939 186.946C243.613 188.063 245.597 188.624 247.608 188.549C249.618 188.474 251.555 187.767 253.141 186.529L297.791 152.233H336.351C343.069 152.226 349.51 149.554 354.26 144.804C359.01 140.054 361.682 133.613 361.689 126.896V51.705C361.682 44.9872 359.01 38.5465 354.26 33.7964C349.51 29.0462 343.069 26.3745 336.351 26.3676H336.377ZM212.807 96.6681C214.498 96.1055 216.248 95.7422 218.023 95.5857C218.867 96.3832 219.494 97.3821 219.845 98.4884C220.196 99.5948 220.26 100.772 220.031 101.91L217.032 118.393C216.602 120.688 215.728 121.236 215.428 121.419C214.625 121.837 213.726 122.04 212.82 122.005L212.807 96.6681ZM76.9397 40.9858C76.9466 32.9296 80.15 25.2053 85.8466 19.5087C91.5432 13.8121 99.2675 10.6087 107.324 10.6018H183.871C191.922 10.6122 199.641 13.8153 205.335 19.5087C211.028 25.2021 214.231 32.9211 214.242 40.9728V85.4143C211.058 85.9478 207.978 86.9775 205.113 88.4657V56.1517C205.106 50.5806 202.897 45.2384 198.966 41.2905C195.035 37.3426 189.702 35.1095 184.131 35.0785H169.787C164.806 35.0846 159.98 36.807 156.121 39.9556L154.712 41.1032C152.143 43.223 148.915 44.3825 145.584 44.3825C142.253 44.3825 139.026 43.223 136.456 41.1032L135.048 39.9556C131.202 36.8183 126.396 35.0966 121.433 35.0785H107.089C101.511 35.0992 96.1685 37.3277 92.2293 41.2767C88.2901 45.2257 86.0748 50.5739 86.068 56.1517V88.4657C83.2036 86.9773 80.1234 85.9476 76.9397 85.4143V40.9858ZM75.8183 121.419C75.5314 121.236 74.6446 120.688 74.2143 118.432L71.215 101.91C70.9874 100.772 71.0522 99.5951 71.4034 98.489C71.7547 97.3829 72.3808 96.384 73.2232 95.5857C74.9982 95.7422 76.7487 96.1055 78.4394 96.6681V122.005C77.5338 122.04 76.6349 121.837 75.8313 121.419H75.8183ZM28.873 347.551C28.8731 348.851 29.0485 350.145 29.3946 351.398H19.8882C18.6636 351.4 17.4507 351.159 16.3199 350.689C15.1891 350.218 14.1628 349.528 13.3004 348.659C12.4381 347.789 11.7569 346.757 11.2962 345.622C10.8355 344.488 10.6045 343.273 10.6166 342.048L11.8293 269.192C12.2959 262.818 14.3245 256.658 17.7359 251.254C21.1473 245.851 25.8366 241.37 31.3898 238.208L37.91 329.047C38.0251 330.677 38.3947 332.278 39.0054 333.794C36.0748 334.719 33.5153 336.554 31.6981 339.033C29.8809 341.511 28.9005 344.504 28.8991 347.577L28.873 347.551ZM250.637 329.034L257.157 236.734C263.365 239.738 268.678 244.314 272.567 250.009C276.456 255.703 278.787 262.317 279.326 269.192L280.539 342.022C280.554 343.249 280.326 344.467 279.867 345.604C279.407 346.742 278.727 347.777 277.864 348.65C277.001 349.522 275.974 350.214 274.841 350.686C273.709 351.158 272.494 351.4 271.267 351.398H261.734C262.283 349.408 262.399 347.322 262.074 345.283C261.749 343.244 260.991 341.298 259.85 339.576C258.71 337.855 257.213 336.398 255.462 335.304C253.711 334.21 251.745 333.503 249.698 333.233C250.185 331.881 250.484 330.468 250.585 329.034H250.637ZM251.706 347.551C251.69 348.564 251.281 349.531 250.566 350.248C249.851 350.966 248.885 351.378 247.873 351.398H43.3478C42.3293 351.398 41.3525 350.994 40.6323 350.273C39.912 349.553 39.5074 348.576 39.5074 347.558C39.5074 346.539 39.912 345.562 40.6323 344.842C41.3525 344.122 42.3293 343.717 43.3478 343.717H247.899C248.9 343.751 249.851 344.167 250.554 344.88C251.258 345.593 251.661 346.55 251.68 347.551H251.706ZM246.112 220.382C246.598 220.905 246.971 221.522 247.209 222.195C247.447 222.867 247.544 223.582 247.494 224.294L240.087 328.278C239.989 329.592 239.396 330.82 238.428 331.716C237.46 332.611 236.19 333.106 234.871 333.103H53.6888C52.3685 333.106 51.096 332.609 50.128 331.711C49.1599 330.813 48.5684 329.581 48.4727 328.265L41.0788 224.294C41.0305 223.58 41.1296 222.864 41.37 222.19C41.6105 221.515 41.987 220.898 42.4763 220.376C42.9655 219.853 43.557 219.437 44.214 219.154C44.8709 218.87 45.5793 218.724 46.2949 218.726H242.304C243.019 218.726 243.725 218.874 244.38 219.159C245.035 219.443 245.625 219.86 246.112 220.382ZM174.077 208.124H117.156C120.14 205.091 121.812 201.007 121.812 196.753V194.301C129.111 198.372 137.26 200.685 145.61 201.056C153.96 200.685 162.109 198.372 169.409 194.301V196.674C169.408 200.929 171.08 205.013 174.064 208.046L174.077 208.124ZM181.771 172.915C172.033 182.682 159.3 188.899 145.61 190.572C131.925 188.896 119.197 182.679 109.462 172.915C103.716 168.397 98.9437 162.763 95.434 156.35C91.9243 149.938 89.7496 142.882 89.0412 135.607V102.132H89.2498C91.2143 102.132 93.0982 101.352 94.4873 99.9625C95.8764 98.5735 96.6567 96.6895 96.6567 94.7251V56.1517C96.6567 53.3849 97.7558 50.7314 99.7123 48.775C101.669 46.8186 104.322 45.7195 107.089 45.7195H121.433C123.966 45.7209 126.421 46.596 128.384 48.1971L129.792 49.3447C134.257 52.9928 139.845 54.9856 145.61 54.9856C151.376 54.9856 156.964 52.9928 161.428 49.3447L162.836 48.1971C164.8 46.597 167.254 45.722 169.787 45.7195H184.131C186.898 45.7195 189.552 46.8186 191.508 48.775C193.465 50.7314 194.564 53.3849 194.564 56.1517V94.7381C194.563 95.7275 194.761 96.7069 195.146 97.6185C195.53 98.5302 196.093 99.3556 196.802 100.046C197.51 100.736 198.35 101.278 199.272 101.638C200.193 101.999 201.177 102.171 202.166 102.145V135.554C201.458 142.83 199.284 149.887 195.774 156.299C192.265 162.711 187.492 168.346 181.745 172.863L181.771 172.915ZM351.1 127.013C351.096 130.92 349.543 134.666 346.78 137.429C344.017 140.191 340.271 141.745 336.364 141.749H296.018C294.848 141.747 293.711 142.132 292.784 142.844L248.798 176.566L255.814 148.256C255.997 147.478 256.001 146.669 255.828 145.89C255.654 145.11 255.307 144.38 254.812 143.753C254.317 143.126 253.686 142.619 252.968 142.27C252.25 141.921 251.462 141.738 250.663 141.736H212.325C212.634 139.707 212.791 137.658 212.794 135.607V132.659C215.684 132.679 218.523 131.898 220.996 130.403C222.733 129.279 224.208 127.795 225.322 126.052C226.435 124.308 227.162 122.346 227.451 120.297L230.451 103.775C231.026 100.81 230.814 97.7468 229.837 94.8893C228.86 92.0317 227.152 89.4799 224.882 87.4877V40.9858C224.882 39.6818 224.817 38.2995 224.687 36.9694H336.364C340.271 36.9728 344.017 38.5264 346.78 41.2891C349.543 44.0519 351.096 47.7979 351.1 51.705V127.013Z" fill="#525252"/>
<path d="M145.61 300.045C149.554 300.045 153.409 298.875 156.688 296.685C159.966 294.494 162.522 291.38 164.031 287.736C165.54 284.093 165.935 280.084 165.166 276.216C164.396 272.349 162.498 268.796 159.709 266.007C156.921 263.219 153.368 261.32 149.5 260.551C145.632 259.781 141.623 260.176 137.98 261.685C134.337 263.194 131.223 265.75 129.032 269.029C126.841 272.308 125.672 276.163 125.672 280.106C125.675 285.393 127.777 290.463 131.515 294.201C135.254 297.94 140.323 300.041 145.61 300.045ZM145.61 270.783C147.454 270.783 149.257 271.329 150.79 272.354C152.323 273.378 153.519 274.835 154.224 276.538C154.93 278.242 155.115 280.117 154.755 281.925C154.395 283.734 153.507 285.395 152.203 286.699C150.899 288.003 149.238 288.891 147.429 289.251C145.621 289.611 143.746 289.426 142.042 288.721C140.338 288.015 138.882 286.819 137.858 285.286C136.833 283.753 136.286 281.95 136.286 280.106C136.29 277.635 137.273 275.265 139.021 273.517C140.769 271.77 143.138 270.786 145.61 270.783Z" fill="#525252"/>
</svg>
