<svg width="362" height="362" viewBox="0 0 362 362" fill="none" xmlns="http://www.w3.org/2000/svg">
<path d="M362 271.5V18.1C361.994 13.3013 360.086 8.70074 356.692 5.30754C353.299 1.91434 348.699 0.00558871 343.9 0H18.1C13.3013 0.00558871 8.70074 1.91434 5.30754 5.30754C1.91434 8.70074 0.00558871 13.3013 0 18.1V271.5C0.00558871 276.299 1.91434 280.899 5.30754 284.292C8.70074 287.686 13.3013 289.594 18.1 289.6H137.678L127.622 349.933H102.567C100.967 349.933 99.4319 350.569 98.3005 351.7C97.169 352.832 96.5333 354.367 96.5333 355.967C96.5333 357.567 97.169 359.101 98.3005 360.233C99.4319 361.364 100.967 362 102.567 362H259.433C261.033 362 262.568 361.364 263.7 360.233C264.831 359.101 265.467 357.567 265.467 355.967C265.467 354.367 264.831 352.832 263.7 351.7C262.568 350.569 261.033 349.933 259.433 349.933H234.378L224.322 289.6H276.068L328.55 342.082C331.944 345.476 336.548 347.383 341.348 347.383C346.149 347.383 350.752 345.476 354.147 342.082V342.082C357.536 338.685 359.439 334.082 359.439 329.283C359.439 324.484 357.536 319.882 354.147 316.485L327.262 289.6H343.9C348.699 289.594 353.299 287.686 356.692 284.292C360.086 280.899 361.994 276.299 362 271.5V271.5ZM230.429 226.896L238.961 218.363L264.557 243.959L256.025 252.495L230.429 226.896ZM220.048 220.212L203.568 216.092C200.327 215.291 197.372 213.606 195.033 211.224C192.694 208.843 191.063 205.858 190.321 202.603L183.016 170.949L214.67 178.254C217.925 178.996 220.909 180.627 223.291 182.966C225.673 185.305 227.358 188.26 228.159 191.501L232.279 207.981L220.048 220.212ZM244.407 206.747L239.864 188.571C238.529 183.17 235.72 178.245 231.75 174.347C227.78 170.449 222.806 167.73 217.381 166.494L176.324 157.021C175.327 156.791 174.288 156.818 173.304 157.101C172.321 157.383 171.425 157.91 170.701 158.634C169.978 159.357 169.45 160.253 169.168 161.237C168.886 162.22 168.859 163.26 169.089 164.257L178.564 205.316C179.562 209.648 181.505 213.706 184.254 217.2H12.0667V60.3333H349.933V217.2H254.862L244.407 206.747ZM18.1 12.0667H343.9C345.5 12.0685 347.033 12.7047 348.164 13.8358C349.295 14.9669 349.932 16.5004 349.933 18.1V48.2667H12.0667V18.1C12.0685 16.5004 12.7047 14.9669 13.8358 13.8358C14.9669 12.7047 16.5004 12.0685 18.1 12.0667V12.0667ZM222.144 349.933H139.856L149.911 289.6H212.089L222.144 349.933ZM18.1 277.533C16.5004 277.532 14.9669 276.895 13.8358 275.764C12.7047 274.633 12.0685 273.1 12.0667 271.5V229.267H206.512L218.809 232.341L264.001 277.533H18.1ZM345.614 333.549C345.054 334.109 344.389 334.554 343.657 334.857C342.925 335.16 342.14 335.316 341.348 335.316C340.556 335.316 339.771 335.16 339.039 334.857C338.307 334.554 337.642 334.109 337.082 333.549L264.557 261.025L273.09 252.495L345.614 325.019C346.743 326.152 347.377 327.685 347.377 329.284C347.377 330.883 346.743 332.417 345.614 333.549ZM266.929 229.267H349.933V271.5C349.932 273.1 349.295 274.633 348.164 275.764C347.033 276.895 345.5 277.532 343.9 277.533H315.196L266.929 229.267Z" fill="#4B4B4B"/>
<path d="M193.065 241.334H168.932C167.332 241.334 165.797 241.97 164.666 243.101C163.534 244.233 162.898 245.767 162.898 247.367C162.898 248.967 163.534 250.502 164.666 251.634C165.797 252.765 167.332 253.401 168.932 253.401H193.065C194.665 253.401 196.2 252.765 197.331 251.634C198.463 250.502 199.098 248.967 199.098 247.367C199.098 245.767 198.463 244.233 197.331 243.101C196.2 241.97 194.665 241.334 193.065 241.334Z" fill="#4B4B4B"/>
<path d="M30.1661 36.1995C33.4983 36.1995 36.1995 33.4983 36.1995 30.1661C36.1995 26.834 33.4983 24.1328 30.1661 24.1328C26.834 24.1328 24.1328 26.834 24.1328 30.1661C24.1328 33.4983 26.834 36.1995 30.1661 36.1995Z" fill="#4B4B4B"/>
<path d="M54.299 36.1995C57.6311 36.1995 60.3323 33.4983 60.3323 30.1661C60.3323 26.834 57.6311 24.1328 54.299 24.1328C50.9668 24.1328 48.2656 26.834 48.2656 30.1661C48.2656 33.4983 50.9668 36.1995 54.299 36.1995Z" fill="#4B4B4B"/>
<path d="M78.4318 36.1995C81.7639 36.1995 84.4651 33.4983 84.4651 30.1661C84.4651 26.834 81.7639 24.1328 78.4318 24.1328C75.0997 24.1328 72.3984 26.834 72.3984 30.1661C72.3984 33.4983 75.0997 36.1995 78.4318 36.1995Z" fill="#4B4B4B"/>
<path d="M66.3654 84.4671H78.432C80.0322 84.4671 81.5668 83.8314 82.6982 82.6999C83.8297 81.5685 84.4654 80.0339 84.4654 78.4337C84.4654 76.8336 83.8297 75.299 82.6982 74.1675C81.5668 73.036 80.0322 72.4004 78.432 72.4004H66.3654C64.7652 72.4004 63.2306 73.036 62.0992 74.1675C60.9677 75.299 60.332 76.8336 60.332 78.4337C60.332 80.0339 60.9677 81.5685 62.0992 82.6999C63.2306 83.8314 64.7652 84.4671 66.3654 84.4671V84.4671Z" fill="#4B4B4B"/>
<path d="M102.568 84.4671H114.635C116.235 84.4671 117.77 83.8314 118.901 82.6999C120.033 81.5685 120.668 80.0339 120.668 78.4337C120.668 76.8336 120.033 75.299 118.901 74.1675C117.77 73.036 116.235 72.4004 114.635 72.4004H102.568C100.968 72.4004 99.4337 73.036 98.3023 74.1675C97.1708 75.299 96.5352 76.8336 96.5352 78.4337C96.5352 80.0339 97.1708 81.5685 98.3023 82.6999C99.4337 83.8314 100.968 84.4671 102.568 84.4671Z" fill="#4B4B4B"/>
<path d="M42.2328 193.067H36.1995V187.033C36.1995 185.433 35.5638 183.899 34.4324 182.767C33.3009 181.636 31.7663 181 30.1661 181C28.566 181 27.0314 181.636 25.8999 182.767C24.7685 183.899 24.1328 185.433 24.1328 187.033V199.1C24.1328 200.7 24.7685 202.235 25.8999 203.366C27.0314 204.498 28.566 205.133 30.1661 205.133H42.2328C43.833 205.133 45.3676 204.498 46.499 203.366C47.6305 202.235 48.2661 200.7 48.2661 199.1C48.2661 197.5 47.6305 195.965 46.499 194.834C45.3676 193.702 43.833 193.067 42.2328 193.067Z" fill="#4B4B4B"/>
<path d="M78.432 193.066H66.3654C64.7652 193.066 63.2306 193.702 62.0992 194.834C60.9677 195.965 60.332 197.5 60.332 199.1C60.332 200.7 60.9677 202.234 62.0992 203.366C63.2306 204.497 64.7652 205.133 66.3654 205.133H78.432C80.0322 205.133 81.5668 204.497 82.6982 203.366C83.8297 202.234 84.4654 200.7 84.4654 199.1C84.4654 197.5 83.8297 195.965 82.6982 194.834C81.5668 193.702 80.0322 193.066 78.432 193.066Z" fill="#4B4B4B"/>
<path d="M114.635 193.066H102.568C100.968 193.066 99.4337 193.702 98.3023 194.834C97.1708 195.965 96.5352 197.5 96.5352 199.1C96.5352 200.7 97.1708 202.234 98.3023 203.366C99.4337 204.497 100.968 205.133 102.568 205.133H114.635C116.235 205.133 117.77 204.497 118.901 203.366C120.033 202.234 120.668 200.7 120.668 199.1C120.668 197.5 120.033 195.965 118.901 194.834C117.77 193.702 116.235 193.066 114.635 193.066Z" fill="#4B4B4B"/>
<path d="M150.834 72.4004H138.768C137.168 72.4004 135.633 73.036 134.501 74.1675C133.37 75.299 132.734 76.8336 132.734 78.4337C132.734 80.0339 133.37 81.5685 134.501 82.6999C135.633 83.8314 137.168 84.4671 138.768 84.4671H144.801V90.5004C144.801 92.1005 145.437 93.6351 146.568 94.7666C147.7 95.8981 149.234 96.5337 150.834 96.5337C152.435 96.5337 153.969 95.8981 155.101 94.7666C156.232 93.6351 156.868 92.1005 156.868 90.5004V78.4337C156.868 76.8336 156.232 75.299 155.101 74.1675C153.969 73.036 152.435 72.4004 150.834 72.4004Z" fill="#4B4B4B"/>
<path d="M150.834 108.6C149.234 108.6 147.699 109.235 146.568 110.367C145.436 111.498 144.801 113.033 144.801 114.633V126.7C144.801 128.3 145.436 129.834 146.568 130.966C147.699 132.097 149.234 132.733 150.834 132.733C152.434 132.733 153.969 132.097 155.1 130.966C156.232 129.834 156.867 128.3 156.867 126.7V114.633C156.867 113.033 156.232 111.498 155.1 110.367C153.969 109.235 152.434 108.6 150.834 108.6Z" fill="#4B4B4B"/>
<path d="M150.834 144.801C149.234 144.801 147.699 145.436 146.568 146.568C145.436 147.699 144.801 149.234 144.801 150.834V162.901C144.801 164.501 145.436 166.036 146.568 167.167C147.699 168.298 149.234 168.934 150.834 168.934C152.434 168.934 153.969 168.298 155.1 167.167C156.232 166.036 156.867 164.501 156.867 162.901V150.834C156.867 149.234 156.232 147.699 155.1 146.568C153.969 145.436 152.434 144.801 150.834 144.801Z" fill="#4B4B4B"/>
<path d="M150.834 181C149.234 181 147.7 181.636 146.568 182.767C145.437 183.899 144.801 185.433 144.801 187.033V193.067H138.768C137.168 193.067 135.633 193.702 134.501 194.834C133.37 195.965 132.734 197.5 132.734 199.1C132.734 200.7 133.37 202.235 134.501 203.366C135.633 204.498 137.168 205.133 138.768 205.133H150.834C152.435 205.133 153.969 204.498 155.101 203.366C156.232 202.235 156.868 200.7 156.868 199.1V187.033C156.868 185.433 156.232 183.899 155.101 182.767C153.969 181.636 152.435 181 150.834 181V181Z" fill="#4B4B4B"/>
<path d="M30.1661 96.5337C31.7663 96.5337 33.3009 95.8981 34.4324 94.7666C35.5638 93.6351 36.1995 92.1005 36.1995 90.5004V84.4671H42.2328C43.833 84.4671 45.3676 83.8314 46.499 82.6999C47.6305 81.5685 48.2661 80.0339 48.2661 78.4337C48.2661 76.8336 47.6305 75.299 46.499 74.1675C45.3676 73.036 43.833 72.4004 42.2328 72.4004H30.1661C28.566 72.4004 27.0314 73.036 25.8999 74.1675C24.7685 75.299 24.1328 76.8336 24.1328 78.4337V90.5004C24.1328 92.1005 24.7685 93.6351 25.8999 94.7666C27.0314 95.8981 28.566 96.5337 30.1661 96.5337Z" fill="#4B4B4B"/>
<path d="M30.1661 132.733C31.7663 132.733 33.3009 132.097 34.4324 130.966C35.5638 129.834 36.1995 128.3 36.1995 126.7V114.633C36.1995 113.033 35.5638 111.498 34.4324 110.367C33.3009 109.235 31.7663 108.6 30.1661 108.6C28.566 108.6 27.0314 109.235 25.8999 110.367C24.7685 111.498 24.1328 113.033 24.1328 114.633V126.7C24.1328 128.3 24.7685 129.834 25.8999 130.966C27.0314 132.097 28.566 132.733 30.1661 132.733Z" fill="#4B4B4B"/>
<path d="M30.1661 168.934C31.7663 168.934 33.3009 168.298 34.4324 167.167C35.5638 166.036 36.1995 164.501 36.1995 162.901V150.834C36.1995 149.234 35.5638 147.699 34.4324 146.568C33.3009 145.436 31.7663 144.801 30.1661 144.801C28.566 144.801 27.0314 145.436 25.8999 146.568C24.7685 147.699 24.1328 149.234 24.1328 150.834V162.901C24.1328 164.501 24.7685 166.036 25.8999 167.167C27.0314 168.298 28.566 168.934 30.1661 168.934Z" fill="#4B4B4B"/>
<path d="M211.167 132.732H174.967C173.367 132.732 171.832 133.368 170.701 134.5C169.569 135.631 168.934 137.166 168.934 138.766C168.934 140.366 169.569 141.901 170.701 143.032C171.832 144.163 173.367 144.799 174.967 144.799H211.167C212.767 144.799 214.302 144.163 215.433 143.032C216.565 141.901 217.2 140.366 217.2 138.766C217.2 137.166 216.565 135.631 215.433 134.5C214.302 133.368 212.767 132.732 211.167 132.732Z" fill="#4B4B4B"/>
<path d="M331.832 132.732H235.299C233.699 132.732 232.164 133.368 231.033 134.5C229.901 135.631 229.266 137.166 229.266 138.766C229.266 140.366 229.901 141.901 231.033 143.032C232.164 144.163 233.699 144.799 235.299 144.799H331.832C333.432 144.799 334.967 144.163 336.099 143.032C337.23 141.901 337.866 140.366 337.866 138.766C337.866 137.166 337.23 135.631 336.099 134.5C334.967 133.368 333.432 132.732 331.832 132.732Z" fill="#4B4B4B"/>
<path d="M331.832 156.867H247.365C245.765 156.867 244.231 157.503 243.099 158.634C241.968 159.766 241.332 161.3 241.332 162.901C241.332 164.501 241.968 166.035 243.099 167.167C244.231 168.298 245.765 168.934 247.365 168.934H331.832C333.432 168.934 334.967 168.298 336.098 167.167C337.23 166.035 337.865 164.501 337.865 162.901C337.865 161.3 337.23 159.766 336.098 158.634C334.967 157.503 333.432 156.867 331.832 156.867Z" fill="#4B4B4B"/>
<path d="M331.834 72.4004H174.967C173.367 72.4004 171.832 73.036 170.701 74.1675C169.569 75.299 168.934 76.8336 168.934 78.4337V114.634C168.934 116.234 169.569 117.768 170.701 118.9C171.832 120.031 173.367 120.667 174.967 120.667H331.834C333.434 120.667 334.968 120.031 336.1 118.9C337.231 117.768 337.867 116.234 337.867 114.634V78.4337C337.867 76.8336 337.231 75.299 336.1 74.1675C334.968 73.036 333.434 72.4004 331.834 72.4004ZM325.8 108.6H181V84.4671H325.8V108.6Z" fill="#4B4B4B"/>
<path d="M132.732 102.567C132.732 100.966 132.097 99.4318 130.965 98.3003C129.834 97.1689 128.299 96.5332 126.699 96.5332H54.299C52.6988 96.5332 51.1642 97.1689 50.0327 98.3003C48.9013 99.4318 48.2656 100.966 48.2656 102.567V174.967C48.2656 176.567 48.9013 178.101 50.0327 179.233C51.1642 180.364 52.6988 181 54.299 181H126.699C128.299 181 129.834 180.364 130.965 179.233C132.097 178.101 132.732 176.567 132.732 174.967V102.567ZM120.666 168.933H60.3323V108.6H120.666V168.933Z" fill="#4B4B4B"/>
</svg>
