<svg width="293" height="362" viewBox="0 0 293 362" fill="none" xmlns="http://www.w3.org/2000/svg">
<path d="M189.639 36.0554L205.497 9.62364C207.301 6.61341 206.329 2.71405 203.319 0.910447C200.302 -0.899506 196.41 0.0721529 194.605 3.08875L177.872 30.9811C167.907 27.4375 157.238 25.4052 146.073 25.4052C134.909 25.4052 124.24 27.4375 114.275 30.9811L97.5413 3.08875C95.7372 0.0721529 91.838 -0.89316 88.8282 0.910447C85.8177 2.71405 84.8462 6.61341 86.6496 9.62364L102.507 36.0554C71.8527 51.9005 50.8125 83.845 50.8125 120.673C50.8125 124.185 53.6575 127.023 57.163 127.023H234.984C238.489 127.023 241.334 124.185 241.334 120.673C241.328 83.8509 220.294 51.9068 189.639 36.0554ZM63.755 114.322C67.0071 71.7528 102.685 38.113 146.073 38.113C189.461 38.113 225.14 71.7528 228.392 114.322H63.755Z" fill="#4B4B4B"/>
<path d="M190.384 72.1726H182.013C179.702 72.1726 177.828 74.0458 177.828 76.3574V84.7277C177.828 87.0393 179.702 88.9129 182.013 88.9129H190.389C192.701 88.9129 194.575 87.0393 194.575 84.7277V76.3574C194.575 74.0458 192.695 72.1726 190.384 72.1726Z" fill="#4B4B4B"/>
<path d="M110.128 72.1726H101.751C99.4394 72.1726 97.5659 74.0458 97.5659 76.3574V84.7277C97.5659 87.0393 99.4394 88.9129 101.751 88.9129H110.128C112.44 88.9129 114.313 87.0393 114.313 84.7277V76.3574C114.313 74.0458 112.44 72.1726 110.128 72.1726Z" fill="#4B4B4B"/>
<path d="M234.976 133.374H57.1559C53.6504 133.374 50.8047 136.213 50.8047 139.725V267.825C50.8047 284.737 64.5798 298.493 81.5043 298.493H88.909V336.636C88.909 350.62 100.302 362 114.312 362C128.322 362 139.715 350.62 139.715 336.636V298.493H152.417V336.636C152.417 350.62 163.81 362 177.819 362C191.83 362 203.223 350.62 203.223 336.636V298.493H210.628C227.559 298.493 241.327 284.737 241.327 267.825V139.725C241.327 136.213 238.488 133.374 234.976 133.374ZM228.626 267.825C228.626 277.733 220.554 285.791 210.628 285.791H196.872C193.366 285.791 190.521 288.63 190.521 292.142V336.636C190.521 343.621 184.824 349.299 177.819 349.299C170.814 349.299 165.118 343.615 165.118 336.636V292.142C165.118 288.63 162.273 285.791 158.767 285.791H133.365C129.859 285.791 127.014 288.63 127.014 292.142V336.636C127.014 343.621 121.317 349.299 114.312 349.299C107.307 349.299 101.611 343.615 101.611 336.636V292.142C101.611 288.63 98.7657 285.791 95.2603 285.791H81.511C71.5849 285.791 63.5064 277.726 63.5064 267.825V146.075H228.626V267.825Z" fill="#4B4B4B"/>
<path d="M269.907 133.374C257.65 133.374 247.68 143.358 247.68 155.627V244.486C247.68 256.756 257.65 266.739 269.907 266.739C282.164 266.739 292.135 256.756 292.135 244.486V155.627C292.135 143.358 282.164 133.374 269.907 133.374ZM279.434 244.486C279.434 249.751 275.159 254.038 269.907 254.038C264.655 254.038 260.381 249.751 260.381 244.486V155.627C260.381 150.362 264.655 146.075 269.907 146.075C275.159 146.075 279.434 150.362 279.434 155.627V244.486Z" fill="#4B4B4B"/>
<path d="M22.2276 133.374C9.97061 133.374 0 143.358 0 155.627V244.486C0 256.756 9.97061 266.739 22.2276 266.739C34.4844 266.739 44.4551 256.756 44.4551 244.486V155.627C44.4551 143.358 34.4844 133.374 22.2276 133.374ZM31.7537 244.486C31.7537 249.751 27.4796 254.038 22.2276 254.038C16.9755 254.038 12.7014 249.751 12.7014 244.486V155.627C12.7014 150.362 16.9755 146.075 22.2276 146.075C27.4796 146.075 31.7537 150.362 31.7537 155.627V244.486Z" fill="#4B4B4B"/>
</svg>
