<svg width="49" height="49" viewBox="0 0 49 49" fill="none" xmlns="http://www.w3.org/2000/svg">
<g clip-path="url(#clip0)">
<path d="M30.3975 4.88021L32.544 1.30241C32.7881 0.894946 32.6566 0.36713 32.2491 0.122994C31.8408 -0.122001 31.3139 0.00952257 31.0697 0.417849L28.8046 4.19336C27.4558 3.71369 26.0116 3.4386 24.5004 3.4386C22.9892 3.4386 21.545 3.71369 20.1962 4.19336L17.9311 0.417849C17.6869 0.00952257 17.1591 -0.121142 16.7517 0.122994C16.3442 0.36713 16.2127 0.894946 16.4568 1.30241L18.6033 4.88021C14.4539 7.025 11.6059 11.349 11.6059 16.334C11.6059 16.8094 11.991 17.1936 12.4655 17.1936H36.5353C37.0098 17.1936 37.3949 16.8094 37.3949 16.334C37.3941 11.3498 34.5469 7.02586 30.3975 4.88021ZM13.3578 15.4743C13.798 9.71221 18.6274 5.15873 24.5004 5.15873C30.3734 5.15873 35.2029 9.71221 35.643 15.4743H13.3578Z" fill="white"/>
<path d="M30.4981 9.76904H29.3651C29.0522 9.76904 28.7986 10.0226 28.7986 10.3355V11.4685C28.7986 11.7814 29.0522 12.035 29.3651 12.035H30.4989C30.8118 12.035 31.0654 11.7814 31.0654 11.4685V10.3355C31.0654 10.0226 30.811 9.76904 30.4981 9.76904Z" fill="white"/>
<path d="M19.6349 9.76904H18.501C18.1881 9.76904 17.9345 10.0226 17.9345 10.3355V11.4685C17.9345 11.7814 18.1881 12.035 18.501 12.035H19.6349C19.9478 12.035 20.2014 11.7814 20.2014 11.4685V10.3355C20.2014 10.0226 19.9478 9.76904 19.6349 9.76904Z" fill="white"/>
<path d="M36.5344 18.0532H12.4647C11.9902 18.0532 11.605 18.4375 11.605 18.9129V36.2525C11.605 38.5417 13.4696 40.4037 15.7605 40.4037H16.7628V45.5667C16.7628 47.4596 18.305 49 20.2014 49C22.0977 49 23.6399 47.4596 23.6399 45.5667V40.4037H25.3592V45.5667C25.3592 47.4596 26.9014 49 28.7977 49C30.6941 49 32.2363 47.4596 32.2363 45.5667V40.4037H33.2386C35.5304 40.4037 37.3941 38.5417 37.3941 36.2525V18.9129C37.3941 18.4375 37.0098 18.0532 36.5344 18.0532ZM35.6748 36.2525C35.6748 37.5936 34.5822 38.6844 33.2386 38.6844H31.3766C30.9021 38.6844 30.517 39.0687 30.517 39.5441V45.5667C30.517 46.5123 29.7459 47.2808 28.7977 47.2808C27.8495 47.2808 27.0785 46.5114 27.0785 45.5667V39.5441C27.0785 39.0687 26.6933 38.6844 26.2188 38.6844H22.7803C22.3058 38.6844 21.9207 39.0687 21.9207 39.5441V45.5667C21.9207 46.5123 21.1496 47.2808 20.2014 47.2808C19.2532 47.2808 18.4821 46.5114 18.4821 45.5667V39.5441C18.4821 39.0687 18.097 38.6844 17.6225 38.6844H15.7614C14.4178 38.6844 13.3243 37.5927 13.3243 36.2525V19.7725H35.6748V36.2525Z" fill="white"/>
<path d="M41.2624 18.0532C39.6033 18.0532 38.2537 19.4046 38.2537 21.0654V33.0934C38.2537 34.7542 39.6033 36.1055 41.2624 36.1055C42.9215 36.1055 44.2711 34.7542 44.2711 33.0934V21.0654C44.2711 19.4046 42.9215 18.0532 41.2624 18.0532ZM42.5519 33.0934C42.5519 33.806 41.9733 34.3863 41.2624 34.3863C40.5515 34.3863 39.973 33.806 39.973 33.0934V21.0654C39.973 20.3527 40.5515 19.7725 41.2624 19.7725C41.9733 19.7725 42.5519 20.3527 42.5519 21.0654V33.0934Z" fill="white"/>
<path d="M7.73669 18.0532C6.07759 18.0532 4.72797 19.4046 4.72797 21.0654V33.0934C4.72797 34.7542 6.07759 36.1055 7.73669 36.1055C9.39578 36.1055 10.7454 34.7542 10.7454 33.0934V21.0654C10.7454 19.4046 9.39578 18.0532 7.73669 18.0532ZM9.02614 33.0934C9.02614 33.806 8.4476 34.3863 7.73669 34.3863C7.02577 34.3863 6.44723 33.806 6.44723 33.0934V21.0654C6.44723 20.3527 7.02577 19.7725 7.73669 19.7725C8.4476 19.7725 9.02614 20.3527 9.02614 21.0654V33.0934Z" fill="white"/>
</g>
<defs>
<clipPath id="clip0">
<rect width="49" height="49" fill="white"/>
</clipPath>
</defs>
</svg>
