<svg width="385" height="362" viewBox="0 0 385 362" fill="none" xmlns="http://www.w3.org/2000/svg">
<path d="M363.266 0H21.7339C15.9716 0.00675073 10.4472 2.43596 6.37274 6.75465C2.29823 11.0733 0.00636904 16.9288 0 23.0364V279.727C0.00636904 285.835 2.29823 291.69 6.37274 296.009C10.4472 300.328 15.9716 302.757 21.7339 302.764H146.626L138.344 329.091H124.194C122.547 329.091 120.967 329.784 119.803 331.019C118.638 332.253 117.984 333.927 117.984 335.673V348.836H74.5161C72.8692 348.836 71.2898 349.53 70.1252 350.764C68.9607 351.998 68.3064 353.673 68.3064 355.418C68.3064 357.164 68.9607 358.838 70.1252 360.072C71.2898 361.307 72.8692 362 74.5161 362H310.484C312.131 362 313.71 361.307 314.875 360.072C316.039 358.838 316.694 357.164 316.694 355.418C316.694 353.673 316.039 351.998 314.875 350.764C313.71 349.53 312.131 348.836 310.484 348.836H267.016V335.673C267.016 333.927 266.362 332.253 265.197 331.019C264.033 329.784 262.453 329.091 260.806 329.091H246.656L238.374 302.764H363.266C369.028 302.757 374.553 300.328 378.627 296.009C382.702 291.69 384.994 285.835 385 279.727V23.0364C384.994 16.9288 382.702 11.0733 378.627 6.75465C374.553 2.43596 369.028 0.00675073 363.266 0ZM254.597 342.255V348.836H130.403V342.255H254.597ZM151.439 329.091L159.721 302.764H225.279L233.561 329.091H151.439ZM372.581 279.727C372.579 282.345 371.597 284.855 369.85 286.706C368.104 288.557 365.736 289.598 363.266 289.6H21.7339C19.2641 289.598 16.8961 288.557 15.1498 286.706C13.4034 284.855 12.4214 282.345 12.4194 279.727V250.109H372.581V279.727ZM372.581 236.945H12.4194V23.0364C12.4214 20.4186 13.4034 17.9087 15.1498 16.0577C16.8961 14.2067 19.2641 13.1658 21.7339 13.1636H363.266C365.736 13.1658 368.104 14.2067 369.85 16.0577C371.597 17.9087 372.579 20.4186 372.581 23.0364V236.945Z" fill="#4B4B4B"/>
</svg>
