<svg width="50" height="47" viewBox="0 0 50 47" fill="none" xmlns="http://www.w3.org/2000/svg">
<path d="M47.1774 0H2.82258C2.07424 0.000876476 1.35679 0.316271 0.827628 0.876985C0.298471 1.4377 0.000827148 2.19794 0 2.99091V36.3182C0.000827148 37.1112 0.298471 37.8714 0.827628 38.4321C1.35679 38.9928 2.07424 39.3082 2.82258 39.3091H19.0423L17.9667 42.7273H16.129C15.9151 42.7273 15.71 42.8173 15.5588 42.9776C15.4075 43.1378 15.3226 43.3552 15.3226 43.5818V45.2909H9.67742C9.46354 45.2909 9.25841 45.3809 9.10717 45.5412C8.95593 45.7015 8.87097 45.9188 8.87097 46.1455C8.87097 46.3721 8.95593 46.5895 9.10717 46.7497C9.25841 46.91 9.46354 47 9.67742 47H40.3226C40.5365 47 40.7416 46.91 40.8928 46.7497C41.0441 46.5895 41.129 46.3721 41.129 46.1455C41.129 45.9188 41.0441 45.7015 40.8928 45.5412C40.7416 45.3809 40.5365 45.2909 40.3226 45.2909H34.6774V43.5818C34.6774 43.3552 34.5925 43.1378 34.4412 42.9776C34.29 42.8173 34.0849 42.7273 33.871 42.7273H32.0333L30.9577 39.3091H47.1774C47.9258 39.3082 48.6432 38.9928 49.1724 38.4321C49.7015 37.8714 49.9992 37.1112 50 36.3182V2.99091C49.9992 2.19794 49.7015 1.4377 49.1724 0.876985C48.6432 0.316271 47.9258 0.000876476 47.1774 0ZM33.0645 44.4364V45.2909H16.9355V44.4364H33.0645ZM19.6673 42.7273L20.7429 39.3091H29.2571L30.3327 42.7273H19.6673ZM48.3871 36.3182C48.3868 36.6581 48.2593 36.9839 48.0325 37.2243C47.8057 37.4646 47.4982 37.5997 47.1774 37.6H2.82258C2.50184 37.5997 2.1943 37.4646 1.9675 37.2243C1.7407 36.9839 1.61317 36.6581 1.6129 36.3182V32.4727H48.3871V36.3182ZM48.3871 30.7636H1.6129V2.99091C1.61317 2.65104 1.7407 2.32517 1.9675 2.08484C2.1943 1.84451 2.50184 1.70937 2.82258 1.70909H47.1774C47.4982 1.70937 47.8057 1.84451 48.0325 2.08484C48.2593 2.32517 48.3868 2.65104 48.3871 2.99091V30.7636Z" fill="white"/>
</svg>
