<svg width="362" height="362" viewBox="0 0 362 362" fill="none" xmlns="http://www.w3.org/2000/svg">
<path d="M238.317 212.684L185.772 136.787C185.235 136.01 184.517 135.374 183.68 134.936C182.843 134.497 181.913 134.268 180.968 134.268C180.023 134.268 179.092 134.497 178.255 134.936C177.418 135.374 176.7 136.01 176.163 136.787L123.618 212.684C123.093 213.434 122.753 214.297 122.624 215.203C122.495 216.109 122.581 217.033 122.875 217.899L137.83 262.751H134.258C132.708 262.751 131.223 263.367 130.127 264.462C129.032 265.558 128.416 267.043 128.416 268.593V286.103C128.416 287.652 129.032 289.138 130.127 290.233C131.223 291.329 132.708 291.944 134.258 291.944H140.099V356.159C140.099 356.926 140.25 357.685 140.543 358.394C140.837 359.103 141.267 359.747 141.81 360.289C142.352 360.831 142.996 361.262 143.705 361.555C144.413 361.849 145.173 362 145.94 362H215.996C217.545 362 219.03 361.384 220.126 360.289C221.221 359.194 221.837 357.708 221.837 356.159V291.944H227.678C229.227 291.944 230.713 291.329 231.808 290.233C232.904 289.138 233.519 287.652 233.519 286.103V268.567C233.519 267.799 233.368 267.04 233.074 266.331C232.781 265.622 232.351 264.979 231.808 264.436C231.266 263.894 230.622 263.464 229.913 263.17C229.205 262.876 228.445 262.725 227.678 262.725H224.105L239.06 217.873C239.35 217.01 239.434 216.091 239.305 215.19C239.176 214.289 238.838 213.431 238.317 212.684V212.684ZM180.948 204.326C182.103 204.326 183.233 204.669 184.193 205.311C185.154 205.952 185.903 206.865 186.345 207.932C186.787 208.999 186.903 210.174 186.677 211.307C186.452 212.44 185.895 213.481 185.079 214.298C184.262 215.115 183.221 215.671 182.088 215.896C180.955 216.122 179.78 216.006 178.713 215.564C177.645 215.122 176.733 214.373 176.091 213.413C175.45 212.452 175.107 211.323 175.107 210.167C175.107 209.398 175.259 208.636 175.554 207.926C175.849 207.216 176.282 206.57 176.827 206.028C177.372 205.485 178.019 205.055 178.731 204.763C179.443 204.471 180.205 204.323 180.974 204.326H180.948ZM210.141 350.265H151.768V291.892H210.141V350.265ZM221.876 280.21H140.151V274.369H221.876V280.21ZM211.823 262.699H150.191L134.922 216.921L175.172 158.796V192.696C175.177 193.024 175.207 193.351 175.263 193.674C171.354 195.033 168.053 197.732 165.945 201.294C163.837 204.855 163.058 209.048 163.747 213.129C164.436 217.21 166.549 220.915 169.709 223.586C172.87 226.258 176.875 227.724 181.013 227.724C185.152 227.724 189.157 226.258 192.317 223.586C195.478 220.915 197.59 217.21 198.28 213.129C198.969 209.048 198.19 204.855 196.082 201.294C193.974 197.732 190.672 195.033 186.763 193.674C186.82 193.351 186.85 193.024 186.855 192.696V158.796L227.104 216.921L211.823 262.699Z" fill="#4B4B4B"/>
<path d="M356.106 64.2143H332.754C331.205 64.2143 329.719 64.8297 328.624 65.9252C327.528 67.0206 326.913 68.5064 326.913 70.0555V75.9489C326.67 75.9342 326.426 75.9342 326.183 75.9489H198.484V70.1077C198.484 69.3406 198.333 68.5811 198.04 67.8724C197.746 67.1637 197.316 66.5197 196.773 65.9773C196.231 65.4349 195.587 65.0047 194.878 64.7111C194.17 64.4176 193.41 64.2665 192.643 64.2665H186.802V35.0213H192.643C194.192 35.0213 195.678 34.4058 196.773 33.3104C197.869 32.215 198.484 30.7292 198.484 29.18V5.84122C198.484 4.29203 197.869 2.80629 196.773 1.71085C195.678 0.615411 194.192 0 192.643 0H169.291C167.742 0 166.256 0.615411 165.161 1.71085C164.065 2.80629 163.45 4.29203 163.45 5.84122V29.1931C163.45 30.7423 164.065 32.228 165.161 33.3234C166.256 34.4189 167.742 35.0343 169.291 35.0343H175.132V64.2274H169.291C167.742 64.2274 166.256 64.8428 165.161 65.9382C164.065 67.0337 163.45 68.5194 163.45 70.0686V75.9098H35.0213V70.0686C35.0213 68.5194 34.4058 67.0337 33.3104 65.9382C32.215 64.8428 30.7292 64.2274 29.18 64.2274H5.84122C4.29429 64.2274 2.81052 64.841 1.71545 65.9336C0.620386 67.0262 0.00345297 68.5086 0 70.0555V93.4074C0 94.9566 0.615411 96.4423 1.71085 97.5378C2.80629 98.6332 4.29203 99.2486 5.84122 99.2486H29.1931C30.7423 99.2486 32.228 98.6332 33.3234 97.5378C34.4189 96.4423 35.0343 94.9566 35.0343 93.4074V87.5662H131.519C123.811 92.6635 116.922 98.9018 111.088 106.068C96.2566 123.844 87.9481 146.157 87.5401 169.304H81.6989C80.1497 169.304 78.6639 169.92 77.5685 171.015C76.4731 172.11 75.8576 173.596 75.8576 175.145V198.497C75.8576 200.046 76.4731 201.532 77.5685 202.628C78.6639 203.723 80.1497 204.338 81.6989 204.338H105.051C106.6 204.338 108.086 203.723 109.181 202.628C110.277 201.532 110.892 200.046 110.892 198.497V175.132C110.892 174.365 110.741 173.606 110.447 172.897C110.154 172.188 109.723 171.544 109.181 171.002C108.639 170.46 107.995 170.029 107.286 169.736C106.577 169.442 105.818 169.291 105.051 169.291H99.2095C99.2095 126.003 132.51 91.8558 163.424 87.9443V93.4074C163.424 94.9566 164.039 96.4423 165.135 97.5378C166.23 98.6332 167.716 99.2486 169.265 99.2486H192.617C194.166 99.2486 195.652 98.6332 196.747 97.5378C197.843 96.4423 198.458 94.9566 198.458 93.4074V87.9313C207.108 89.3482 215.387 92.4795 222.81 97.1412C230.232 101.803 236.648 107.901 241.681 115.077C253.693 130.771 260.91 149.603 262.464 169.304H256.857C256.09 169.304 255.331 169.455 254.622 169.749C253.913 170.042 253.269 170.473 252.727 171.015C252.185 171.557 251.754 172.201 251.461 172.91C251.167 173.619 251.016 174.378 251.016 175.145V198.497C251.016 199.264 251.167 200.024 251.461 200.733C251.754 201.441 252.185 202.085 252.727 202.628C253.269 203.17 253.913 203.6 254.622 203.894C255.331 204.187 256.09 204.338 256.857 204.338H280.209C281.758 204.338 283.244 203.723 284.339 202.628C285.435 201.532 286.05 200.046 286.05 198.497V175.132C286.05 174.365 285.899 173.606 285.606 172.897C285.312 172.188 284.882 171.544 284.339 171.002C283.797 170.46 283.153 170.029 282.444 169.736C281.736 169.442 280.976 169.291 280.209 169.291H274.198C272.707 146.975 264.61 125.607 250.938 107.906C244.928 100.017 237.686 93.149 229.49 87.5662H326.196C326.439 87.5809 326.683 87.5809 326.926 87.5662V93.4596C326.926 95.0087 327.541 96.4945 328.637 97.5899C329.732 98.6854 331.218 99.3008 332.767 99.3008H356.119C357.668 99.3008 359.154 98.6854 360.249 97.5899C361.345 96.4945 361.96 95.0087 361.96 93.4596V70.0555C361.96 69.2874 361.809 68.5267 361.514 67.8172C361.22 67.1076 360.788 66.4631 360.245 65.9206C359.701 65.378 359.055 64.948 358.345 64.6552C357.635 64.3624 356.874 64.2126 356.106 64.2143V64.2143ZM23.3519 87.5662H11.7346V75.8316H23.4692L23.3519 87.5662ZM99.2486 192.643H87.514V180.908H99.2486V192.643ZM175.132 11.7346H186.867V23.4692H175.132V11.7346ZM186.867 87.6314H175.132V75.8968H186.867V87.6314ZM262.764 181.039H274.498V192.773H262.764V181.039ZM350.33 87.6314H338.595V75.8968H350.33V87.6314Z" fill="#4B4B4B"/>
</svg>
