<svg width="21" height="12" viewBox="0 0 21 12" fill="none" xmlns="http://www.w3.org/2000/svg">
<path d="M2.84241 7.78393C2.78993 7.78395 2.73818 7.77152 2.69143 7.74767L0.178807 6.45345C0.101339 6.41358 0.0428037 6.34467 0.0159948 6.26177C-0.0108141 6.17887 -0.00371617 6.08873 0.0357372 6.01105L2.98746 0.180789C3.00705 0.142076 3.0341 0.107612 3.06704 0.0793736C3.09999 0.0511354 3.13818 0.0296784 3.17943 0.0162333C3.22069 0.00278822 3.26419 -0.00238038 3.30745 0.00102378C3.3507 0.00442793 3.39286 0.0163377 3.4315 0.0360705L5.82183 1.25579C5.89857 1.29484 5.95699 1.36237 5.98459 1.44394C6.01218 1.5255 6.00677 1.61463 5.96951 1.69225L3.13976 7.5957C3.12063 7.6354 3.09379 7.67089 3.06079 7.7001C3.02779 7.7293 2.9893 7.75164 2.94757 7.7658C2.9137 7.77736 2.8782 7.78348 2.84241 7.78393ZM0.771855 6.01698L2.69176 7.00595L5.23603 1.69852L3.42623 0.775485L0.771855 6.01698Z" fill="#29B85D"/>
<path d="M6.25763 3.19646C6.20092 3.19645 6.14517 3.1818 6.09577 3.15394L5.13779 2.61429C5.10007 2.59306 5.06689 2.5646 5.04016 2.53055C5.01343 2.49649 4.99367 2.4575 4.98201 2.41581C4.97034 2.37412 4.96701 2.33054 4.97219 2.28756C4.97737 2.24457 4.99096 2.20303 5.0122 2.16531C5.03343 2.12758 5.06189 2.0944 5.09594 2.06767C5.13 2.04094 5.16899 2.02118 5.21068 2.00952C5.25237 1.99786 5.29595 1.99452 5.33893 1.9997C5.38192 2.00488 5.42346 2.01847 5.46118 2.03971L6.25235 2.48507C6.56124 2.29783 7.22978 1.89466 7.65767 1.65302C8.35621 1.25744 8.84805 1.31183 9.41275 1.84686C9.47457 1.90735 9.51014 1.98972 9.51179 2.0762C9.51344 2.16268 9.48103 2.24634 9.42156 2.30915C9.36208 2.37195 9.28031 2.40886 9.19387 2.41193C9.10742 2.41499 9.02324 2.38396 8.95947 2.32552C8.60872 1.99323 8.42609 1.97608 7.98205 2.22662C7.43219 2.53749 6.44026 3.14207 6.43004 3.14965C6.37797 3.18083 6.31831 3.19703 6.25763 3.19646Z" fill="#29B85D"/>
<path d="M14.9298 8.93212C14.6896 8.93828 14.4527 8.87572 14.2468 8.7518C13.9435 8.54939 12.6091 7.24066 12.3447 6.98056C12.2864 6.91852 12.2544 6.83634 12.2553 6.75122C12.2563 6.6661 12.2901 6.58465 12.3497 6.5239C12.4093 6.46316 12.4902 6.42784 12.5753 6.42534C12.6603 6.42283 12.7431 6.45334 12.8062 6.51048C13.3996 7.09627 14.4176 8.0737 14.6117 8.20325C14.7369 8.26108 14.8753 8.28412 15.0124 8.26997C15.1495 8.25581 15.2803 8.20498 15.391 8.12282C15.4429 8.07786 15.4842 8.02208 15.5121 7.9594C15.54 7.89672 15.5538 7.82868 15.5526 7.76008C15.5513 7.69148 15.535 7.62399 15.5048 7.56238C15.4746 7.50077 15.4313 7.44653 15.3778 7.40351C15.0409 7.02441 13.6412 5.67777 13.334 5.3824C12.2619 4.98944 11.2223 4.51306 10.2247 3.95764L9.87789 4.18444C9.80002 4.54587 9.5923 4.86619 9.29407 5.08472C9.18939 5.16718 9.06787 5.22563 8.9381 5.25594C8.80834 5.28625 8.67349 5.28767 8.54312 5.2601C8.38491 5.24038 8.23256 5.18786 8.09582 5.1059C7.95907 5.02393 7.84094 4.91432 7.74898 4.78408C7.57368 4.40953 7.554 3.98076 7.69426 3.59172C7.97545 2.46628 8.4317 2.17652 9.06298 1.77566L9.20177 1.68698C9.89734 1.2403 10.4943 1.00229 11.1497 1.29733C11.5571 1.48095 13.0033 2.04103 13.4141 2.19992L14.7907 1.74862C14.8732 1.72355 14.9622 1.73176 15.0387 1.77152C15.1152 1.81127 15.173 1.8794 15.1999 1.96131C15.2267 2.04321 15.2204 2.13238 15.1824 2.2097C15.1443 2.28702 15.0774 2.34635 14.9961 2.37497L13.5077 2.86286C13.4356 2.88637 13.3577 2.88451 13.2868 2.85758C13.2087 2.82725 11.3699 2.11982 10.8804 1.89895C10.5866 1.76709 10.2764 1.7806 9.55911 2.24146L9.41736 2.33211C8.84146 2.6977 8.55235 2.88165 8.33478 3.7516C8.22335 4.19729 8.27478 4.37795 8.31533 4.44388C8.36741 4.53091 8.48807 4.56618 8.68025 4.61431C8.72151 4.62126 8.76379 4.61895 8.80405 4.60754C8.8443 4.59614 8.88151 4.57593 8.91299 4.54838C9.00597 4.47833 9.08363 4.38998 9.14117 4.28878C9.19872 4.18758 9.23493 4.07567 9.24759 3.95994C9.2519 3.91024 9.26742 3.86217 9.29301 3.81934C9.31859 3.77652 9.35356 3.74005 9.39527 3.7127L10.0299 3.29767C10.0799 3.26514 10.1378 3.24679 10.1974 3.24459C10.257 3.24238 10.3161 3.2564 10.3684 3.28514C10.3908 3.29734 12.6134 4.51277 13.5868 4.76859C13.6409 4.78304 13.6906 4.8108 13.7312 4.84935C13.8024 4.91759 15.4784 6.52235 15.872 6.96639C15.9811 7.07196 16.0675 7.19859 16.1262 7.33858C16.1849 7.47858 16.2145 7.62904 16.2132 7.78082C16.212 7.93261 16.1799 8.08256 16.119 8.22159C16.0581 8.36062 15.9696 8.48582 15.8588 8.58961C15.6052 8.81972 15.2722 8.9425 14.9298 8.93212Z" fill="#29B85D"/>
<path d="M15.6254 7.51427C15.5499 7.51422 15.4766 7.48823 15.418 7.44064C15.3593 7.39306 15.3188 7.32677 15.3031 7.25286C15.2875 7.17896 15.2977 7.10193 15.3321 7.03466C15.3664 6.96739 15.4229 6.91396 15.4919 6.88332L16.6483 6.37103C16.6881 6.35226 16.7312 6.34163 16.7751 6.33977C16.819 6.3379 16.8629 6.34484 16.9041 6.36017C16.9453 6.3755 16.983 6.39892 17.015 6.42904C17.047 6.45916 17.0727 6.49539 17.0905 6.53558C17.1083 6.57577 17.1179 6.61911 17.1187 6.66306C17.1195 6.70701 17.1115 6.75068 17.0952 6.7915C17.0789 6.83232 17.0546 6.86946 17.0237 6.90074C16.9928 6.93202 16.956 6.95681 16.9153 6.97364L15.7586 7.48724C15.7166 7.5054 15.6712 7.51461 15.6254 7.51427Z" fill="#29B85D"/>
<path d="M17.1375 7.78393C17.0718 7.7839 17.0076 7.76424 16.9532 7.72747C16.8987 7.6907 16.8565 7.6385 16.8319 7.57757L14.3437 1.40447C14.3271 1.3633 14.3189 1.3192 14.3198 1.2748C14.3206 1.23041 14.3304 1.18664 14.3486 1.14613C14.3667 1.10561 14.3929 1.06919 14.4255 1.03903C14.4581 1.00887 14.4964 0.985614 14.5382 0.970642L17.1972 0.0192597C17.2776 -0.00951317 17.3661 -0.00593504 17.444 0.0292401C17.5218 0.0644152 17.583 0.12844 17.6145 0.207822L20.054 6.33082C20.0699 6.3713 20.0777 6.41454 20.0769 6.45804C20.0761 6.50155 20.0666 6.54446 20.0491 6.5843C20.0316 6.62414 20.0064 6.66012 19.9749 6.69017C19.9435 6.72021 19.9064 6.74373 19.8657 6.75937L17.2555 7.76086C17.2179 7.77572 17.1779 7.78354 17.1375 7.78393ZM15.0825 1.47567L17.3211 7.02935L19.3169 6.26456L17.1197 0.747136L15.0825 1.47567ZM13.4447 9.93196C13.173 9.94011 12.9076 9.84879 12.6984 9.67516C12.257 9.28287 11.1223 8.14886 11.0742 8.10073C11.0141 8.03856 10.9809 7.95529 10.9817 7.86885C10.9824 7.78242 11.0171 7.69974 11.0782 7.63862C11.1393 7.57749 11.222 7.54283 11.3084 7.54207C11.3949 7.54132 11.4782 7.57455 11.5403 7.6346C11.5519 7.64614 12.7096 8.80322 13.1362 9.18397C13.2246 9.23784 13.3247 9.26957 13.428 9.27645C13.5313 9.28334 13.6348 9.26519 13.7296 9.22353C13.8844 9.17073 14.0217 9.07643 14.1265 8.95093C14.2314 8.82542 14.2998 8.67352 14.3243 8.51181C14.3316 8.46915 14.3473 8.42835 14.3704 8.39175C14.3936 8.35515 14.4237 8.32347 14.459 8.2985C14.4944 8.27354 14.5344 8.25579 14.5766 8.24626C14.6188 8.23673 14.6625 8.23562 14.7052 8.24298C14.7478 8.25034 14.7886 8.26603 14.8252 8.28915C14.8618 8.31228 14.8935 8.34239 14.9185 8.37776C14.9434 8.41313 14.9612 8.45307 14.9707 8.4953C14.9802 8.53753 14.9814 8.58123 14.974 8.62389C14.9292 8.90083 14.8102 9.16046 14.6297 9.37522C14.4492 9.58998 14.2139 9.75183 13.9488 9.84361C13.7869 9.90107 13.6165 9.93093 13.4447 9.93196Z" fill="#29B85D"/>
<path d="M11.9105 10.731C11.6394 10.7426 11.3743 10.648 11.1718 10.4673L10.0009 9.29639L10.4673 8.82993L11.6382 10.0009C11.7107 10.0415 11.7909 10.0666 11.8736 10.0743C11.9564 10.082 12.0398 10.0723 12.1186 10.0457C12.2698 10.0086 12.4082 9.93148 12.5195 9.82252C12.6307 9.71355 12.7106 9.57669 12.7508 9.42627C12.763 9.38431 12.7834 9.34519 12.8109 9.31118C12.8383 9.27718 12.8723 9.24897 12.9107 9.2282C12.9491 9.20743 12.9913 9.19451 13.0348 9.1902C13.0783 9.18588 13.1222 9.19025 13.164 9.20305C13.2058 9.21586 13.2446 9.23684 13.2782 9.26478C13.3118 9.29273 13.3395 9.32707 13.3597 9.36581C13.3799 9.40456 13.3922 9.44694 13.3959 9.49048C13.3996 9.53402 13.3945 9.57786 13.3811 9.61945C13.2894 9.93892 13.0965 10.22 12.8314 10.4204C12.5663 10.6209 12.2432 10.7299 11.9109 10.731H11.9105Z" fill="#29B85D"/>
<path d="M10.6539 11.6115C10.3844 11.6173 10.1209 11.5319 9.90592 11.3692C9.42034 10.9806 9.01157 10.6615 9.01091 10.6612C8.97608 10.6348 8.94684 10.6017 8.9249 10.5639C8.90296 10.5261 8.88876 10.4844 8.88311 10.441C8.87746 10.3977 8.88048 10.3537 8.892 10.3115C8.90352 10.2694 8.9233 10.2299 8.9502 10.1955C8.9771 10.161 9.01058 10.1323 9.04869 10.1109C9.08679 10.0895 9.12877 10.0759 9.17218 10.0709C9.21559 10.0659 9.25957 10.0696 9.30155 10.0817C9.34353 10.0939 9.38267 10.1142 9.41671 10.1416C9.41671 10.1416 9.82845 10.463 10.318 10.8547C10.4223 10.9167 10.5409 10.9507 10.6623 10.9532C10.7836 10.9556 10.9035 10.9266 11.0103 10.8688C11.1057 10.8278 11.1865 10.7588 11.2419 10.6709C11.2973 10.5831 11.3248 10.4805 11.3208 10.3767C11.3181 10.2893 11.3503 10.2044 11.4102 10.1407C11.4701 10.0771 11.5528 10.0398 11.6402 10.0371C11.7274 10.0356 11.8116 10.0682 11.8751 10.1279C11.9385 10.1876 11.9761 10.2698 11.9798 10.3569C11.9875 10.5865 11.9277 10.8134 11.8077 11.0093C11.6877 11.2052 11.5127 11.3615 11.3046 11.4589C11.1023 11.5591 10.8797 11.6113 10.6539 11.6115Z" fill="#29B85D"/>
<path d="M8.18347 11.4589C8.07633 11.4585 7.97029 11.4373 7.87129 11.3963C7.60248 11.2644 7.38089 11.0528 7.23671 10.7904C7.00276 10.8358 6.76031 10.7993 6.55004 10.6872C6.37365 10.5716 6.22202 10.422 6.10396 10.2473C5.98591 10.0725 5.90379 9.87602 5.86238 9.66923C5.845 9.58503 5.86121 9.49737 5.90754 9.42495C6.17555 9.00695 6.57971 8.3572 6.64003 8.22171C6.69431 8.11362 6.77132 8.01854 6.86577 7.94298C6.96022 7.86742 7.06989 7.81316 7.18726 7.78393C7.34691 7.74209 7.5139 7.73648 7.676 7.76751C7.83811 7.79854 7.99122 7.86542 8.12414 7.96327C8.27144 8.06077 8.38972 8.19619 8.46653 8.35527C8.54334 8.51434 8.57584 8.69119 8.5606 8.86718C8.7174 8.87393 8.87093 8.91424 9.01082 8.98538C9.15072 9.05652 9.27373 9.15684 9.37155 9.27957C9.46656 9.42806 9.52721 9.59589 9.54905 9.77082C9.5709 9.94574 9.55339 10.1233 9.4978 10.2906C9.3249 10.7732 8.9699 11.1689 8.50884 11.393C8.40589 11.4365 8.29525 11.4589 8.18347 11.4589ZM7.79184 10.4301C7.89536 10.6051 8.08029 10.8563 8.25336 10.7841C8.5407 10.6345 8.76191 10.383 8.87377 10.079C8.89578 10.0117 8.9042 9.94071 8.89854 9.87014C8.89288 9.79957 8.87326 9.73083 8.8408 9.66791C8.79065 9.61879 8.73112 9.58028 8.66576 9.55468C8.6004 9.52908 8.53055 9.51691 8.46038 9.5189L7.79184 10.4301ZM6.54213 9.65538C6.59458 9.83855 6.70826 9.99819 6.8642 10.1077C6.91288 10.1326 6.96617 10.1474 7.02077 10.151C7.07538 10.1545 7.13013 10.1469 7.18165 10.1284L7.88547 8.9219C7.91344 8.84734 7.91524 8.76548 7.89056 8.68976C7.86588 8.61405 7.81619 8.54897 7.74965 8.50522C7.69903 8.46531 7.64061 8.43645 7.57815 8.42049C7.51569 8.40454 7.45059 8.40185 7.38703 8.41259C7.33091 8.42183 7.27969 8.45012 7.24198 8.49269C7.15495 8.68554 6.73629 9.35012 6.54213 9.65538Z" fill="#29B85D"/>
<path d="M5.66392 10.1703C5.58581 10.1705 5.50808 10.1594 5.43316 10.1373C4.86846 9.96756 4.64727 9.23638 4.62386 9.15364C4.61204 9.11167 4.60866 9.06776 4.61392 9.02448C4.61918 8.98119 4.63298 8.93937 4.65452 8.90146C4.93471 8.41474 5.24462 7.94574 5.58249 7.49713C5.75211 7.27647 5.99787 7.12695 6.27181 7.07776C6.54574 7.02857 6.82817 7.08324 7.06396 7.2311C7.37515 7.44702 7.60327 7.91678 7.22153 8.5306C7.1987 8.56739 7.16884 8.59933 7.13366 8.62459C7.09848 8.64985 7.05867 8.66793 7.0165 8.6778C6.97434 8.68767 6.93064 8.68914 6.8879 8.68213C6.84517 8.67511 6.80423 8.65975 6.76744 8.63691C6.73064 8.61407 6.6987 8.58421 6.67344 8.54903C6.64819 8.51385 6.6301 8.47404 6.62023 8.43188C6.61036 8.38971 6.60889 8.34601 6.61591 8.30328C6.62292 8.26054 6.63829 8.21961 6.66112 8.18281C6.74584 8.046 6.81936 7.86436 6.68782 7.77305C6.59169 7.72054 6.47988 7.70437 6.37281 7.72749C6.26574 7.75061 6.17056 7.81148 6.10467 7.89898C5.81507 8.28378 5.54709 8.68438 5.30196 9.09892C5.37415 9.27133 5.49711 9.46879 5.62271 9.50604C5.73381 9.53901 5.88644 9.42495 5.96918 9.3544C6.03536 9.29722 6.12155 9.26868 6.20878 9.27504C6.29601 9.28141 6.37714 9.32217 6.43432 9.38836C6.4915 9.45454 6.52004 9.54073 6.51368 9.62796C6.50731 9.71519 6.46655 9.79632 6.40037 9.8535C6.20216 10.046 5.93999 10.1588 5.66392 10.1703Z" fill="#29B85D"/>
<path d="M4.94033 9.39265C4.9041 9.3926 4.86813 9.38659 4.83386 9.37484C4.77814 9.35605 3.46414 8.89685 3.46414 7.86767C3.46411 7.8331 3.46945 7.79873 3.47997 7.7658C3.59924 7.43754 3.7626 7.12702 3.96555 6.84277C4.11657 6.6623 4.32517 6.53938 4.55621 6.49471C4.78726 6.45004 5.02664 6.48634 5.23405 6.59751C5.4293 6.68403 5.58502 6.84061 5.67046 7.03634C5.7559 7.23206 5.76486 7.4527 5.69557 7.65471C5.47998 8.34896 5.25878 9.14244 5.25647 9.15068C5.23711 9.21999 5.19561 9.28106 5.13828 9.32458C5.08096 9.36809 5.01098 9.39165 4.93901 9.39166L4.94033 9.39265ZM4.12609 7.91876C4.15905 8.22732 4.47486 8.46203 4.72804 8.60279C4.81408 8.30215 4.94165 7.8647 5.06692 7.46021C5.07842 7.43452 5.0843 7.40667 5.08417 7.37852C5.08404 7.35037 5.07791 7.32257 5.06617 7.29698C5.05444 7.27139 5.03738 7.2486 5.01613 7.23014C4.99489 7.21167 4.96994 7.19795 4.94297 7.1899C4.87486 7.15147 4.7969 7.1341 4.71892 7.13997C4.64094 7.14583 4.56645 7.17468 4.50486 7.22286C4.35202 7.43934 4.22491 7.67288 4.12609 7.91876Z" fill="#29B85D"/>
<path d="M4.06444 7.62866C3.99807 7.62859 3.93327 7.60848 3.87851 7.57098L3.01383 6.9776C2.94165 6.9282 2.89206 6.85215 2.87596 6.76619C2.85985 6.68023 2.87856 6.59139 2.92795 6.51921C2.97735 6.44704 3.0534 6.39745 3.13936 6.38134C3.22532 6.36524 3.31416 6.38394 3.38634 6.43334L4.25102 7.02672C4.30926 7.06646 4.35323 7.12384 4.37646 7.19041C4.39969 7.25699 4.40096 7.32926 4.38008 7.39661C4.3592 7.46396 4.31728 7.52285 4.26047 7.56461C4.20366 7.60638 4.13495 7.62883 4.06444 7.62866Z" fill="#29B85D"/>
</svg>
