<svg width="26" height="25" viewBox="0 0 26 25" fill="none" xmlns="http://www.w3.org/2000/svg">
<path fill-rule="evenodd" clip-rule="evenodd" d="M12.7424 0C5.83887 0 0.242432 5.59644 0.242432 12.5C0.242432 19.4036 5.83887 25 12.7424 25C19.646 25 25.2424 19.4036 25.2424 12.5C25.2424 5.59644 19.646 0 12.7424 0ZM9.99412 5.8736C10.7052 5.84124 10.9325 5.83332 12.743 5.83332H12.741C14.5521 5.83332 14.7785 5.84124 15.4896 5.8736C16.1993 5.9061 16.6841 6.01846 17.1091 6.18333C17.5479 6.35347 17.9188 6.58125 18.2896 6.95209C18.6605 7.32264 18.8882 7.69459 19.0591 8.13307C19.223 8.55696 19.3355 9.04141 19.3688 9.75114C19.4007 10.4623 19.4091 10.6895 19.4091 12.5001C19.4091 14.3106 19.4007 14.5373 19.3688 15.2484C19.3355 15.9579 19.223 16.4425 19.0591 16.8665C18.8882 17.3048 18.6605 17.6768 18.2896 18.0473C17.9192 18.4182 17.5478 18.6465 17.1095 18.8168C16.6853 18.9817 16.2003 19.094 15.4906 19.1265C14.7794 19.1589 14.5529 19.1668 12.7422 19.1668C10.9318 19.1668 10.7047 19.1589 9.99356 19.1265C9.28397 19.094 8.79939 18.9817 8.37521 18.8168C7.93702 18.6465 7.56507 18.4182 7.19465 18.0473C6.82395 17.6768 6.59617 17.3048 6.42575 16.8664C6.26103 16.4425 6.14866 15.958 6.11602 15.2483C6.0838 14.5372 6.07575 14.3106 6.07575 12.5001C6.07575 10.6895 6.08408 10.4621 6.11588 9.751C6.14783 9.04155 6.26033 8.55696 6.42561 8.13293C6.59645 7.69459 6.82423 7.32264 7.19506 6.95209C7.56562 6.58139 7.93757 6.35361 8.37605 6.18333C8.79994 6.01846 9.28439 5.9061 9.99412 5.8736Z" fill="#3D3D3D"/>
<path fill-rule="evenodd" clip-rule="evenodd" d="M12.145 7.03475C12.2611 7.03457 12.386 7.03462 12.5208 7.03468L12.743 7.03475C14.5231 7.03475 14.734 7.04114 15.437 7.07308C16.087 7.1028 16.4398 7.21142 16.6748 7.30267C16.9859 7.4235 17.2077 7.56795 17.4409 7.80128C17.6742 8.03462 17.8187 8.25684 17.9398 8.56796C18.031 8.80268 18.1398 9.15546 18.1694 9.80547C18.2013 10.5083 18.2082 10.7194 18.2082 12.4986C18.2082 14.2777 18.2013 14.4889 18.1694 15.1916C18.1396 15.8416 18.031 16.1944 17.9398 16.4292C17.8189 16.7403 17.6742 16.9618 17.4409 17.195C17.2075 17.4283 16.986 17.5728 16.6748 17.6936C16.44 17.7853 16.087 17.8936 15.437 17.9233C14.7342 17.9553 14.5231 17.9622 12.743 17.9622C10.9629 17.9622 10.7519 17.9553 10.0491 17.9233C9.39912 17.8933 9.04634 17.7847 8.8112 17.6935C8.50008 17.5726 8.27786 17.4282 8.04452 17.1949C7.81119 16.9615 7.66674 16.7398 7.54563 16.4286C7.45438 16.1939 7.34563 15.8411 7.31604 15.1911C7.2841 14.4883 7.27771 14.2772 7.27771 12.4969C7.27771 10.7166 7.2841 10.5066 7.31604 9.8038C7.34577 9.1538 7.45438 8.80102 7.54563 8.56601C7.66646 8.2549 7.81119 8.03267 8.04452 7.79934C8.27786 7.566 8.50008 7.42156 8.8112 7.30044C9.0462 7.20878 9.39912 7.10044 10.0491 7.07058C10.6641 7.0428 10.9025 7.03447 12.145 7.03308V7.03475ZM16.3016 8.14169C15.8599 8.14169 15.5016 8.49961 15.5016 8.94142C15.5016 9.38309 15.8599 9.74143 16.3016 9.74143C16.7433 9.74143 17.1016 9.38309 17.1016 8.94142C17.1016 8.49975 16.7433 8.14141 16.3016 8.14141V8.14169ZM9.31936 12.5001C9.31936 10.6094 10.8522 9.07651 12.7429 9.07644C14.6336 9.07644 16.1661 10.6094 16.1661 12.5001C16.1661 14.3908 14.6337 15.923 12.743 15.923C10.8523 15.923 9.31936 14.3908 9.31936 12.5001Z" fill="#3D3D3D"/>
<path d="M12.743 10.2778C13.9702 10.2778 14.9652 11.2727 14.9652 12.5001C14.9652 13.7273 13.9702 14.7223 12.743 14.7223C11.5156 14.7223 10.5208 13.7273 10.5208 12.5001C10.5208 11.2727 11.5156 10.2778 12.743 10.2778Z" fill="#3D3D3D"/>
</svg>
