<svg width="26" height="25" viewBox="0 0 26 25" fill="none" xmlns="http://www.w3.org/2000/svg">
<path fill-rule="evenodd" clip-rule="evenodd" d="M0.484863 12.5C0.484863 19.4036 6.0813 25 12.9849 25C19.8884 25 25.4849 19.4036 25.4849 12.5C25.4849 5.59644 19.8884 0 12.9849 0C6.0813 0 0.484863 5.59644 0.484863 12.5ZM10.6931 18.2292L10.9057 15.0428L10.9056 15.0427L16.7019 9.81198C16.9562 9.58621 16.6463 9.47611 16.3086 9.68089L9.15518 14.1939L6.06528 13.2295C5.398 13.0252 5.39321 12.5667 6.21509 12.237L18.2557 7.5942C18.8056 7.34453 19.3364 7.72628 19.1265 8.56797L17.076 18.2308C16.9328 18.9174 16.5179 19.0817 15.9431 18.7645L12.8195 16.4567L11.3181 17.9167C11.3133 17.9213 11.3086 17.9259 11.3039 17.9304C11.136 18.0939 10.9971 18.2292 10.6931 18.2292Z" fill="#DBDBDB"/>
</svg>
