<svg width="26" height="25" viewBox="0 0 26 25" fill="none" xmlns="http://www.w3.org/2000/svg">
<path fill-rule="evenodd" clip-rule="evenodd" d="M0.727051 12.5C0.727051 19.4036 6.32349 25 13.2271 25C20.1306 25 25.7271 19.4036 25.7271 12.5C25.7271 5.59644 20.1306 0 13.2271 0C6.32349 0 0.727051 5.59644 0.727051 12.5ZM21.072 12.0216C21.0703 16.1189 17.7372 19.4528 13.6391 19.4544H13.636C12.392 19.454 11.1697 19.1419 10.084 18.5497L6.14375 19.5833L7.19824 15.7317C6.54778 14.6044 6.20551 13.3258 6.20607 12.0157C6.2077 7.91754 9.5421 4.58332 13.639 4.58332C15.6274 4.58418 17.4937 5.35825 18.897 6.76323C20.3003 8.16813 21.0727 10.0356 21.072 12.0216Z" fill="#DBDBDB"/>
<path fill-rule="evenodd" clip-rule="evenodd" d="M7.92829 17.8174L10.2665 17.2041L10.4921 17.338C11.4406 17.9008 12.5279 18.1987 13.6365 18.1991H13.639C17.0441 18.1991 19.8155 15.4277 19.8169 12.0212C19.8175 10.3704 19.1755 8.81825 18.0091 7.65049C16.8427 6.48273 15.2916 5.83932 13.6414 5.83875C10.2337 5.83875 7.46229 8.60993 7.46094 12.0162C7.46046 13.1835 7.78708 14.3204 8.4055 15.304L8.55239 15.5377L7.92829 17.8174ZM17.1293 13.6219C17.2588 13.6845 17.3463 13.7268 17.3836 13.7891C17.43 13.8665 17.43 14.2384 17.2754 14.6723C17.1205 15.1061 16.3786 15.502 16.0217 15.5553C15.7018 15.6032 15.2968 15.6231 14.852 15.4818C14.5822 15.3962 14.2363 15.2819 13.7932 15.0905C12.0521 14.3387 10.8754 12.6512 10.6531 12.3323C10.6375 12.3099 10.6266 12.2943 10.6205 12.2862L10.619 12.2842C10.5207 12.153 9.86215 11.2744 9.86215 10.365C9.86215 9.50947 10.2824 9.06107 10.4758 8.85467C10.4891 8.84052 10.5012 8.82752 10.5122 8.8156C10.6824 8.62966 10.8836 8.58317 11.0074 8.58317C11.1312 8.58317 11.2552 8.58432 11.3634 8.58975C11.3767 8.59042 11.3906 8.59034 11.405 8.59026C11.5132 8.58962 11.6481 8.58883 11.7812 8.90857C11.8325 9.03161 11.9074 9.21403 11.9864 9.40643C12.1462 9.7955 12.3228 10.2254 12.3539 10.2876C12.4003 10.3805 12.4312 10.489 12.3693 10.613C12.36 10.6316 12.3515 10.6491 12.3432 10.6659C12.2967 10.7608 12.2625 10.8306 12.1836 10.9228C12.1526 10.959 12.1205 10.9981 12.0884 11.0371C12.0246 11.1149 11.9607 11.1927 11.905 11.2482C11.8121 11.3408 11.7153 11.4412 11.8236 11.6272C11.9319 11.8131 12.3047 12.4213 12.8568 12.9138C13.4503 13.4431 13.9661 13.6669 14.2276 13.7803C14.2787 13.8025 14.32 13.8204 14.3504 13.8356C14.536 13.9286 14.6443 13.913 14.7527 13.7891C14.861 13.6652 15.217 13.2468 15.3408 13.0609C15.4645 12.875 15.5884 12.906 15.7586 12.9679C15.9289 13.03 16.842 13.4792 17.0277 13.5722C17.064 13.5903 17.0979 13.6067 17.1293 13.6219Z" fill="#DBDBDB"/>
</svg>
